<?xml version="1.0" encoding="UTF-8"?>
<svg id="Layer_1" data-name="Layer 1" xmlns="http://www.w3.org/2000/svg" width="785.46" height="436.36" viewBox="0 0 785.46 436.36">
  <defs>
    <style>
      .cls-1 {
        fill: #d7182a;
      }

      .cls-1, .cls-2, .cls-3, .cls-4, .cls-5, .cls-6, .cls-7, .cls-8 {
        fill-rule: evenodd;
        stroke-width: 0px;
      }

      .cls-2 {
        fill: #9c2a31;
      }

      .cls-3 {
        fill: #f5ae30;
      }

      .cls-4 {
        fill: #195a85;
      }

      .cls-5 {
        fill: #70cbe7;
      }

      .cls-6 {
        fill: #007236;
      }

      .cls-7 {
        fill: #a6ce39;
      }

      .cls-8 {
        fill: #de761c;
      }
    </style>
  </defs>
  <polygon class="cls-6" points="261.82 436.36 318.53 436.36 493.08 261.82 523.64 261.82 567.27 218.18 392.73 218.18 436.36 261.82 261.82 436.36"/>
  <polygon class="cls-7" points="523.64 261.82 523.64 292.38 379.65 436.36 436.36 436.36 523.64 349.09 567.27 392.73 567.27 218.18 523.64 261.82"/>
  <polygon class="cls-2" points="567.27 261.82 567.27 318.53 711.26 174.55 741.82 174.55 785.46 130.91 610.91 130.91 654.55 174.55 567.27 261.82"/>
  <polygon class="cls-1" points="741.82 174.55 741.82 205.11 513.36 436.36 570.07 436.36 741.82 261.82 785.46 305.45 785.46 130.91 741.82 174.55"/>
  <polygon class="cls-8" points="523.64 218.18 466.92 218.18 610.91 74.2 610.91 43.64 654.55 0 654.55 174.55 610.91 130.91 523.64 218.18"/>
  <polygon class="cls-3" points="610.91 43.64 580.35 43.64 436.36 187.62 436.36 130.91 523.64 43.64 480 0 654.55 0 610.91 43.64"/>
  <polygon class="cls-4" points="178.04 436.36 121.33 436.36 392.73 161.47 392.73 130.91 436.36 87.27 436.36 261.82 392.73 218.18 178.04 436.36"/>
  <polygon class="cls-5" points="392.73 130.91 362.17 130.91 56.71 436.36 0 436.36 305.45 130.91 261.82 87.27 436.36 87.27 392.73 130.91"/>
</svg>