<?xml version="1.0"?>
<svg xmlns="http://www.w3.org/2000/svg" width="24" height="25" viewBox="0 0 24 25" fill="none">
<path fill-rule="evenodd" clip-rule="evenodd" d="M12.1269 2.00081C9.81349 1.97146 7.56152 2.74515 5.75464 4.19005C3.94777 5.63495 2.6978 7.66166 2.2177 9.92485C1.7376 12.188 2.05709 14.5477 3.12172 16.6017C3.37587 17.0921 3.1844 17.6956 2.69406 17.9497C2.20373 18.2039 1.60021 18.0124 1.34606 17.5221C0.0685022 15.0572 -0.314881 12.2256 0.261235 9.50982C0.837352 6.79399 2.33732 4.36194 4.50557 2.62806C6.67382 0.894181 9.37619 -0.0342484 12.1522 0.000966102C14.9283 0.0361806 17.6062 1.03286 19.7298 2.82118C21.8534 4.6095 23.2911 7.07882 23.7982 9.80839C24.3052 12.538 23.8501 15.3589 22.5105 17.7905C21.1708 20.2222 19.0294 22.1141 16.4512 23.1439C13.873 24.1737 11.0175 24.2777 8.37123 23.4382C7.8448 23.2712 7.55343 22.709 7.72044 22.1826C7.88745 21.6562 8.4496 21.3648 8.97603 21.5318C11.1813 22.2314 13.5609 22.1448 15.7094 21.2866C17.8579 20.4284 19.6423 18.8518 20.7587 16.8255C21.8751 14.7991 22.2544 12.4483 21.8318 10.1737C21.4093 7.89902 20.2111 5.84125 18.4415 4.35099C16.6718 2.86072 14.4402 2.03015 12.1269 2.00081Z" fill="#6cce40"/>
<path fill-rule="evenodd" clip-rule="evenodd" d="M12 11C11.8687 11 11.7386 11.0259 11.6173 11.0761C11.496 11.1264 11.3858 11.2 11.2929 11.2929C11.2 11.3858 11.1264 11.496 11.0761 11.6173C11.0259 11.7386 11 11.8687 11 12C11 12.1313 11.0259 12.2614 11.0761 12.3827C11.1264 12.504 11.2 12.6142 11.2929 12.7071C11.3858 12.8 11.496 12.8736 11.6173 12.9239C11.7386 12.9741 11.8687 13 12 13C12.1313 13 12.2614 12.9741 12.3827 12.9239C12.504 12.8736 12.6142 12.8 12.7071 12.7071C12.8 12.6142 12.8736 12.504 12.9239 12.3827C12.9741 12.2614 13 12.1313 13 12C13 11.8687 12.9741 11.7386 12.9239 11.6173C12.8736 11.496 12.8 11.3858 12.7071 11.2929C12.6142 11.2 12.504 11.1264 12.3827 11.0761C12.2614 11.0259 12.1313 11 12 11ZM10.852 9.22836C11.2159 9.0776 11.606 9 12 9C12.394 9 12.7841 9.0776 13.1481 9.22836C13.512 9.37913 13.8427 9.6001 14.1213 9.87868C14.3999 10.1573 14.6209 10.488 14.7716 10.852C14.9224 11.2159 15 11.606 15 12C15 12.394 14.9224 12.7841 14.7716 13.1481C14.6209 13.512 14.3999 13.8427 14.1213 14.1213C13.8427 14.3999 13.512 14.6209 13.1481 14.7716C12.7841 14.9224 12.394 15 12 15C11.606 15 11.2159 14.9224 10.8519 14.7716C10.488 14.6209 10.1573 14.3999 9.87868 14.1213C9.6001 13.8427 9.37913 13.512 9.22836 13.1481C9.0776 12.7841 9 12.394 9 12C9 11.606 9.0776 11.2159 9.22836 10.8519C9.37913 10.488 9.6001 10.1573 9.87868 9.87868C10.1573 9.6001 10.488 9.37913 10.852 9.22836Z" fill="#6cce40"/>
<path fill-rule="evenodd" clip-rule="evenodd" d="M5 14C3.80361 14 3 14.8609 3 15.7273V18C3 18.5523 2.55228 19 2 19C1.44772 19 1 18.5523 1 18V15.7273C1 13.5812 2.88268 12 5 12C7.11731 12 9 13.5812 9 15.7273V18C9 18.5523 8.55228 19 8 19C7.44772 19 7 18.5523 7 18V15.7273C7 14.8609 6.19639 14 5 14Z" fill="#6cce40"/>
<path fill-rule="evenodd" clip-rule="evenodd" d="M7.92627 21.7617C7.946 21.7164 8 21.5591 8 21.1999C8 19.358 6.58369 18 5 18C3.41631 18 2 19.358 2 21.1999C2 21.5591 2.05401 21.7164 2.07373 21.7617C2.08953 21.7711 2.11911 21.7862 2.16979 21.8053C2.34968 21.8731 2.65924 21.937 3.18101 21.9702C3.6539 22.0004 4.17731 22.0002 4.81227 21.9999C4.87378 21.9999 4.93634 21.9998 5 21.9998C5.06366 21.9998 5.12622 21.9999 5.18773 21.9999C5.82269 22.0002 6.3461 22.0004 6.81899 21.9702C7.34076 21.937 7.65032 21.8731 7.83021 21.8053C7.88089 21.7862 7.91047 21.7711 7.92627 21.7617ZM7.94165 21.7505C7.94207 21.7506 7.93991 21.7528 7.93393 21.7568C7.93823 21.7524 7.94123 21.7504 7.94165 21.7505ZM2.05835 21.7505C2.05878 21.7504 2.06177 21.7524 2.06607 21.7568C2.06008 21.7528 2.05793 21.7506 2.05835 21.7505ZM5.19751 23.9999C7.86738 24.0016 10 24.0029 10 21.1999C10 18.3281 7.76142 16 5 16C2.23858 16 0 18.3281 0 21.1999C0 24.0029 2.13262 24.0016 4.80249 23.9999C4.86801 23.9999 4.93386 23.9998 5 23.9998C5.06614 23.9998 5.13199 23.9999 5.19751 23.9999Z" fill="#6cce40"/>
</svg>
