<?xml version="1.0"?>
<svg xmlns="http://www.w3.org/2000/svg" width="24" height="25" viewBox="0 0 24 25" fill="none">
<path fill-rule="evenodd" clip-rule="evenodd" d="M12.3052 4.5021C13.4941 5.69091 14.9027 8.17278 15.6234 10.7678C15.9776 12.0433 16.1305 13.2259 16.061 14.1905C15.9913 15.158 15.7148 15.7373 15.385 16.0671C15.0551 16.397 14.4759 16.6734 13.5083 16.7431C12.5437 16.8126 11.3612 16.6598 10.0856 16.3055C7.49065 15.5848 5.00879 14.1762 3.81997 12.9874C1.67549 10.8429 1.66688 7.15781 4.07128 4.75341C6.47568 2.34901 10.1608 2.35762 12.3052 4.5021ZM16.124 18.0141C14.3853 19.0905 11.6861 18.8981 9.06574 18.0905C7.62976 17.6479 6.21746 17.0206 4.99993 16.3161C4.83437 16.2203 4.67241 16.123 4.51448 16.0246C3.67672 15.5027 2.95241 14.9482 2.40575 14.4016C-0.579645 11.4162 -0.467129 6.46339 2.65707 3.33919C5.78126 0.215 10.7341 0.102484 13.7195 3.08788C16.4424 5.81078 19.3592 12.9413 17.4807 16.5447L23.6778 22.2651C24.0837 22.6397 24.109 23.2724 23.7344 23.6782C23.3598 24.084 22.7271 24.1093 22.3213 23.7347L16.124 18.0141ZM4.99993 18.0014C6.21249 18.0014 7.25702 18.7208 7.73003 19.756C7.90335 20.1353 7.99993 20.5571 7.99993 21.0014C7.99993 22.6582 6.65679 24.0014 4.99993 24.0014C3.34308 24.0014 1.99993 22.6582 1.99993 21.0014C1.99993 19.6442 2.90112 18.4976 4.13771 18.1271C4.4108 18.0453 4.70023 18.0014 4.99993 18.0014ZM5.99993 21.0014C5.99993 21.5537 5.55222 22.0014 4.99993 22.0014C4.44765 22.0014 3.99993 21.5537 3.99993 21.0014C3.99993 20.4491 4.44765 20.0014 4.99993 20.0014C5.55222 20.0014 5.99993 20.4491 5.99993 21.0014Z" fill="#6cce40"/>
</svg>
