<?xml version="1.0"?>
<svg xmlns="http://www.w3.org/2000/svg" width="24" height="24" viewBox="0 0 24 24" fill="none">
<path fill-rule="evenodd" clip-rule="evenodd" d="M14 4H10C6.68629 4 4 6.68629 4 10V14C4 17.3137 6.68629 20 10 20H14C17.3137 20 20 17.3137 20 14V10C20 6.68629 17.3137 4 14 4ZM10 2C5.58172 2 2 5.58172 2 10V14C2 18.4183 5.58172 22 10 22H14C18.4183 22 22 18.4183 22 14V10C22 5.58172 18.4183 2 14 2H10Z" fill="#6cce40"/>
<path fill-rule="evenodd" clip-rule="evenodd" d="M9 8C9 7.44772 9.44772 7 10 7H12.8125C13.7042 7 14.5276 7.40598 15.1119 8.07373C15.6924 8.73721 16 9.61167 16 10.5C16 11.3883 15.6924 12.2628 15.1119 12.9263C14.5276 13.594 13.7042 14 12.8125 14H10C9.44772 14 9 13.5523 9 13V8ZM11 9V12H12.8125C13.0811 12 13.3705 11.8792 13.6067 11.6093C13.8466 11.3351 14 10.9377 14 10.5C14 10.0623 13.8466 9.66494 13.6067 9.39074C13.3705 9.1208 13.0811 9 12.8125 9H11Z" fill="#6cce40"/>
<path fill-rule="evenodd" clip-rule="evenodd" d="M10 10C10.5523 10 11 10.4477 11 11V16C11 16.5523 10.5523 17 10 17C9.44772 17 9 16.5523 9 16V11C9 10.4477 9.44772 10 10 10Z" fill="#6cce40"/>
</svg>
