<?xml version="1.0"?>
<svg xmlns="http://www.w3.org/2000/svg" width="24" height="24" viewBox="0 0 24 24" fill="none">
<path fill-rule="evenodd" clip-rule="evenodd" d="M8.44836 3.19066C8.5913 2.65719 9.13964 2.34061 9.67311 2.48355L10.639 2.74237C11.1725 2.88531 11.7208 2.56873 11.8638 2.03526C12.0067 1.5018 11.6901 0.953458 11.1567 0.810517L10.1907 0.551698C8.59035 0.122872 6.94534 1.07262 6.51651 2.67302L5.62238 6.00997C2.67373 6.16801 0 8.16243 0 10.9998C0 11.3763 0.207974 11.7041 0.515281 11.8747C0.324826 12.3439 0.250499 12.8694 0.325934 13.4126L1.43704 21.4126C1.64304 22.8957 2.91113 23.9999 4.40852 23.9999H7.59235C9.08974 23.9999 10.3578 22.8957 10.5638 21.4126L11.6749 13.4126C11.7504 12.8693 11.676 12.3437 11.4854 11.8743C11.7923 11.7036 12 11.376 12 10.9998C12 8.57659 10.0498 6.76819 7.64376 6.19346L8.44836 3.19066ZM2.24044 9.99985H9.75956C9.23229 8.91308 7.87051 7.99985 6 7.99985C4.12949 7.99985 2.76771 8.91308 2.24044 9.99985ZM2.30692 13.1374C2.22342 12.5362 2.69043 11.9999 3.29741 11.9999H8.70346C9.31044 11.9999 9.77745 12.5362 9.69395 13.1374L8.58284 21.1374C8.51418 21.6318 8.09148 21.9999 7.59235 21.9999H4.40852C3.90939 21.9999 3.48669 21.6318 3.41803 21.1374L2.30692 13.1374Z" fill="#6cce40"/>
<path fill-rule="evenodd" clip-rule="evenodd" d="M24 8.82111C24 7.30337 22.1744 6.73644 21.2619 7.69757C20.5526 7.03571 19.4474 7.03571 18.7381 7.69757C17.8256 6.73644 16 7.30337 16 8.82111V21.5002C16 22.8809 17.1193 24.0002 18.5 24.0002H21.5C22.8807 24.0002 24 22.8809 24 21.5002V8.82111ZM19.8417 9.43626L20 9.26874L20.1583 9.43626C20.6612 9.9685 21.408 10.0612 22 9.78306V15H18V9.78306C18.592 10.0612 19.3388 9.9685 19.8417 9.43626ZM18 17V21.5002C18 21.7763 18.2239 22.0002 18.5 22.0002H21.5C21.7761 22.0002 22 21.7763 22 21.5002V17H18Z" fill="#6cce40"/>
</svg>
