<?xml version="1.0"?>
<svg xmlns="http://www.w3.org/2000/svg" width="24" height="24" viewBox="0 0 24 24" fill="none">
<path fill-rule="evenodd" clip-rule="evenodd" d="M9.35839 0.467562C10.1987 0.158152 11.0961 0 12 0C12.9039 0 13.8013 0.158152 14.6416 0.467562C15.482 0.776988 16.2527 1.23305 16.907 1.81469C17.5616 2.39653 18.088 3.09371 18.4497 3.86997C18.8116 4.64669 19 5.48414 19 6.33333V9C21.7614 9 24 11.2386 24 14V19C24 21.7614 21.7614 24 19 24H5C2.23858 24 2.12084e-06 21.7614 0 19V14C0 11.2386 2.23858 9 5 9L5 6.33333C5 5.48414 5.18836 4.64669 5.5503 3.86997C5.91203 3.09371 6.43843 2.39653 7.093 1.81469C7.74734 1.23305 8.51799 0.776988 9.35839 0.467562ZM17 6.33333V9L7 9V6.33333C7 5.78176 7.12203 5.23216 7.36314 4.71474C7.60447 4.19686 7.96199 3.71816 8.42172 3.30951C8.88168 2.90066 9.4339 2.57101 10.0494 2.34439C10.665 2.11775 11.3281 2 12 2C12.6719 2 13.335 2.11775 13.9506 2.34439C14.5661 2.57101 15.1183 2.90066 15.5783 3.30951C16.038 3.71816 16.3955 4.19686 16.6369 4.71474C16.878 5.23216 17 5.78176 17 6.33333ZM5 22H19C20.6569 22 22 20.6569 22 19V14C22 12.3431 20.6569 11 19 11L5 11C3.34315 11 2 12.3431 2 14L2 19C2 20.6569 3.34315 22 5 22ZM13.9996 15C13.9996 15.7531 13.5834 16.409 12.9685 16.7501C12.9891 16.83 13 16.9137 13 17V18C13 18.5523 12.5523 19 12 19C11.4477 19 11 18.5523 11 18V17C11 16.9138 11.0109 16.8301 11.0314 16.7503C10.4163 16.4092 10 15.7532 10 15C10 13.8954 10.8954 13 11.9998 13C13.1043 13 13.9996 13.8954 13.9996 15Z" fill="#6cce40"/>
</svg>
