<?xml version="1.0"?>
<svg xmlns="http://www.w3.org/2000/svg" width="24" height="24" viewBox="0 0 24 24" fill="none">
<path fill-rule="evenodd" clip-rule="evenodd" d="M0.564844 16.6508C0.148502 14.7772 1.57416 13 3.49341 13H10.5069C12.4262 13 13.8518 14.7773 13.4355 16.6508L12.3244 21.6508C12.0194 23.0234 10.8019 24 9.39583 24H4.60452C3.19842 24 1.98098 23.0234 1.67596 21.6508L0.564844 16.6508ZM3.49341 15C2.85366 15 2.37844 15.5924 2.51722 16.2169L3.62833 21.2169C3.73 21.6745 4.13582 22 4.60452 22H9.39583C9.86453 22 10.2703 21.6745 10.372 21.2169L11.4831 16.2169C11.6219 15.5924 11.1467 15 10.5069 15H3.49341Z" fill="#6cce40"/>
<path fill-rule="evenodd" clip-rule="evenodd" d="M21 3C21 2.44772 21.4477 2 22 2H23C23.5523 2 24 1.55228 24 1C24 0.447715 23.5523 0 23 0H22C20.3431 0 19 1.34315 19 3V10H14C13.4477 10 13 10.4477 13 11C13 13.2091 14.7909 15 17 15C19.2091 15 21 13.2091 21 11V3ZM17 13C16.2597 13 15.6134 12.5978 15.2676 12H18.7324C18.3866 12.5978 17.7403 13 17 13Z" fill="#6cce40"/>
<path d="M3.29289 3.29289C3.68342 2.90237 4.31658 2.90237 4.70711 3.29289L4.70784 3.29363L4.70868 3.29447L4.71062 3.29642L4.71561 3.30147L4.72983 3.31605C4.74113 3.32773 4.75604 3.34333 4.77402 3.3626C4.80993 3.40108 4.8585 3.45458 4.91551 3.52108C5.02862 3.65305 5.17961 3.84163 5.33205 4.0703C5.61525 4.49511 6 5.19942 6 6C6 6.74213 5.65361 7.43138 5.42942 7.87747L5.39443 7.94721C5.1154 8.50526 5 8.78199 5 9C5 9.19942 5.11525 9.49511 5.33205 9.8203C5.42961 9.96663 5.52862 10.0906 5.60301 10.1773C5.63975 10.2202 5.66931 10.2526 5.68809 10.2728C5.69744 10.2828 5.70403 10.2896 5.70737 10.2931C6.09756 10.6837 6.09752 11.3167 5.70711 11.7071C5.31658 12.0976 4.68342 12.0976 4.29289 11.7071L4.29132 11.7055L4.28938 11.7036L4.28439 11.6985L4.27017 11.6839C4.25886 11.6723 4.24396 11.6567 4.22598 11.6374C4.19007 11.5989 4.1415 11.5454 4.08449 11.4789C3.97138 11.3469 3.82039 11.1584 3.66795 10.9297C3.38475 10.5049 3 9.80058 3 9C3 8.25786 3.34639 7.56862 3.57058 7.12253L3.60557 7.05279C3.8846 6.49474 4 6.21801 4 6C4 5.80058 3.88475 5.50489 3.66795 5.1797C3.57039 5.03337 3.47138 4.90945 3.39699 4.82267C3.36025 4.7798 3.33069 4.74736 3.31191 4.72724C3.30256 4.71721 3.29597 4.71035 3.29263 4.7069C2.90244 4.31634 2.90248 3.68331 3.29289 3.29289Z" fill="#6cce40"/>
<path d="M8.29289 3.29289C8.68342 2.90237 9.31658 2.90237 9.70711 3.29289L9.70784 3.29363L9.70868 3.29447L9.71062 3.29642L9.71561 3.30147L9.72983 3.31605C9.74113 3.32773 9.75604 3.34333 9.77402 3.3626C9.80993 3.40108 9.8585 3.45458 9.91551 3.52108C10.0286 3.65305 10.1796 3.84163 10.332 4.0703C10.6153 4.49511 11 5.19942 11 6C11 6.74213 10.6536 7.43138 10.4294 7.87747L10.3944 7.94721C10.1154 8.50526 10 8.78199 10 9C10 9.19942 10.1153 9.49511 10.3321 9.8203C10.4296 9.96663 10.5286 10.0906 10.603 10.1773C10.6398 10.2202 10.6693 10.2526 10.6881 10.2728C10.6974 10.2828 10.704 10.2896 10.7074 10.2931C11.0976 10.6837 11.0975 11.3167 10.7071 11.7071C10.3166 12.0976 9.68342 12.0976 9.29289 11.7071L9.29132 11.7055L9.28938 11.7036L9.28439 11.6985L9.27017 11.6839C9.25886 11.6723 9.24396 11.6567 9.22598 11.6374C9.19007 11.5989 9.1415 11.5454 9.08449 11.4789C8.97138 11.3469 8.82039 11.1584 8.66795 10.9297C8.38475 10.5049 8 9.80058 8 9C8 8.25786 8.34639 7.56862 8.57058 7.12253L8.60557 7.05279C8.8846 6.49474 9 6.21801 9 6C9 5.80058 8.88475 5.50489 8.66795 5.1797C8.57039 5.03337 8.47138 4.90945 8.39699 4.82267C8.36025 4.7798 8.33069 4.74736 8.31191 4.72724C8.30256 4.71721 8.29597 4.71035 8.29263 4.7069C7.90244 4.31634 7.90248 3.68331 8.29289 3.29289Z" fill="#6cce40"/>
</svg>
