<?xml version="1.0"?>
<svg xmlns="http://www.w3.org/2000/svg" width="24" height="24" viewBox="0 0 24 24" fill="none">
<path fill-rule="evenodd" clip-rule="evenodd" d="M7 2C7 1.44772 7.44772 1 8 1C11.9782 1 15.7936 2.58035 18.6066 5.3934C21.4196 8.20644 23 12.0217 23 16C23 16.5523 22.5523 17 22 17C21.4477 17 21 16.5523 21 16C21 12.5522 19.6304 9.24558 17.1924 6.80761C14.7544 4.36964 11.4478 3 8 3C7.44772 3 7 2.55228 7 2Z" fill="#6cce40"/>
<path fill-rule="evenodd" clip-rule="evenodd" d="M7 7C7 6.44772 7.44772 6 8 6C9.31322 6 10.6136 6.25866 11.8268 6.7612C13.0401 7.26375 14.1425 8.00035 15.0711 8.92893C15.9997 9.85752 16.7362 10.9599 17.2388 12.1732C17.7413 13.3864 18 14.6868 18 16C18 16.5523 17.5523 17 17 17C16.4477 17 16 16.5523 16 16C16 14.9494 15.7931 13.9091 15.391 12.9385C14.989 11.9679 14.3997 11.086 13.6569 10.3431C12.914 9.60028 12.0321 9.011 11.0615 8.60896C10.0909 8.20693 9.05058 8 8 8C7.44772 8 7 7.55228 7 7Z" fill="#6cce40"/>
<path fill-rule="evenodd" clip-rule="evenodd" d="M7 12C7 11.4477 7.44772 11 8 11C8.65661 11 9.30679 11.1293 9.91342 11.3806C10.52 11.6319 11.0712 12.0002 11.5355 12.4645C11.9998 12.9288 12.3681 13.48 12.6194 14.0866C12.8707 14.6932 13 15.3434 13 16C13 16.5523 12.5523 17 12 17C11.4477 17 11 16.5523 11 16C11 15.606 10.9224 15.2159 10.7716 14.852C10.6209 14.488 10.3999 14.1573 10.1213 13.8787C9.84274 13.6001 9.51203 13.3791 9.14805 13.2284C8.78407 13.0776 8.39397 13 8 13C7.44772 13 7 12.5523 7 12Z" fill="#6cce40"/>
<path fill-rule="evenodd" clip-rule="evenodd" d="M5 20C5.55228 20 6 19.5523 6 19C6 18.4477 5.55228 18 5 18C4.44772 18 4 18.4477 4 19C4 19.5523 4.44772 20 5 20ZM5 22C6.65685 22 8 20.6569 8 19C8 17.3431 6.65685 16 5 16C3.34315 16 2 17.3431 2 19C2 20.6569 3.34315 22 5 22Z" fill="#6cce40"/>
</svg>
