<?xml version="1.0"?>
<svg xmlns="http://www.w3.org/2000/svg" width="24" height="24" viewBox="0 0 24 24" fill="none">
<path fill-rule="evenodd" clip-rule="evenodd" d="M21 9.03884C21.629 8.6081 22 8.00063 22 6.92308C22 4.35185 19.6913 2 16.5 2C15.3736 2 14.3572 2.29297 13.5135 2.78516C13.084 2.2542 12.5739 1.78204 12 1.38411C13.2535 0.515001 14.8116 0 16.5 0C20.6421 0 24 3.09957 24 6.92308C24 8.18421 23.6347 9.16573 22.9964 9.9149C22.9988 9.94296 23 9.97133 23 10V19V21C23 22.6569 21.6569 24 20 24H15.6774C15.1251 24 14.6774 23.5523 14.6774 23C14.6774 22.4477 15.1251 22 15.6774 22H20C20.5523 22 21 21.5523 21 21V20H16C15.4477 20 15 19.5523 15 19C15 18.4477 15.4477 18 16 18H21V11.2861V10V9.03884Z" fill="#6cce40"/>
<path fill-rule="evenodd" clip-rule="evenodd" d="M7.5 2C4.34699 2 2 4.24403 2 6.76923C2 7.9818 2.51541 8.71531 3.3928 9.20718C4.34887 9.74314 5.7709 10 7.5 10C9.2291 10 10.6511 9.74314 11.6072 9.20718C12.4846 8.71531 13 7.9818 13 6.76923C13 4.24403 10.653 2 7.5 2ZM0 6.76923C0 2.92191 3.47331 0 7.5 0C11.5267 0 15 2.92191 15 6.76923C15 7.12581 14.9693 7.46308 14.9104 7.78124C15.5116 7.8537 16.0933 8.12514 16.5486 8.59555C17.5761 9.6573 17.5761 11.3427 16.5486 12.4044L13.6452 15.4046V21C13.6452 22.6569 12.302 24 10.6452 24H4C2.34314 24 1 22.6569 1 21V10C1 9.93342 1.00651 9.86836 1.01892 9.80542C0.373389 9.02236 0 8.01338 0 6.76923ZM7.5 12C8.67702 12 9.84093 11.8938 10.8908 11.6176C10.9185 11.6528 10.9489 11.6866 10.982 11.7186C11.3789 12.1027 12.012 12.0923 12.396 11.6954L14.0499 9.98639C14.3402 9.68646 14.8211 9.68646 15.1114 9.98639C15.3885 10.2727 15.3885 10.7273 15.1114 11.0136L11.9266 14.3046L11.6452 14.5954V15V18H3V11.2398C4.303 11.8011 5.88922 12 7.5 12ZM3 20V21C3 21.5523 3.44771 22 4 22H10.6452C11.1974 22 11.6452 21.5523 11.6452 21V20H3Z" fill="#6cce40"/>
</svg>
