<?xml version="1.0"?>
<svg xmlns="http://www.w3.org/2000/svg" width="24" height="25" viewBox="0 0 24 25" fill="none">
<path fill-rule="evenodd" clip-rule="evenodd" d="M12 2C10.8954 2 10 2.89543 10 4C10 5.10457 10.8954 6 12 6C13.1046 6 14 5.10457 14 4C14 2.89543 13.1046 2 12 2ZM8 4C8 1.79086 9.79086 0 12 0C14.2091 0 16 1.79086 16 4C16 6.20914 14.2091 8 12 8C9.79086 8 8 6.20914 8 4Z" fill="#6cce40"/>
<path fill-rule="evenodd" clip-rule="evenodd" d="M2 11.4982C2 10.1185 3.11847 9 4.49817 9H19.5018C20.8815 9 22 10.1185 22 11.4982C22 12.8779 20.8815 13.9963 19.5018 13.9963H15.7309C15.6845 13.9963 15.6469 14.034 15.6469 14.0804V14.2105C15.6544 14.2225 15.666 14.2392 15.6829 14.2603C15.7049 14.2876 15.7329 14.3186 15.7678 14.3536L18.2252 16.811C18.6904 17.2762 18.9352 17.8816 18.9677 18.4866C18.985 18.8091 19 19.1558 19 19.5V21.5C19 22.8728 17.8931 24.0024 16.5206 24.0302C15.1322 24.0583 14.0006 22.9494 14.0006 21.5607L14.0006 19.6536L13.0378 18.6907C12.9256 18.5786 12.7735 18.5155 12.6149 18.5155H12.1524C12.1389 18.5238 12.12 18.5368 12.0956 18.5565C12.0667 18.5798 12.0341 18.6094 11.9974 18.646L7.38989 23.2536C6.43497 24.2085 4.85866 24.27 3.83216 23.3925C2.7593 22.4754 2.6973 20.888 3.69535 19.8899L7.00105 16.5842C7.18859 16.3967 7.29395 16.1424 7.29395 15.8771V14.9963C7.29395 14.4441 6.84623 13.9963 6.29394 13.9963H4.49817C3.11847 13.9963 2 12.8779 2 11.4982ZM4.49817 11C4.22304 11 4 11.223 4 11.4982C4 11.7733 4.22304 11.9963 4.49817 11.9963H6.29394C7.9508 11.9963 9.29395 13.3395 9.29395 14.9963V15.8771C9.29395 16.6728 8.97787 17.4359 8.41527 17.9985L5.10956 21.3042C5.01274 21.401 4.98219 21.5052 4.98564 21.5935C4.98909 21.6818 5.02768 21.7833 5.13176 21.8723C5.36465 22.0714 5.75902 22.056 5.97567 21.8393L10.5832 17.2318C10.845 16.9701 11.3685 16.5155 12.1046 16.5155H12.6149C13.3039 16.5155 13.9647 16.7893 14.452 17.2765L15.5278 18.3523C15.9114 18.7359 16.0006 19.2218 16.0006 19.5607L16.0006 21.5607C16.0006 21.829 16.2119 22.036 16.4801 22.0306C16.764 22.0248 17 21.784 17 21.5V19.5C17 19.2096 16.9873 18.905 16.9706 18.5938C16.9629 18.4502 16.9059 18.3201 16.811 18.2252L14.3536 15.7678C14.0908 15.505 13.6469 14.9869 13.6469 14.2599V14.0804C13.6469 12.9294 14.5799 11.9963 15.7309 11.9963H19.5018C19.777 11.9963 20 11.7733 20 11.4982C20 11.223 19.777 11 19.5018 11H4.49817Z" fill="#6cce40"/>
</svg>
