<?xml version="1.0"?>
<svg xmlns="http://www.w3.org/2000/svg" width="24" height="24" viewBox="0 0 24 24" fill="none">
<circle cx="12" cy="12" r="4" stroke="#6cce40" stroke-width="2"/>
<path d="M5.63603 7.05053C6.02657 7.44104 6.65973 7.44101 7.05024 7.05046C7.44074 6.65992 7.44072 6.02676 7.05017 5.63625L5.63603 7.05053ZM4.92875 3.51503C4.53821 3.12452 3.90505 3.12455 3.51454 3.51509C3.12403 3.90564 3.12406 4.5388 3.51461 4.92931L4.92875 3.51503ZM7.05017 5.63625L4.92875 3.51503L3.51461 4.92931L5.63603 7.05053L7.05017 5.63625Z" fill="#6cce40"/>
<path d="M19.0716 20.4851C19.4621 20.8756 20.0953 20.8756 20.4858 20.485C20.8763 20.0945 20.8763 19.4613 20.4857 19.0708L19.0716 20.4851ZM18.3643 16.9496C17.9738 16.5591 17.3406 16.5591 16.9501 16.9497C16.5596 17.3402 16.5596 17.9734 16.9502 18.3639L18.3643 16.9496ZM20.4857 19.0708L18.3643 16.9496L16.9502 18.3639L19.0716 20.4851L20.4857 19.0708Z" fill="#6cce40"/>
<path d="M7.05102 18.364C7.44152 17.9734 7.44149 17.3403 7.05095 16.9498C6.66041 16.5593 6.02724 16.5593 5.63674 16.9498L7.05102 18.364ZM3.51552 19.0712C3.12501 19.4618 3.12504 20.095 3.51558 20.4855C3.90613 20.876 4.53929 20.8759 4.9298 20.4854L3.51552 19.0712ZM5.63674 16.9498L3.51552 19.0712L4.9298 20.4854L7.05102 18.364L5.63674 16.9498Z" fill="#6cce40"/>
<path d="M20.4856 4.92843C20.8761 4.53789 20.8761 3.90472 20.4855 3.51421C20.095 3.12371 19.4618 3.12374 19.0713 3.51428L20.4856 4.92843ZM16.9501 5.6357C16.5596 6.02624 16.5596 6.65941 16.9502 7.04991C17.3407 7.44042 17.9739 7.44039 18.3644 7.04985L16.9501 5.6357ZM19.0713 3.51428L16.9501 5.6357L18.3644 7.04985L20.4856 4.92843L19.0713 3.51428Z" fill="#6cce40"/>
<path d="M11 4C11 4.55228 11.4477 5 12 5C12.5523 5 13 4.55228 13 4H11ZM13 1C13 0.447715 12.5523 0 12 0C11.4477 0 11 0.447715 11 1H13ZM13 4V1H11V4H13Z" fill="#6cce40"/>
<path d="M11 23C11 23.5523 11.4477 24 12 24C12.5523 24 13 23.5523 13 23H11ZM13 20C13 19.4477 12.5523 19 12 19C11.4477 19 11 19.4477 11 20H13ZM13 23V20H11V23H13Z" fill="#6cce40"/>
<path d="M4.00007 13.0008C4.55236 13.0007 5.00004 12.553 5 12.0007C4.99996 11.4484 4.55221 11.0007 3.99993 11.0008L4.00007 13.0008ZM0.999928 11.001C0.447643 11.001 -3.99527e-05 11.4488 5.96046e-08 12.001C4.00719e-05 12.5533 0.447788 13.001 1.00007 13.001L0.999928 11.001ZM3.99993 11.0008L0.999928 11.001L1.00007 13.001L4.00007 13.0008L3.99993 11.0008Z" fill="#6cce40"/>
<path d="M23.0001 12.9993C23.5524 12.9993 24 12.5515 24 11.9992C24 11.4469 23.5522 10.9993 22.9999 10.9993L23.0001 12.9993ZM19.9999 10.9995C19.4476 10.9996 19 11.4473 19 11.9996C19 12.5519 19.4478 12.9996 20.0001 12.9995L19.9999 10.9995ZM22.9999 10.9993L19.9999 10.9995L20.0001 12.9995L23.0001 12.9993L22.9999 10.9993Z" fill="#6cce40"/>
</svg>
