<?xml version="1.0"?>
<svg xmlns="http://www.w3.org/2000/svg" width="26" height="24" viewBox="0 0 26 24" fill="none">
<path fill-rule="evenodd" clip-rule="evenodd" d="M5.01601 6.17616L4.81412 7.15171L3.86089 6.83724L4.13986 5.99405L5.01601 6.17616ZM5.54468 8.40603C5.50237 8.64019 5.46278 8.90801 5.43473 9.19902C5.33344 10.2503 5.39295 11.5015 5.91406 12.5673L4.10981 13.4328C3.35888 11.897 3.31949 10.2241 3.43729 9.0016C3.49718 8.38014 3.60032 7.84852 3.68894 7.47025C3.73338 7.28056 3.77452 7.12792 3.80541 7.02011C3.82086 6.96617 3.83378 6.92333 3.84331 6.89256L3.85495 6.85553L3.85867 6.844L3.85998 6.84002L3.86048 6.83848L3.86089 6.83724C3.86089 6.83724 3.86089 6.83724 4.81412 7.15171C5.01601 6.17616 5.01601 6.17616 5.01601 6.17616L5.01839 6.17665L5.02167 6.17735L5.03091 6.17932L5.05986 6.18572C5.08372 6.19108 5.11659 6.19867 5.15767 6.20866C5.2398 6.22862 5.35508 6.25822 5.49715 6.29872C5.78073 6.37957 6.17433 6.5048 6.62632 6.6852C7.52008 7.04192 8.6926 7.63418 9.68685 8.56703L8.31203 10.0138C7.56913 9.3168 6.649 8.8397 5.88438 8.53453C5.76569 8.48716 5.65197 8.44441 5.54468 8.40603Z" fill="#6cce40"/>
<path fill-rule="evenodd" clip-rule="evenodd" d="M1.79031 12.8944L2.18 13.8117L1.22062 14.1055L0.958496 13.2471L1.79031 12.8944ZM3.50543 14.4244C3.62081 14.6707 3.76416 14.9502 3.9372 15.243C4.5112 16.2141 5.352 17.2304 6.48696 17.755C7.5889 18.2644 8.66441 18.529 9.54937 18.5763C10.4725 18.6258 11.025 18.434 11.2613 18.2369C11.3301 18.1795 11.3701 18.1242 11.395 18.0713L13.2104 18.9104C13.051 19.2494 12.8208 19.5337 12.5458 19.7631C11.7389 20.4363 10.5702 20.6292 9.43299 20.5683C8.25758 20.5054 6.93356 20.1647 5.63562 19.5648C3.97527 18.7973 2.87542 17.3895 2.20761 16.2596C1.86791 15.6849 1.6245 15.1558 1.46529 14.7689C1.38544 14.5748 1.32608 14.4148 1.28586 14.3007C1.26573 14.2436 1.25035 14.1978 1.23954 14.1648L1.22673 14.125L1.22284 14.1127L1.22153 14.1084L1.22102 14.1068L1.22062 14.1055L2.18 13.8117C1.79031 12.8944 1.79031 12.8944 1.79031 12.8944L1.79158 12.8939L1.79317 12.8932L1.7973 12.8915L1.80936 12.8865L1.84831 12.8707C1.88075 12.8577 1.92602 12.8399 1.98309 12.8185C2.09715 12.7757 2.25893 12.7179 2.46024 12.6538C2.86159 12.526 3.42692 12.3707 4.08943 12.2593C5.39186 12.0401 7.18675 11.9703 8.84711 12.7378C9.11236 12.8604 9.36929 12.9905 9.61696 13.127L8.63975 14.8731C8.43345 14.7594 8.21851 14.6505 7.99577 14.5476C6.86082 14.023 5.53499 14.0377 4.41553 14.2261C4.07805 14.2829 3.76993 14.3537 3.50543 14.4244Z" fill="#6cce40"/>
<path fill-rule="evenodd" clip-rule="evenodd" d="M21.823 6.8371L20.8698 7.15156L20.6679 6.17601L21.544 5.99391L21.823 6.8371ZM20.1392 8.40588C20.0369 8.44251 19.9286 8.48311 19.8158 8.52791C19.0597 8.82814 18.1468 9.29771 17.4038 9.98396L16.0406 8.52639C17.0322 7.61056 18.1931 7.02833 19.0772 6.67727C19.5242 6.49977 19.9129 6.37647 20.1929 6.29683C20.3332 6.25693 20.4469 6.22777 20.528 6.20809C20.5686 6.19824 20.601 6.19075 20.6246 6.18546L20.6532 6.17915L20.6623 6.17719L20.6655 6.17651L20.6679 6.17601C20.6679 6.17601 20.6679 6.17601 20.8698 7.15156C21.823 6.8371 21.823 6.8371 21.823 6.8371L21.824 6.84002L21.8254 6.84425L21.8293 6.85659L21.8418 6.89643C21.8521 6.92958 21.866 6.97582 21.8825 7.03405C21.9156 7.15041 21.9596 7.31521 22.0064 7.51961C22.0999 7.9271 22.2067 8.49905 22.261 9.16328C22.3678 10.4685 22.2818 12.25 21.3636 13.8264L19.6278 12.833C20.2517 11.7617 20.3528 10.4541 20.2611 9.33218C20.233 8.98964 20.188 8.67556 20.1392 8.40588Z" fill="#6cce40"/>
<path fill-rule="evenodd" clip-rule="evenodd" d="M24.7795 14.1065L23.8201 13.8128L24.2098 12.8955L25.0416 13.2482L24.7795 14.1065ZM22.4947 14.4255C22.2302 14.3548 21.9221 14.284 21.5846 14.2272C20.4652 14.0388 19.1393 14.024 18.0044 14.5487C17.657 14.7092 17.3287 14.8841 17.0226 15.0691L15.9762 13.3629C16.346 13.1394 16.7395 12.93 17.153 12.7389C18.8134 11.9714 20.6083 12.0412 21.9107 12.2603C22.5732 12.3718 23.1386 12.5271 23.5399 12.6549C23.7412 12.719 23.903 12.7767 24.017 12.8196C24.0741 12.841 24.1194 12.8587 24.1518 12.8717L24.1908 12.8876L24.2028 12.8926L24.207 12.8943L24.2086 12.895L24.2098 12.8955C24.2098 12.8955 24.2098 12.8955 23.8201 13.8128C24.7795 14.1065 24.7795 14.1065 24.7795 14.1065L24.7791 14.1078L24.7786 14.1095L24.7773 14.1137L24.7734 14.1261L24.7606 14.1659C24.7498 14.1988 24.7344 14.2446 24.7143 14.3017C24.6741 14.4159 24.6147 14.5758 24.5348 14.7699C24.3756 15.1568 24.1322 15.6859 23.7925 16.2607C23.1247 17.3906 22.0249 18.7984 20.3645 19.5658C18.9753 20.208 17.5534 20.5543 16.3147 20.5787C15.1293 20.602 13.8697 20.3283 13.1238 19.4347L14.6642 18.1642C14.8208 18.3518 15.2979 18.6033 16.2664 18.5842C17.1816 18.5662 18.3308 18.3026 19.5132 17.7561C20.6481 17.2315 21.4889 16.2152 22.0629 15.244C22.236 14.9513 22.3793 14.6718 22.4947 14.4255Z" fill="#6cce40"/>
<path fill-rule="evenodd" clip-rule="evenodd" d="M13.667 2.25504L12.9999 3.00002L12.3328 2.25504L12.9999 1.65771L13.667 2.25504ZM12.9999 4.42691C12.6644 4.79762 12.2431 5.30285 11.8227 5.91151C10.8752 7.28322 9.99993 9.08191 9.99993 11C9.99993 13.0876 10.4251 14.9281 11.0659 16.2097C11.7366 17.5511 12.4782 18 12.9999 18C13.5217 18 14.2632 17.5511 14.9339 16.2097C15.5747 14.9281 15.9999 13.0876 15.9999 11C15.9999 9.08191 15.1246 7.28322 14.1771 5.91151C13.7567 5.30285 13.3354 4.79762 12.9999 4.42691ZM12.3328 2.25504C12.3328 2.25504 12.3328 2.25504 12.9999 3.00002C13.667 2.25504 13.667 2.25504 13.667 2.25504L13.6695 2.2573L13.6735 2.26089L13.6858 2.27202C13.6958 2.28119 13.7095 2.29383 13.7267 2.30988C13.7612 2.34196 13.8095 2.38766 13.8697 2.44632C13.99 2.56356 14.1583 2.73296 14.3585 2.94914C14.7581 3.38051 15.2899 4.00345 15.8227 4.77483C16.8752 6.29855 17.9999 8.49986 17.9999 11C17.9999 13.3307 17.5297 15.4903 16.7228 17.1041C15.9458 18.6581 14.6873 20 12.9999 20C11.3125 20 10.0541 18.6581 9.27707 17.1041C8.47016 15.4903 7.99993 13.3307 7.99993 11C7.99993 8.49986 9.12463 6.29855 10.1771 4.77483C10.71 4.00345 11.2417 3.38051 11.6413 2.94914C11.8416 2.73296 12.0099 2.56356 12.1302 2.44632C12.1904 2.38766 12.2387 2.34196 12.2731 2.30988C12.2903 2.29383 12.3041 2.28119 12.3141 2.27202L12.3263 2.26089L12.3303 2.2573L12.3328 2.25504Z" fill="#6cce40"/>
</svg>
