<?xml version="1.0"?>
<svg xmlns="http://www.w3.org/2000/svg" width="24" height="24" viewBox="0 0 24 24" fill="none">
<path fill-rule="evenodd" clip-rule="evenodd" d="M12 0C11.4477 0 11 0.447715 11 1C11 1.55228 11.4477 2 12 2H14.0424C14.5004 2 14.8998 2.31107 15.012 2.75506L16.8691 10.1064C14.0961 10.6353 12 13.0729 12 16C12 16.4425 12.0479 16.8739 12.1388 17.2891L7.41994 18.1098C6.75192 18.0917 6.13403 17.8474 5.68949 17.4523C5.23108 17.0448 5 16.5191 5 15.9998C5 15.4804 5.23108 14.9548 5.68949 14.5473C5.98898 14.2811 6.36714 14.0834 6.78631 13.9771C6.93229 14.0092 7.08771 14.0088 7.24254 13.9701C7.31488 13.9521 7.38339 13.9265 7.44746 13.8945L12.1389 14.7104C12.2884 14.028 12.554 13.389 12.914 12.8152L7.76052 11.919L6.28078 6H7C7.55228 6 8 5.55228 8 5C8 4.44772 7.55228 4 7 4H2C1.44772 4 1 4.44772 1 5C1 5.55228 1.44772 6 2 6H4.21922L5.77019 12.2039C5.25356 12.4 4.77406 12.6851 4.36076 13.0525C3.50642 13.8119 3 14.8689 3 15.9998C3 17.1307 3.50642 18.1877 4.36076 18.9471C4.37733 18.9618 4.39401 18.9764 4.4108 18.9909L0.375342 22.2192C-0.0559201 22.5642 -0.125842 23.1935 0.219168 23.6248C0.564178 24.0561 1.19347 24.126 1.62473 23.781L6.37515 19.9806C6.74116 20.0668 7.11911 20.1109 7.5 20.1109H7.58631L7.67134 20.0961L12.9138 19.1844C13.9749 20.8756 15.8561 22 18 22C18.9725 22 19.891 21.7686 20.7034 21.3579L22.168 23.5547C22.4743 24.0142 23.0952 24.1384 23.5547 23.8321C24.0142 23.5257 24.1384 22.9048 23.8321 22.4453L22.3147 20.1693C23.3581 19.0898 24 17.6199 24 16C24 13.0001 21.7985 10.5145 18.9229 10.0705L16.951 2.26519C16.6145 0.933205 15.4163 0 14.0424 0H12ZM18 20C20.2091 20 22 18.2091 22 16C22 13.7909 20.2091 12 18 12C15.7909 12 14 13.7909 14 16C14 18.2091 15.7909 20 18 20Z" fill="#6cce40"/>
</svg>
