<?xml version="1.0" encoding="UTF-8"?>
<svg id="OBJECTS" xmlns="http://www.w3.org/2000/svg" width="122.31" height="99.77" viewBox="0 0 122.31 99.77">
  <defs>
    <style>
      .cls-1 {
        fill: #00c04c;
      }

      .cls-1, .cls-2 {
        stroke-width: 0px;
      }

      .cls-2 {
        fill: #313a3d;
      }
    </style>
  </defs>
  <g>
    <path class="cls-1" d="m46.93,26.32c10.61-5.31,20.21-8.48,28.65-9.95l-1.39,2.82c-7.59.71-16.69,2.92-27.26,7.13Z"/>
    <path class="cls-1" d="m86.86,78.54c-44.89,24.28-77.15,13.49-84.52-2.13C-7.91,54.67,15.69,19.55,69.01,0l-30.57,25.49,1.55-8.99c-27.45,22.82-29.28,55.14,1.27,54.31,24.14-.65,49.78-15.87,58.17-29.78,6.78-11.24-.84-22.66-21.39-22.08l.89-3.09c44.38-5.61,53.85,37.85,7.93,62.68Z"/>
    <polygon class="cls-2" points="51.14 45.92 57.61 46.04 54.38 42.77 32.93 36.59 51.14 45.92"/>
    <polygon class="cls-2" points="58.7 36.72 57.61 46.04 66.21 37.99 83.48 2.09 58.7 36.72"/>
    <path class="cls-2" d="m60.21,45.09c.3,1.02-.63,2.28-2.08,2.8-1.45.53-2.85.12-3.13-.91-.28-1.01.65-2.25,2.08-2.77,1.43-.52,2.83-.13,3.12.88Z"/>
  </g>
  <path class="cls-2" d="m48.54,98.62c19.9-1.6,59.75-17.02,73.77-46.06-4.61,29.84-45.12,52.67-73.77,46.06Z"/>
</svg>