<?xml version="1.0" encoding="UTF-8"?>
<svg id="Objects" xmlns="http://www.w3.org/2000/svg" width="315.49" height="286.46" xmlns:xlink="http://www.w3.org/1999/xlink" viewBox="0 0 315.49 286.46">
  <defs>
    <style>
      .cls-1 {
        fill: url(#linear-gradient);
      }

      .cls-1, .cls-2, .cls-3, .cls-4, .cls-5, .cls-6, .cls-7 {
        stroke-width: 0px;
      }

      .cls-2 {
        fill: url(#linear-gradient-6);
      }

      .cls-3 {
        fill: url(#linear-gradient-5);
      }

      .cls-4 {
        fill: url(#linear-gradient-2);
      }

      .cls-5 {
        fill: url(#linear-gradient-7);
      }

      .cls-6 {
        fill: url(#linear-gradient-3);
      }

      .cls-7 {
        fill: url(#linear-gradient-4);
      }
    </style>
    <linearGradient id="linear-gradient" x1="37.86" y1="241.12" x2="152.28" y2="-7.85" gradientUnits="userSpaceOnUse">
      <stop offset="0" stop-color="#1277c5"/>
      <stop offset="1" stop-color="#5ed376"/>
    </linearGradient>
    <linearGradient id="linear-gradient-2" x1="174.36" y1="308.6" x2="294.11" y2="48.03" xlink:href="#linear-gradient"/>
    <linearGradient id="linear-gradient-3" x1="63.02" y1="257.43" x2="182.77" y2="-3.14" xlink:href="#linear-gradient"/>
    <linearGradient id="linear-gradient-4" x1="119.2" y1="283.25" x2="238.95" y2="22.68" xlink:href="#linear-gradient"/>
    <linearGradient id="linear-gradient-5" x1="85.57" y1="262.88" x2="201.44" y2="10.75" xlink:href="#linear-gradient"/>
    <linearGradient id="linear-gradient-6" x1="131.18" y1="281.55" x2="246.81" y2="29.94" xlink:href="#linear-gradient"/>
    <linearGradient id="linear-gradient-7" x1="154.33" y1="204.41" x2="160.24" y2="52.14" xlink:href="#linear-gradient"/>
  </defs>
  <g>
    <path class="cls-1" d="m119.77,145v-47.19c0-6.19-5.02-11.2-11.2-11.2h-30.26c-6.19,0-11.2,5.02-11.2,11.2v54.81c14.58-.49,32.7-3.15,52.66-7.62Z"/>
    <path class="cls-4" d="m211.08,137.17v68.47h52.66v-94.58c-15.14,8.92-32.97,17.79-52.66,26.11Z"/>
  </g>
  <path class="cls-6" d="m109.91,180.31h9.86v-12.97c-18.8,4.55-36.63,7.77-52.66,9.5v28.8h52.66v-12.62l-9.86-12.71Z"/>
  <path class="cls-7" d="m170.83,152.45c-10.91,3.71-21.74,7.05-32.37,10.02v17.84h10.78l-10.78,13.89v11.44h52.66v-60.49c-6.62,2.51-13.39,4.95-20.29,7.3Z"/>
  <path class="cls-3" d="m181.86,74.42l9.26-11.93v-2.96c0-5.77-4.67-10.44-10.44-10.44h-31.78c-5.77,0-10.44,4.67-10.44,10.44v80.9c12.49-3.31,25.45-7.21,38.52-11.66,4.84-1.64,9.54-3.31,14.14-5v-49.35h-9.26Z"/>
  <path class="cls-2" d="m211.08,13.46v47.95l10.11,13.02h-10.11v41.6c21-8.62,38.74-17.47,52.66-25.74V13.46c0-7.43-6.02-13.46-13.46-13.46h-25.75c-7.43,0-13.46,6.02-13.46,13.46Z"/>
  <path class="cls-5" d="m315.44,45.04l-29.03,21,15.01-.02c-11.2,18.79-60.37,46.5-122.75,67.71-74.84,25.44-140.34,31.86-146.3,14.35-2.85-8.38,8.45-20.72,29.2-34.09v-14.79C20.33,121.33-4.37,144.13.64,158.86c7.72,22.72,83.16,17.63,168.5-11.37,69.97-23.78,124.85-56.26,138.1-79.71l8.25,10.69-.04-33.43Z"/>
</svg>