<svg width="22" height="22" viewBox="0 0 22 22" fill="none" xmlns="http://www.w3.org/2000/svg">
<path d="M10.9956 20.0179C13.9333 20.0179 14.2782 20.0048 15.4393 19.9524C16.5131 19.9043 17.0937 19.7253 17.4821 19.5725C17.9972 19.3717 18.3639 19.1359 18.748 18.7517C19.1321 18.3675 19.3722 18.0008 19.5687 17.4856C19.7171 17.097 19.9004 16.5164 19.9484 15.4423C20.0008 14.281 20.0139 13.9361 20.0139 10.9978C20.0139 8.05954 20.0008 7.71463 19.9484 6.55328C19.9004 5.47926 19.7214 4.89859 19.5687 4.51002C19.3679 3.99484 19.1321 3.6281 18.748 3.2439C18.3639 2.85969 17.9972 2.61957 17.4821 2.4231C17.0937 2.27466 16.5131 2.09129 15.4393 2.04326C14.2782 1.99087 13.9333 1.97777 10.9956 1.97777C8.05794 1.97777 7.7131 1.99087 6.55198 2.04326C5.47817 2.09129 4.89762 2.27029 4.50913 2.4231C3.99405 2.62393 3.62738 2.85969 3.24325 3.2439C2.85913 3.6281 2.61905 3.99484 2.42262 4.51002C2.27421 4.89859 2.09087 5.47926 2.04286 6.55328C1.99048 7.71463 1.97738 8.05954 1.97738 10.9978C1.97738 13.9361 1.99048 14.281 2.04286 15.4423C2.09087 16.5164 2.26984 17.097 2.42262 17.4856C2.62341 18.0008 2.85913 18.3675 3.24325 18.7517C3.62738 19.1359 3.99405 19.3761 4.50913 19.5725C4.89762 19.721 5.47817 19.9043 6.55198 19.9524C7.7131 20.0091 8.0623 20.0179 10.9956 20.0179ZM10.9956 22C8.00992 22 7.63452 21.9869 6.46032 21.9345C5.29048 21.8821 4.49167 21.6944 3.79325 21.4237C3.06865 21.1443 2.45754 20.7644 1.84643 20.1532C1.23532 19.542 0.859921 18.9264 0.57619 18.206C0.305556 17.5074 0.117857 16.7085 0.0654762 15.534C0.0130952 14.364 0 13.9885 0 11.0022C0 8.01588 0.0130952 7.64041 0.0654762 6.46597C0.117857 5.29589 0.305556 4.49692 0.57619 3.79401C0.855556 3.06926 1.23532 2.45803 1.84643 1.84679C2.45754 1.23556 3.07302 0.860091 3.79325 0.576304C4.49167 0.305616 5.29048 0.117881 6.46468 0.0654895C7.63889 0.0130982 8.00992 3.50668e-07 11 3.50668e-07C13.9901 3.50668e-07 14.3611 0.0130982 15.5353 0.0654895C16.7052 0.117881 17.504 0.305616 18.2067 0.576304C18.9313 0.855725 19.5425 1.23556 20.1536 1.84679C20.7647 2.45803 21.1401 3.07363 21.4238 3.79401C21.6944 4.49256 21.8821 5.29153 21.9345 6.46597C21.9869 7.64041 22 8.01151 22 11.0022C22 13.9929 21.9869 14.364 21.9345 15.5384C21.8821 16.7085 21.6944 17.5074 21.4238 18.2104C21.1444 18.9351 20.7647 19.5463 20.1536 20.1576C19.5425 20.7688 18.927 21.1443 18.2067 21.4281C17.5083 21.6987 16.7095 21.8865 15.5353 21.9389C14.3567 21.9869 13.9813 22 10.9956 22Z" fill="white"/>
<path d="M10.9961 16.6472C7.8794 16.6472 5.34766 14.1193 5.34766 10.9977C5.34766 7.87603 7.87503 5.34815 10.9961 5.34815C14.1171 5.34815 16.6445 7.87603 16.6445 10.9977C16.6445 14.1193 14.1171 16.6472 10.9961 16.6472ZM10.9961 7.33465C8.97067 7.33465 7.3294 8.97625 7.3294 11.002C7.3294 13.0278 8.97067 14.6694 10.9961 14.6694C13.0215 14.6694 14.6627 13.0278 14.6627 11.002C14.6627 8.97625 13.0215 7.33465 10.9961 7.33465Z" fill="white"/>
<path d="M16.8671 15.5556C17.5951 15.5556 18.1853 16.146 18.1853 16.8743C18.1853 17.6027 17.5951 18.1931 16.8671 18.1931C16.139 18.1931 15.5488 17.6027 15.5488 16.8743C15.5488 16.146 16.139 15.5556 16.8671 15.5556Z" fill="white"/>
</svg>
