<svg width="24" height="24" viewBox="0 0 24 24" fill="none" xmlns="http://www.w3.org/2000/svg">
<path d="M0 18.25C0 16.0409 1.79086 14.25 4 14.25H8.75V24H4C1.79086 24 0 22.2091 0 20V18.25Z" fill="#6cce40" fill-opacity="0.2"/>
<path fill-rule="evenodd" clip-rule="evenodd" d="M16.25 10.25H10.75C9.64543 10.25 8.75 11.1454 8.75 12.25V16.25H4C2.89543 16.25 2 17.1454 2 18.25V20C2 21.1046 2.89543 22 4 22H20C21.1046 22 22 21.1046 22 20V4C22 2.89543 21.1046 2 20 2H18.25C17.1454 2 16.25 2.89543 16.25 4V10.25ZM14.25 4C14.25 1.79086 16.0409 0 18.25 0H20C22.2091 0 24 1.79086 24 4V20C24 22.2091 22.2091 24 20 24H4C1.79086 24 0 22.2091 0 20V18.25C0 16.0409 1.79086 14.25 4 14.25H6.75V12.25C6.75 10.0409 8.54086 8.25 10.75 8.25H14.25V4Z" fill="#6cce40"/>
</svg>
