<svg width="105" height="40" viewBox="0 0 105 40" fill="none" xmlns="http://www.w3.org/2000/svg">
<g clip-path="url(#clip0)">
<path d="M12.959 2.16945C13.8675 2.16945 14.5623 2.91019 14.5623 3.75675C14.5623 4.65622 13.8141 5.34405 12.959 5.34405C12.0505 5.34405 11.3557 4.60331 11.3557 3.75675C11.3023 2.91019 12.0505 2.16945 12.959 2.16945ZM3.17894 26.5081V9.41813H0.399902V7.61918H3.17894V4.18003C3.17894 2.75146 3.55304 1.74617 4.2478 1.05834C4.94255 0.423417 6.1183 0.105957 7.66815 0.105957C7.82847 0.105957 7.9888 0.105957 8.20257 0.105957C8.3629 0.105957 8.57668 0.158867 8.79045 0.211777V2.16945C8.737 2.16945 8.68356 2.16945 8.57668 2.16945C8.14913 2.11654 7.82847 2.11654 7.6147 2.11654C6.81306 2.11654 6.22518 2.27527 5.85108 2.64564C5.53043 2.9631 5.3701 3.54511 5.3701 4.39167V7.61918H11.6229H13.8141H16.5931H17.1275H19.2118V2.22236H21.403V7.61918H24.9302V9.41813H21.403V23.1747C21.403 23.9684 21.5099 24.4975 21.7236 24.762C21.9374 25.0266 22.3115 25.1324 22.7925 25.1324C23.0063 25.1324 23.2735 25.1324 23.5407 25.0795C23.8079 25.0266 24.2889 24.9737 24.8768 24.815V26.561C24.3423 26.7197 23.8614 26.8255 23.3804 26.8784C22.9528 26.9314 22.5253 26.9843 22.1512 26.9843C21.0289 26.9843 20.2807 26.7197 19.7997 26.1377C19.3722 25.6086 19.1049 24.6033 19.1049 23.1747V9.41813H17.0207H16.4862H13.7072V26.5081H11.6229V9.41813H5.3701V26.5081H3.17894Z" fill="#99C21C"/>
<path d="M101.193 13.8624C101.086 12.5397 100.605 11.5344 99.7504 10.8466C98.8953 10.1587 97.7196 9.78836 96.2232 9.78836C94.4596 9.78836 93.1235 10.4233 92.1615 11.6402C91.1995 12.8571 90.7186 14.6561 90.7186 16.9841C90.7186 19.3122 91.1995 21.1111 92.1081 22.328C93.0166 23.5979 94.2992 24.2328 96.0094 24.2328C97.5058 24.2328 98.735 23.8624 99.6435 23.0688C100.552 22.2751 101.086 21.164 101.3 19.7354H104.4C104.24 22.0635 103.385 23.8624 101.888 25.1852C100.392 26.5079 98.3609 27.1429 95.8491 27.1429C93.2304 27.1429 91.1461 26.2434 89.6497 24.4444C88.1533 22.6455 87.4051 20.2116 87.4051 17.0899C87.4051 13.9153 88.2067 11.4286 89.7566 9.57672C91.3064 7.77778 93.4976 6.87831 96.2232 6.87831C98.6281 6.87831 100.552 7.51323 102.048 8.73016C103.491 10 104.293 11.6931 104.347 13.8095H101.193V13.8624ZM72.3876 26.5608V7.51323H75.4873V10.9524C76.0217 9.68254 76.7165 8.73016 77.5716 8.09524C78.4801 7.46032 79.4955 7.40741 80.7782 7.40741C80.9919 7.40741 81.2057 7.40741 81.3126 7.40741C81.4195 7.40741 85.5346 7.40741 85.6415 7.46032V7.51323V9.41799V10.5291V26.5608H82.4349V10.5291C81.847 10.5291 81.4195 10.5291 81.4195 10.5291C81.3126 10.5291 81.1523 10.5291 80.9385 10.5291C79.2283 10.5291 77.8922 11.0053 76.9837 11.9048C76.0752 12.8571 75.6476 14.1799 75.6476 15.9788V26.5608H72.3876ZM55.8203 16.9312C55.8203 19.3122 56.3013 21.1111 57.3167 22.381C58.2787 23.6508 59.7216 24.2857 61.5387 24.2857C63.3023 24.2857 64.6918 23.6508 65.7072 22.4339C66.7227 21.2169 67.2571 19.4709 67.2571 17.3016C67.2571 14.9206 66.7761 13.0159 65.7607 11.746C64.7987 10.4233 63.3558 9.78836 61.5387 9.78836C59.6147 9.78836 58.2252 10.3704 57.2633 11.5873C56.3013 12.7513 55.8203 14.5503 55.8203 16.9312ZM46.4678 16.8783C45.6127 17.3545 44.1163 17.7249 42.032 17.9894C41.2838 18.0952 40.7494 18.1481 40.3753 18.2011C39.1995 18.4127 38.3444 18.7302 37.8635 19.2063C37.329 19.6825 37.1153 20.4233 37.1153 21.3757C37.1153 22.328 37.4359 23.0688 38.0238 23.545C38.6117 24.0741 39.4667 24.2857 40.589 24.2857C42.3527 24.2857 43.7422 23.8624 44.8645 22.963C45.9868 22.1164 46.5212 21.0053 46.5212 19.6296V16.8783H46.4678ZM29.366 26.5608V10.0529H26.2129V7.3545H29.366V4.70899C29.366 3.12169 29.7401 1.95767 30.4349 1.16402C31.1831 0.37037 32.2519 0 33.6949 0C33.9087 0 34.2293 0 34.55 0.0529101C34.9241 0.10582 35.4051 0.15873 36.0998 0.26455V3.12169C35.7257 3.06878 35.4585 3.01587 35.2448 2.96296C35.031 2.91005 34.8172 2.91005 34.6569 2.91005C33.9087 2.91005 33.3742 3.12169 33.0536 3.54497C32.7329 3.96825 32.626 4.7619 32.626 5.92593V7.3545H39.1995H39.253C40.1081 7.3545 41.2304 7.30159 42.2992 7.30159C44.8645 7.30159 46.735 7.40741 47.9642 8.35979C49.1934 9.31217 49.7812 10.7937 49.7812 12.8042V22.328C49.7812 23.1217 49.8881 23.6508 50.0485 23.9153C50.2088 24.127 50.5294 24.2857 51.0104 24.2857C51.0639 24.2857 52.4534 24.2857 52.774 24.2857V0.42328H55.9272V10.2116C56.6754 9.15344 57.5839 8.30688 58.5993 7.77778C59.6147 7.24868 60.8439 6.93122 62.1266 6.93122C64.6918 6.93122 66.7227 7.83069 68.2725 9.68254C69.8223 11.5344 70.5706 14.0212 70.5706 17.0899C70.5706 20.1587 69.8223 22.5926 68.2725 24.3915C66.7227 26.1905 64.6918 27.1429 62.1266 27.1429C60.7905 27.1429 59.6147 26.8783 58.5993 26.4021C57.5839 25.9259 56.6754 25.1852 55.8737 24.127V26.7725H53.3619C52.0258 26.8254 50.5294 26.8783 49.9416 26.8783C48.8727 26.8783 48.0711 26.6667 47.5366 26.1905C47.0022 25.7143 46.735 25.0265 46.735 24.0741V23.9683C45.7196 25.0265 44.6507 25.7672 43.5284 26.2963C42.4061 26.8254 41.1769 27.0899 39.9477 27.0899C37.9703 27.0899 36.4739 26.5608 35.3516 25.5556C34.2293 24.5503 33.6949 23.1217 33.6949 21.3757C33.6949 19.6296 34.2293 18.3069 35.2982 17.3016C36.3671 16.2963 38.0238 15.6614 40.2149 15.3968C40.8028 15.3439 41.551 15.2381 42.513 15.1323C44.1697 14.9735 45.1851 14.8148 45.5058 14.6561C45.8799 14.4974 46.1471 14.3386 46.254 14.0741C46.3609 13.8624 46.4143 13.3333 46.4143 12.5926C46.4143 11.6402 46.0402 10.8995 45.3455 10.4233C44.6507 9.94709 43.6353 9.94709 42.1923 9.94709C41.2838 9.94709 40.6425 9.94709 39.3599 10L32.626 10.0529V26.5608H29.366Z" fill="#494747"/>
<path fill-rule="evenodd" clip-rule="evenodd" d="M84.145 2.16943C85.0535 2.16943 85.8017 2.91017 85.8017 3.80964C85.8017 4.70912 85.0535 5.44986 84.145 5.44986C83.2365 5.44986 82.4883 4.70912 82.4883 3.80964C82.4883 2.91017 83.2365 2.16943 84.145 2.16943Z" fill="#99C21C"/>
<path fill-rule="evenodd" clip-rule="evenodd" d="M2.10986 39.8942V35.873H4.67513V36.1905H2.48396V37.672H4.46135V37.9894H2.48396V39.8942H2.10986Z" fill="black"/>
<path d="M11.6763 35.873H11.3022V39.8942H11.6763V35.873Z" fill="black"/>
<path fill-rule="evenodd" clip-rule="evenodd" d="M19.4789 39.8942V36.1905H18.1963V35.873H21.1357V36.1905H19.853V39.8942H19.4789Z" fill="black"/>
<path fill-rule="evenodd" clip-rule="evenodd" d="M27.6021 39.8942V35.873H28.0296L30.3276 39.3122V35.873H30.6483V39.8942H30.2742L27.9761 36.4551V39.8942H27.6021Z" fill="black"/>
<path fill-rule="evenodd" clip-rule="evenodd" d="M37.543 39.8942V35.873H40.2151V36.1905H37.9171V37.672H40.0548V37.9894H37.9171V39.5768H40.2686V39.8942H37.543Z" fill="black"/>
<path fill-rule="evenodd" clip-rule="evenodd" d="M46.7886 38.6773H47.1627C47.1627 38.9948 47.2696 39.2593 47.4833 39.4181C47.6971 39.5768 47.9643 39.6826 48.3384 39.6826C48.6591 39.6826 48.9263 39.6297 49.0866 39.471C49.2469 39.3122 49.3538 39.1535 49.3538 38.889C49.3538 38.6773 49.3004 38.4657 49.1401 38.3599C49.0332 38.254 48.766 38.1482 48.3919 38.0424L47.9643 37.9366C47.5368 37.8308 47.2696 37.672 47.1092 37.5133C46.9489 37.3546 46.8955 37.1429 46.8955 36.8255C46.8955 36.508 47.0023 36.2435 47.2696 36.0318C47.5368 35.8202 47.8574 35.7144 48.2315 35.7144C48.6591 35.7144 48.9797 35.8202 49.2469 36.0318C49.5142 36.2435 49.621 36.5609 49.621 36.9313H49.2469C49.2469 36.6667 49.1401 36.4022 48.9797 36.2435C48.8194 36.0847 48.5522 36.0318 48.2315 36.0318C47.9109 36.0318 47.6971 36.0847 47.5368 36.2435C47.3764 36.4022 47.2696 36.5609 47.2696 36.8255C47.2696 37.0371 47.323 37.1429 47.4299 37.2487C47.5368 37.3546 47.6971 37.4604 47.9643 37.5133L48.4453 37.6191C48.9263 37.7249 49.2469 37.8837 49.4607 38.0424C49.6745 38.2011 49.7279 38.4657 49.7279 38.7831C49.7279 39.1535 49.621 39.4181 49.3538 39.6297C49.0866 39.8413 48.766 39.9472 48.3384 39.9472C47.8574 39.9472 47.4833 39.8413 47.2161 39.6297C46.8955 39.471 46.7886 39.1535 46.7886 38.6773Z" fill="black"/>
<path fill-rule="evenodd" clip-rule="evenodd" d="M56.2476 38.6773H56.6217C56.6217 38.9948 56.7285 39.2593 56.9423 39.4181C57.1561 39.5768 57.4233 39.6826 57.7974 39.6826C58.1181 39.6826 58.3853 39.6297 58.5456 39.471C58.7059 39.3122 58.8128 39.1535 58.8128 38.889C58.8128 38.6773 58.7594 38.4657 58.599 38.3599C58.4922 38.254 58.2249 38.1482 57.8508 38.0424L57.4767 37.9366C57.0492 37.8308 56.782 37.672 56.6217 37.5133C56.4613 37.3546 56.4079 37.1429 56.4079 36.8255C56.4079 36.508 56.5148 36.2435 56.782 36.0318C57.0492 35.8202 57.3699 35.7144 57.744 35.7144C58.1715 35.7144 58.4922 35.8202 58.7594 36.0318C59.0266 36.2435 59.1335 36.5609 59.1335 36.9313H58.7594C58.7594 36.6667 58.6525 36.4022 58.4922 36.2435C58.3318 36.0847 58.0646 36.0318 57.744 36.0318C57.4233 36.0318 57.2095 36.0847 57.0492 36.2435C56.8889 36.4022 56.782 36.5609 56.782 36.8255C56.782 37.0371 56.8354 37.1429 56.9423 37.2487C57.0492 37.3546 57.2095 37.4604 57.4767 37.5133L57.9577 37.6191C58.4387 37.7249 58.7594 37.8837 58.9731 38.0424C59.1869 38.2011 59.2404 38.4657 59.2404 38.7831C59.2404 39.1535 59.1335 39.4181 58.8663 39.6297C58.599 39.8413 58.2784 39.9472 57.8508 39.9472C57.3699 39.9472 56.9958 39.8413 56.7285 39.6297C56.4079 39.471 56.2476 39.1535 56.2476 38.6773Z" fill="black"/>
<path fill-rule="evenodd" clip-rule="evenodd" d="M71.7464 38.5715H72.1205C72.0671 38.9948 71.9068 39.3651 71.6396 39.6297C71.3723 39.8942 70.9448 40.0001 70.4638 40.0001C69.9294 40.0001 69.5018 39.7884 69.1812 39.4181C68.8605 39.0477 68.7002 38.5186 68.7002 37.8308C68.7002 37.1958 68.8605 36.6667 69.1812 36.2964C69.5018 35.926 69.9294 35.7144 70.4638 35.7144C70.9448 35.7144 71.3189 35.8202 71.5861 36.0847C71.8533 36.2964 72.0137 36.6138 72.0671 37.0371H71.693C71.6395 36.7196 71.5327 36.508 71.3189 36.3493C71.1051 36.1905 70.8379 36.0847 70.4638 36.0847C70.0363 36.0847 69.6622 36.2435 69.4484 36.5609C69.1812 36.8784 69.0743 37.3017 69.0743 37.8837C69.0743 38.4657 69.1812 38.889 69.4484 39.2064C69.7156 39.5239 70.0363 39.6826 70.4638 39.6826C70.8379 39.6826 71.1051 39.5768 71.3189 39.3651C71.5861 39.2064 71.7464 38.9419 71.7464 38.5715Z" fill="black"/>
<path fill-rule="evenodd" clip-rule="evenodd" d="M78.8008 39.8942V35.873H79.1749V39.5768H81.2591V39.8942H78.8008Z" fill="black"/>
<path fill-rule="evenodd" clip-rule="evenodd" d="M87.6187 35.873H87.9928V38.4127C87.9928 38.836 88.0996 39.2064 88.26 39.3651C88.4203 39.5768 88.741 39.6826 89.1685 39.6826C89.596 39.6826 89.8633 39.5768 90.077 39.3651C90.2908 39.1535 90.3442 38.836 90.3442 38.4127V35.873H90.7183V38.4656C90.7183 38.9947 90.6115 39.3651 90.3442 39.6297C90.077 39.8942 89.7029 40 89.1685 40C88.6341 40 88.26 39.8942 87.9928 39.6297C87.7255 39.3651 87.6187 38.9947 87.6187 38.4656V35.873Z" fill="black"/>
<path fill-rule="evenodd" clip-rule="evenodd" d="M97.5591 39.8942V35.873H98.8952C99.1089 35.873 99.3227 35.873 99.4296 35.926C99.5899 35.926 99.6968 35.9789 99.8037 36.0318C99.964 36.1376 100.071 36.2434 100.178 36.4021C100.285 36.5609 100.285 36.7196 100.285 36.9312C100.285 37.1429 100.231 37.3016 100.124 37.4603C100.017 37.6191 99.8571 37.7249 99.6968 37.7778C99.964 37.8307 100.124 37.9365 100.285 38.1482C100.445 38.3598 100.498 38.5715 100.498 38.836C100.498 39.0476 100.445 39.2593 100.338 39.4709C100.231 39.6297 100.071 39.7884 99.8571 39.8413C99.7502 39.8942 99.6434 39.8942 99.483 39.8942C99.3227 39.8942 99.0555 39.8942 98.6814 39.8942H97.5591ZM98.8417 36.1905H97.9332V37.672H98.7883C99.2158 37.672 99.483 37.6191 99.6434 37.5133C99.8037 37.4074 99.9106 37.1958 99.9106 36.9312C99.9106 36.6667 99.8571 36.4551 99.6968 36.3492C99.5365 36.2434 99.2693 36.1905 98.8417 36.1905ZM97.9332 39.5768H99.0555C99.483 39.5768 99.7502 39.5238 99.9106 39.418C100.071 39.3122 100.124 39.1006 100.124 38.836C100.124 38.5715 100.017 38.3598 99.8571 38.2011C99.6968 38.0424 99.4296 37.9894 99.0555 37.9894H97.9332V39.5768Z" fill="black"/>
</g>
<defs>
<clipPath id="clip0">
<rect width="104" height="40" fill="white" transform="translate(0.399902)"/>
</clipPath>
</defs>
</svg>
