<svg width="128" height="50" viewBox="0 0 128 50" fill="none" xmlns="http://www.w3.org/2000/svg">
<g clip-path="url(#clip0)">
<path d="M15.4081 2.71218C16.5228 2.71218 17.3751 3.6381 17.3751 4.6963C17.3751 5.82064 16.4572 6.68043 15.4081 6.68043C14.2935 6.68043 13.4412 5.75451 13.4412 4.6963C13.3756 3.6381 14.2935 2.71218 15.4081 2.71218ZM3.40946 33.1355V11.773H0V9.52435H3.40946V5.22541C3.40946 3.43969 3.86843 2.18308 4.72079 1.32329C5.57316 0.529638 7.01563 0.132812 8.91706 0.132812C9.11376 0.132812 9.31046 0.132812 9.57272 0.132812C9.76942 0.132812 10.0317 0.19895 10.294 0.265088V2.71218C10.2284 2.71218 10.1628 2.71218 10.0317 2.71218C9.50716 2.64604 9.11376 2.64604 8.85149 2.64604C7.86799 2.64604 7.14676 2.84445 6.68779 3.30742C6.29439 3.70424 6.09769 4.43175 6.09769 5.48996V9.52435H13.769H16.4572H19.8667H20.5223H23.0794V2.77831H25.7677V9.52435H30.0951V11.773H25.7677V28.9688C25.7677 29.9609 25.8988 30.6222 26.1611 30.9529C26.4233 31.2836 26.8823 31.4159 27.4724 31.4159C27.7347 31.4159 28.0625 31.4159 28.3903 31.3497C28.7182 31.2836 29.3083 31.2175 30.0295 31.0191V33.2016C29.3738 33.4 28.7837 33.5323 28.1936 33.5984C27.6691 33.6646 27.1446 33.7307 26.6856 33.7307C25.3087 33.7307 24.3908 33.4 23.8007 32.6725C23.2761 32.0111 22.9483 30.7545 22.9483 28.9688V11.773H20.3912H19.7355H16.3261V33.1355H13.769V11.773H6.09769V33.1355H3.40946Z" fill="#99C21C"/>
<path d="M123.659 17.328C123.528 15.6746 122.937 14.418 121.888 13.5582C120.839 12.6984 119.397 12.2355 117.561 12.2355C115.397 12.2355 113.758 13.0291 112.578 14.5503C111.398 16.0714 110.808 18.3201 110.808 21.2302C110.808 24.1402 111.398 26.3889 112.512 27.9101C113.627 29.4974 115.201 30.291 117.299 30.291C119.135 30.291 120.643 29.828 121.757 28.836C122.872 27.8439 123.528 26.455 123.79 24.6693H127.593C127.396 27.5794 126.347 29.828 124.511 31.4815C122.675 33.1349 120.184 33.9286 117.102 33.9286C113.889 33.9286 111.332 32.8042 109.496 30.5556C107.66 28.3069 106.742 25.2646 106.742 21.3624C106.742 17.3942 107.726 14.2857 109.627 11.9709C111.529 9.72222 114.217 8.59788 117.561 8.59788C120.511 8.59788 122.872 9.39153 124.708 10.9127C126.478 12.5 127.462 14.6164 127.527 17.2619H123.659V17.328ZM88.3182 33.2011V9.39153H92.1211V13.6905C92.7768 12.1032 93.6291 10.9127 94.6782 10.119C95.7928 9.3254 97.0386 9.25926 98.6122 9.25926C98.8745 9.25926 99.1367 9.25926 99.2679 9.25926C99.399 9.25926 104.448 9.25926 104.579 9.3254V9.39153V11.7725V13.1614V33.2011H100.645V13.1614C99.9235 13.1614 99.399 13.1614 99.399 13.1614C99.2679 13.1614 99.0712 13.1614 98.8089 13.1614C96.7108 13.1614 95.0716 13.7566 93.957 14.881C92.8424 16.0714 92.3178 17.7249 92.3178 19.9735V33.2011H88.3182ZM67.9926 21.164C67.9926 24.1402 68.5827 26.3889 69.8285 27.9762C71.0087 29.5635 72.779 30.3571 75.0082 30.3571C77.1719 30.3571 78.8767 29.5635 80.1224 28.0423C81.3682 26.5212 82.0239 24.3386 82.0239 21.627C82.0239 18.6508 81.4338 16.2698 80.188 14.6825C79.0078 13.0291 77.2375 12.2355 75.0082 12.2355C72.6478 12.2355 70.9431 12.963 69.7629 14.4841C68.5827 15.9392 67.9926 18.1878 67.9926 21.164ZM56.5184 21.0979C55.4694 21.6931 53.6335 22.1561 51.0764 22.4868C50.1585 22.619 49.5028 22.6852 49.0439 22.7513C47.6014 23.0159 46.5523 23.4127 45.9622 24.0079C45.3066 24.6032 45.0443 25.5291 45.0443 26.7196C45.0443 27.9101 45.4377 28.836 46.1589 29.4312C46.8802 30.0926 47.9292 30.3571 49.3061 30.3571C51.4698 30.3571 53.1745 29.828 54.5514 28.7037C55.9283 27.6455 56.584 26.2566 56.584 24.537V21.0979H56.5184ZM35.5371 33.2011V12.5661H31.6687V9.19312H35.5371V5.88624C35.5371 3.90212 35.9961 2.44709 36.8485 1.45503C37.7664 0.462963 39.0777 0 40.848 0C41.1103 0 41.5037 0 41.8971 0.0661376C42.3561 0.132275 42.9462 0.198413 43.7985 0.330688V3.90212C43.3396 3.83598 43.0117 3.76984 42.7495 3.7037C42.4872 3.63757 42.2249 3.63757 42.0282 3.63757C41.1103 3.63757 40.4546 3.90212 40.0612 4.43122C39.6678 4.96032 39.5367 5.95238 39.5367 7.40741V9.19312H47.6014H47.667C48.716 9.19312 50.0929 9.12698 51.4043 9.12698C54.5515 9.12698 56.8463 9.25926 58.3543 10.4497C59.8623 11.6402 60.5836 13.4921 60.5836 16.0053V27.9101C60.5836 28.9021 60.7147 29.5635 60.9114 29.8942C61.1081 30.1587 61.5015 30.3571 62.0916 30.3571C62.1572 30.3571 63.8619 30.3571 64.2553 30.3571V0.529101H68.1237V12.7646C69.0417 11.4418 70.1563 10.3836 71.4021 9.72222C72.6478 9.06085 74.1559 8.66402 75.7295 8.66402C78.8767 8.66402 81.3682 9.78836 83.2696 12.1032C85.1711 14.418 86.089 17.5265 86.089 21.3624C86.089 25.1984 85.1711 28.2407 83.2696 30.4894C81.3682 32.7381 78.8767 33.9286 75.7295 33.9286C74.0903 33.9286 72.6478 33.5979 71.4021 33.0026C70.1563 32.4074 69.0417 31.4815 68.0582 30.1587V33.4656H64.9765C63.3374 33.5317 61.5015 33.5979 60.7803 33.5979C59.4689 33.5979 58.4854 33.3333 57.8298 32.7381C57.1741 32.1429 56.8463 31.2831 56.8463 30.0926V29.9603C55.6005 31.2831 54.2892 32.209 52.9123 32.8704C51.5354 33.5317 50.0274 33.8624 48.5193 33.8624C46.0934 33.8624 44.2575 33.2011 42.8806 31.9444C41.5037 30.6878 40.848 28.9021 40.848 26.7196C40.848 24.537 41.5037 22.8836 42.815 21.627C44.1264 20.3704 46.1589 19.5767 48.8472 19.246C49.5684 19.1799 50.4863 19.0476 51.6665 18.9153C53.6991 18.7169 54.9448 18.5185 55.3382 18.3201C55.7972 18.1217 56.125 17.9233 56.2562 17.5926C56.3873 17.328 56.4529 16.6667 56.4529 15.7407C56.4529 14.5503 55.9939 13.6243 55.1415 13.0291C54.2892 12.4339 53.0434 12.4339 51.2731 12.4339C50.1585 12.4339 49.3717 12.4339 47.7981 12.5L39.5367 12.5661V33.2011H35.5371Z" fill="white"/>
<path fill-rule="evenodd" clip-rule="evenodd" d="M102.743 2.71094C103.857 2.71094 104.775 3.63686 104.775 4.7612C104.775 5.88554 103.857 6.81147 102.743 6.81147C101.628 6.81147 100.71 5.88554 100.71 4.7612C100.71 3.63686 101.628 2.71094 102.743 2.71094Z" fill="#99C21C"/>
<path fill-rule="evenodd" clip-rule="evenodd" d="M2.0979 49.8683V44.8418H5.2451V45.2386H2.55687V47.0905H4.98283V47.4873H2.55687V49.8683H2.0979Z" fill="white"/>
<path d="M13.8347 44.8418H13.3757V49.8683H13.8347V44.8418Z" fill="white"/>
<path fill-rule="evenodd" clip-rule="evenodd" d="M23.4071 49.8683V45.2386H21.8335V44.8418H25.4397V45.2386H23.8661V49.8683H23.4071Z" fill="white"/>
<path fill-rule="evenodd" clip-rule="evenodd" d="M33.3733 49.8683V44.8418H33.8978L36.7172 49.1407V44.8418H37.1106V49.8683H36.6516L33.8323 45.5693V49.8683H33.3733Z" fill="white"/>
<path fill-rule="evenodd" clip-rule="evenodd" d="M45.5688 49.8683V44.8418H48.8472V45.2386H46.0278V47.0905H48.6505V47.4873H46.0278V49.4714H48.9127V49.8683H45.5688Z" fill="white"/>
<path fill-rule="evenodd" clip-rule="evenodd" d="M56.9119 48.3463H57.3708C57.3708 48.7431 57.502 49.0738 57.7642 49.2722C58.0265 49.4706 58.3543 49.6029 58.8133 49.6029C59.2067 49.6029 59.5345 49.5368 59.7312 49.3383C59.9279 49.1399 60.0591 48.9415 60.0591 48.6108C60.0591 48.3463 59.9935 48.0817 59.7968 47.9495C59.6657 47.8172 59.3378 47.6849 58.8789 47.5526L58.3543 47.4204C57.8298 47.2881 57.502 47.0897 57.3053 46.8913C57.1086 46.6928 57.043 46.4283 57.043 46.0315C57.043 45.6346 57.1741 45.304 57.502 45.0394C57.8298 44.7749 58.2232 44.6426 58.6822 44.6426C59.2067 44.6426 59.6001 44.7749 59.9279 45.0394C60.2558 45.304 60.3869 45.7008 60.3869 46.1637H59.9279C59.9279 45.8331 59.7968 45.5024 59.6001 45.304C59.4034 45.1055 59.0756 45.0394 58.6822 45.0394C58.2888 45.0394 58.0265 45.1055 57.8298 45.304C57.6331 45.5024 57.502 45.7008 57.502 46.0315C57.502 46.296 57.5675 46.4283 57.6987 46.5606C57.8298 46.6928 58.0265 46.8251 58.3543 46.8913L58.9444 47.0235C59.5345 47.1558 59.9279 47.3542 60.1902 47.5526C60.4525 47.751 60.518 48.0817 60.518 48.4786C60.518 48.9415 60.3869 49.2722 60.0591 49.5368C59.7312 49.8013 59.3378 49.9336 58.8133 49.9336C58.2232 49.9336 57.7642 49.8013 57.4364 49.5368C57.043 49.3383 56.9119 48.9415 56.9119 48.3463Z" fill="white"/>
<path fill-rule="evenodd" clip-rule="evenodd" d="M68.5171 48.3463H68.9761C68.9761 48.7431 69.1072 49.0738 69.3695 49.2722C69.6317 49.4706 69.9596 49.6029 70.4185 49.6029C70.8119 49.6029 71.1398 49.5368 71.3365 49.3383C71.5332 49.1399 71.6643 48.9415 71.6643 48.6108C71.6643 48.3463 71.5987 48.0817 71.402 47.9495C71.2709 47.8172 70.9431 47.6849 70.4841 47.5526L70.0251 47.4204C69.5006 47.2881 69.1728 47.0897 68.9761 46.8913C68.7794 46.6928 68.7138 46.4283 68.7138 46.0315C68.7138 45.6346 68.8449 45.304 69.1728 45.0394C69.5006 44.7749 69.894 44.6426 70.353 44.6426C70.8775 44.6426 71.2709 44.7749 71.5987 45.0394C71.9265 45.304 72.0577 45.7008 72.0577 46.1637H71.5987C71.5987 45.8331 71.4676 45.5024 71.2709 45.304C71.0742 45.1055 70.7464 45.0394 70.353 45.0394C69.9596 45.0394 69.6973 45.1055 69.5006 45.304C69.3039 45.5024 69.1728 45.7008 69.1728 46.0315C69.1728 46.296 69.2383 46.4283 69.3695 46.5606C69.5006 46.6928 69.6973 46.8251 70.0251 46.8913L70.6152 47.0235C71.2053 47.1558 71.5987 47.3542 71.861 47.5526C72.1232 47.751 72.1888 48.0817 72.1888 48.4786C72.1888 48.9415 72.0577 49.2722 71.7298 49.5368C71.402 49.8013 71.0086 49.9336 70.4841 49.9336C69.894 49.9336 69.435 49.8013 69.1072 49.5368C68.7138 49.3383 68.5171 48.9415 68.5171 48.3463Z" fill="white"/>
<path fill-rule="evenodd" clip-rule="evenodd" d="M87.5315 48.214H87.9904C87.9249 48.7431 87.7282 49.2061 87.4004 49.5368C87.0725 49.8674 86.548 49.9997 85.9579 49.9997C85.3022 49.9997 84.7777 49.7352 84.3843 49.2722C83.9909 48.8092 83.7942 48.1479 83.7942 47.2881C83.7942 46.4944 83.9909 45.8331 84.3843 45.3701C84.7777 44.9071 85.3022 44.6426 85.9579 44.6426C86.548 44.6426 87.0069 44.7749 87.3348 45.1055C87.6626 45.3701 87.8593 45.7669 87.9249 46.296H87.4659C87.4003 45.8992 87.2692 45.6346 87.0069 45.4362C86.7447 45.2378 86.4169 45.1055 85.9579 45.1055C85.4334 45.1055 84.9744 45.304 84.7121 45.7008C84.3843 46.0976 84.2532 46.6267 84.2532 47.3542C84.2532 48.0817 84.3843 48.6108 84.7121 49.0077C85.04 49.4045 85.4334 49.6029 85.9579 49.6029C86.4169 49.6029 86.7447 49.4706 87.0069 49.2061C87.3348 49.0077 87.5315 48.677 87.5315 48.214Z" fill="white"/>
<path fill-rule="evenodd" clip-rule="evenodd" d="M96.186 49.8683V44.8418H96.645V49.4714H99.2021V49.8683H96.186Z" fill="white"/>
<path fill-rule="evenodd" clip-rule="evenodd" d="M107.005 44.8418H107.464V48.0164C107.464 48.5455 107.595 49.0085 107.791 49.2069C107.988 49.4714 108.382 49.6037 108.906 49.6037C109.431 49.6037 109.758 49.4714 110.021 49.2069C110.283 48.9423 110.349 48.5455 110.349 48.0164V44.8418H110.808V48.0825C110.808 48.7439 110.676 49.2069 110.349 49.5376C110.021 49.8682 109.562 50.0005 108.906 50.0005C108.25 50.0005 107.791 49.8682 107.464 49.5376C107.136 49.2069 107.005 48.7439 107.005 48.0825V44.8418Z" fill="white"/>
<path fill-rule="evenodd" clip-rule="evenodd" d="M119.2 49.8683V44.8418H120.839C121.101 44.8418 121.364 44.8418 121.495 44.9079C121.691 44.9079 121.823 44.9741 121.954 45.0402C122.15 45.1725 122.282 45.3048 122.413 45.5032C122.544 45.7016 122.544 45.9 122.544 46.1645C122.544 46.4291 122.478 46.6275 122.347 46.8259C122.216 47.0243 122.019 47.1566 121.823 47.2227C122.15 47.2889 122.347 47.4212 122.544 47.6857C122.741 47.9503 122.806 48.2148 122.806 48.5455C122.806 48.8101 122.741 49.0746 122.609 49.3391C122.478 49.5376 122.282 49.736 122.019 49.8021C121.888 49.8683 121.757 49.8683 121.56 49.8683C121.364 49.8683 121.036 49.8683 120.577 49.8683H119.2ZM120.774 45.2386H119.659V47.0905H120.708C121.233 47.0905 121.56 47.0243 121.757 46.8921C121.954 46.7598 122.085 46.4952 122.085 46.1645C122.085 45.8339 122.019 45.5693 121.823 45.437C121.626 45.3048 121.298 45.2386 120.774 45.2386ZM119.659 49.4714H121.036C121.56 49.4714 121.888 49.4053 122.085 49.273C122.282 49.1407 122.347 48.8762 122.347 48.5455C122.347 48.2148 122.216 47.9503 122.019 47.7518C121.823 47.5534 121.495 47.4873 121.036 47.4873H119.659V49.4714Z" fill="white"/>
</g>
<defs>
<clipPath id="clip0">
<rect width="127.593" height="50" fill="white"/>
</clipPath>
</defs>
</svg>
