<svg width="46" height="44" viewBox="0 0 46 44" fill="none" xmlns="http://www.w3.org/2000/svg">
<path fill-rule="evenodd" clip-rule="evenodd" d="M24.0002 1C24.0002 0.447715 23.5525 0 23.0002 0C22.4479 0 22.0002 0.447715 22.0002 1V13.2006L17.9227 16.8371V11.7842C17.9227 8.58967 15.3331 6 12.1386 6C9.63025 6 7.40779 7.61665 6.63541 10.0031L2.87391 21.625L0.904408 32.4453C-0.190634 38.4613 4.43089 44 10.5458 44C14.7825 44 18.5394 41.2775 19.8585 37.2514L20.0607 36.6343C20.7011 34.6797 20.7643 32.5819 20.2428 30.5923L18.3205 23.2581C18.0564 22.2507 17.9227 21.2135 17.9227 20.172V19.517L23.0002 14.9886L28.0773 19.5169V20.172C28.0773 21.2135 27.9436 22.2507 27.6795 23.2581L25.7572 30.5923C25.2357 32.5819 25.2989 34.6797 25.9393 36.6343L26.1415 37.2514C27.4606 41.2775 31.2175 44 35.4542 44C41.5691 44 46.1906 38.4613 45.0956 32.4453L43.1261 21.625L39.3646 10.0031C38.5922 7.61665 36.3698 6 33.8615 6C30.6669 6 28.0773 8.58967 28.0773 11.7842V16.837L24.0002 13.2006V1ZM12.1386 8C10.4975 8 9.04355 9.05766 8.53823 10.6189L4.81774 22.1141L2.87208 32.8034C2.00052 37.5917 5.67885 42 10.5458 42C13.9178 42 16.908 39.8331 17.9579 36.6287L18.1601 36.0116C18.6807 34.4225 18.7322 32.7169 18.3082 31.0994L16.3858 23.7652C16.0784 22.5922 15.9227 21.3846 15.9227 20.172V11.7842C15.9227 9.69424 14.2285 8 12.1386 8ZM33.8615 8C35.5025 8 36.9565 9.05766 37.4618 10.6189L41.1823 22.1141L43.1279 32.8034C43.9995 37.5917 40.3211 42 35.4542 42C32.0822 42 29.092 39.8331 28.0421 36.6287L27.8399 36.0116C27.3193 34.4225 27.2678 32.7169 27.6918 31.0994L29.6142 23.7652C29.9216 22.5922 30.0773 21.3846 30.0773 20.172V11.7842C30.0773 9.69424 31.7715 8 33.8615 8Z" fill="#6cce4099"/>
</svg>
