<svg width="44" height="44" viewBox="0 0 44 44" fill="none" xmlns="http://www.w3.org/2000/svg">
<path fill-rule="evenodd" clip-rule="evenodd" d="M22 2C19.2386 2 17 4.23858 17 7C17 9.76142 19.2386 12 22 12C24.7614 12 27 9.76142 27 7C27 4.23858 24.7614 2 22 2ZM15 7C15 3.13401 18.134 0 22 0C25.866 0 29 3.13401 29 7C29 10.866 25.866 14 22 14C18.134 14 15 10.866 15 7Z" fill="#6cce4099"/>
<path fill-rule="evenodd" clip-rule="evenodd" d="M8 17.9549C6.89543 17.9549 6 18.8301 6 19.9097C6 20.9894 6.89543 21.8646 8 21.8646H13C14.6569 21.8646 16 23.1775 16 24.7969V27.542C16 27.7983 15.9656 28.0535 15.8978 28.301L12.7424 39.8114C12.4631 40.8301 13.0795 41.7995 14.1377 42.0058C15.2456 42.2218 16.4022 41.5192 16.6946 40.4526L19.3884 30.6259C19.6988 29.4939 20.7484 28.7067 21.9474 28.7067C23.1465 28.7067 24.1961 29.4939 24.5064 30.626L27.2009 40.4549C27.4802 41.4736 28.5098 42.0119 29.5318 41.6734C30.6018 41.319 31.244 40.1453 30.9516 39.0786L26.8105 23.9726C26.6796 23.4949 26.778 23.0013 27.0157 22.6217C27.258 22.2347 27.7199 21.8646 28.3575 21.8646H36C37.1046 21.8646 38 20.9894 38 19.9097C38 18.8301 37.1046 17.9549 36 17.9549H8ZM4 19.9097C4 17.7505 5.79086 16 8 16H36C38.2091 16 40 17.7505 40 19.9097C40 22.069 38.2091 23.8195 36 23.8195H28.8391L32.8835 38.5727C33.4487 40.6346 32.2421 42.8398 30.1737 43.5249C28.0572 44.2259 25.8474 43.0706 25.269 40.9608L22.5746 31.1319C22.4985 30.8545 22.2413 30.6615 21.9474 30.6615C21.6536 30.6615 21.3964 30.8545 21.3203 31.1319L18.6265 40.9585C18.0612 43.0205 15.8882 44.3405 13.7464 43.9229C11.5549 43.4957 10.2322 41.4152 10.8105 39.3054L13.9659 27.795C13.9885 27.7125 14 27.6275 14 27.542V24.7969C14 24.2571 13.5523 23.8195 13 23.8195H8C5.79086 23.8195 4 22.069 4 19.9097Z" fill="#6cce4099"/>
</svg>
