<svg width="44" height="44" viewBox="0 0 44 44" fill="none" xmlns="http://www.w3.org/2000/svg">
<path fill-rule="evenodd" clip-rule="evenodd" d="M13.5709 2C12.4602 2 11.4881 2.60536 10.9683 3.51188C10.7919 3.81953 10.4657 4.01072 10.1111 4.01436C8.47134 4.03118 7.14258 5.37021 7.14258 7.02496C7.14258 7.21996 7.16092 7.40973 7.19569 7.5929C7.2442 7.84844 7.19123 8.11282 7.04803 8.32995C6.97919 8.43432 6.91116 8.53957 6.84394 8.64569C6.69425 8.88202 6.45241 9.04483 6.17713 9.09462C4.77835 9.3476 3.71387 10.5773 3.71387 12.0575C3.71387 12.4711 3.79641 12.8628 3.94489 13.2188C4.13904 13.6843 3.95609 14.2216 3.51818 14.4719C2.61007 14.991 2 15.9693 2 17.0905C2 17.9144 2.32834 18.6588 2.86244 19.203C3.06945 19.414 3.17254 19.7057 3.14405 19.9999C3.12903 20.155 3.11517 20.3105 3.10248 20.4664C3.08392 20.6943 2.9878 20.9089 2.83016 21.0746C2.31517 21.6157 2 22.3465 2 23.1537C2 23.9738 2.32539 24.7152 2.85524 25.2588C3.01422 25.4219 3.11276 25.6344 3.13455 25.8612C3.15311 26.0544 3.17358 26.2465 3.19592 26.4374C3.21679 26.6157 3.1893 26.7962 3.11634 26.9602C2.95028 27.3334 2.85742 27.7476 2.85742 28.1862C2.85742 29.0646 3.23089 29.8534 3.82932 30.4048C3.95974 30.525 4.05586 30.6777 4.10782 30.8472C4.12342 30.8981 4.13918 30.9489 4.15509 30.9995C4.23647 31.2585 4.20909 31.5394 4.07924 31.7777C3.84659 32.2048 3.71387 32.6949 3.71387 33.2193C3.71387 34.7305 4.82333 35.9802 6.26497 36.1967C6.52943 36.2364 6.76697 36.3804 6.92452 36.5965C6.96394 36.6505 7.00362 36.7043 7.04358 36.7577C7.21906 36.9925 7.28272 37.2924 7.21773 37.5782C7.16869 37.7938 7.14258 38.0192 7.14258 38.2518C7.14258 39.9172 8.48826 41.2626 10.1426 41.2626C10.5255 41.2626 10.8895 41.1911 11.2236 41.0615C11.4959 40.9558 11.8008 40.9746 12.0582 41.1127C12.2607 41.2214 12.4663 41.3257 12.675 41.4256C14.2591 42.1836 15.7745 41.8268 16.9562 40.7885C18.1683 39.7236 19 37.9468 19 36.0078V7.99328C19 5.07025 17.1442 2.71077 15.1272 2.37534C15.0345 2.35992 14.9445 2.33152 14.8597 2.29096C14.4704 2.1047 14.0342 2 13.5709 2ZM9.53631 2.05066C10.4447 0.809343 11.9125 0 13.5709 0C14.2891 0 14.9742 0.152374 15.5938 0.427326C18.7756 1.04227 21 4.44994 21 7.99328V36.0078C21 38.487 19.9462 40.8238 18.2763 42.291C16.5761 43.7848 14.2132 44.3788 11.8118 43.2297C11.7067 43.1794 11.6023 43.1281 11.4986 43.0759C11.0665 43.1976 10.6115 43.2626 10.1426 43.2626C7.37862 43.2626 5.14258 41.0167 5.14258 38.2518C5.14258 38.1606 5.14502 38.0699 5.14985 37.9798C3.15295 37.3212 1.71387 35.4381 1.71387 33.2193C1.71387 32.5889 1.83048 31.9841 2.04363 31.4267C1.30433 30.5534 0.857422 29.4214 0.857422 28.1862C0.857422 27.5629 0.971449 26.9643 1.18038 26.4115L1.17739 26.3837C0.443307 25.5118 0 24.3837 0 23.1537C0 22.0152 0.379881 20.9637 1.01868 20.1221C0.379901 19.2805 0 18.2292 0 17.0905C0 15.5215 0.720058 14.1211 1.84534 13.2029C1.75928 12.8345 1.71387 12.4509 1.71387 12.0575C1.71387 9.83849 3.15306 7.95558 5.14985 7.29704C5.14502 7.20689 5.14258 7.11617 5.14258 7.02496C5.14258 4.46542 7.05877 2.3507 9.53631 2.05066ZM28.4052 0.427523C29.0249 0.152447 29.7102 0 30.4286 0C32.0869 0 33.5547 0.8093 34.4631 2.05057C36.9409 2.35037 38.8574 4.4652 38.8574 7.02492C38.8574 7.11619 38.8549 7.20696 38.8501 7.29717C40.8469 7.9557 42.2861 9.83861 42.2861 12.0576C42.2861 12.4509 42.2407 12.8344 42.1547 13.2028C43.28 14.121 44 15.5214 44 17.0904C44 18.2291 43.62 19.2805 42.9812 20.1221C43.6201 20.9637 44 22.0152 44 23.1538C44 24.3838 43.5567 25.512 42.8226 26.3839L42.8196 26.4114C43.0285 26.9642 43.1426 27.5628 43.1426 28.1861C43.1426 29.4213 42.6956 30.5533 41.9563 31.4266C42.1695 31.984 42.2861 32.5888 42.2861 33.2193C42.2861 35.4381 40.847 37.3212 38.8501 37.9798C38.8549 38.07 38.8574 38.1607 38.8574 38.252C38.8574 41.0168 36.6213 43.2627 33.8573 43.2627C33.3884 43.2627 32.9333 43.1978 32.5012 43.076C32.3975 43.1282 32.2932 43.1795 32.1882 43.2297C29.7868 44.3788 27.4239 43.7848 25.7237 42.291C24.0538 40.8238 23 38.487 23 36.0078V7.99328C23 4.45029 25.2239 1.04301 28.4052 0.427523ZM30.4286 2C29.9652 2 29.5289 2.10475 29.1395 2.29107C29.0548 2.33162 28.9648 2.36002 28.8721 2.37545C26.8554 2.71127 25 5.07061 25 7.99328V36.0078C25 37.9468 25.8318 39.7236 27.0438 40.7885C28.2255 41.8268 29.7409 42.1836 31.325 41.4256C31.5336 41.3258 31.7392 41.2215 31.9416 41.1128C32.199 40.9747 32.5039 40.956 32.7762 41.0616C33.1103 41.1912 33.4743 41.2627 33.8573 41.2627C35.5117 41.2627 36.8574 39.9173 36.8574 38.252C36.8574 38.0193 36.8312 37.794 36.7822 37.5783C36.7172 37.2925 36.7809 36.9926 36.9564 36.7578C36.9964 36.7043 37.0361 36.6505 37.0755 36.5965C37.233 36.3804 37.4706 36.2364 37.735 36.1967C39.1767 35.9802 40.2861 34.7305 40.2861 33.2193C40.2861 32.6949 40.1534 32.2048 39.9208 31.7777C39.7909 31.5394 39.7635 31.2585 39.8449 30.9995C39.8608 30.9488 39.8766 30.898 39.8923 30.8469C39.9442 30.6774 40.0403 30.5247 40.1707 30.4045C40.7691 29.8532 41.1426 29.0644 41.1426 28.1861C41.1426 27.7474 41.0497 27.3332 40.8837 26.9601C40.8107 26.7961 40.7832 26.6155 40.8041 26.4373C40.8264 26.2465 40.8469 26.0545 40.8654 25.8613C40.8872 25.6346 40.9858 25.4221 41.1448 25.259C41.6746 24.7154 42 23.9739 42 23.1538C42 22.3467 41.6848 21.6159 41.1699 21.0748C41.0122 20.9091 40.9161 20.6944 40.8975 20.4665C40.8848 20.3105 40.871 20.1549 40.8559 19.9997C40.8274 19.7055 40.9305 19.4138 41.1376 19.2029C41.6717 18.6586 42 17.9142 42 17.0904C42 15.9691 41.39 14.9908 40.4819 14.4718C40.044 14.2215 39.8611 13.6843 40.0552 13.2187C40.2036 12.8628 40.2861 12.4712 40.2861 12.0576C40.2861 10.5775 39.2217 9.3478 37.8229 9.09477C37.5477 9.04498 37.3058 8.88216 37.1562 8.64585C37.0889 8.53965 37.0208 8.43432 36.9519 8.32989C36.8087 8.11275 36.7558 7.84837 36.8043 7.59284C36.839 7.40968 36.8574 7.21992 36.8574 7.02492C36.8574 5.37007 35.5284 4.03097 33.8885 4.01432C33.5339 4.01072 33.2076 3.81953 33.0312 3.51185C32.5113 2.60535 31.5392 2 30.4286 2ZM32 30C31.4477 30 31 30.4477 31 31C31 31.2626 30.9483 31.5227 30.8478 31.7654C30.7472 32.008 30.5999 32.2285 30.4142 32.4142C30.2285 32.5999 30.008 32.7472 29.7654 32.8478C29.5227 32.9483 29.2626 33 29 33C28.4477 33 28 33.4477 28 34C28 34.5523 28.4477 35 29 35C29.2245 35 29.4482 34.9811 29.6685 34.9437C29.7722 34.9802 29.8838 35 30 35C30.2626 35 30.5227 35.0517 30.7654 35.1522C31.008 35.2528 31.2285 35.4001 31.4142 35.5858C31.5999 35.7715 31.7472 35.992 31.8478 36.2346C31.9483 36.4773 32 36.7374 32 37C32 37.5523 32.4477 38 33 38C33.5523 38 34 37.5523 34 37C34 36.4747 33.8965 35.9546 33.6955 35.4693C33.4945 34.984 33.1999 34.543 32.8284 34.1716C32.598 33.9411 32.3407 33.7402 32.0627 33.5729C32.3252 33.2604 32.5388 32.909 32.6955 32.5307C32.8965 32.0454 33 31.5253 33 31C33 30.4477 32.5523 30 32 30ZM9 31C8.44771 31 8 31.4477 8 32C8 32.5523 8.44771 33 9 33C9.52529 33 10.0454 32.8965 10.5307 32.6955C10.909 32.5388 11.2604 32.3252 11.5729 32.0627C11.7402 32.3407 11.9411 32.598 12.1716 32.8284C12.543 33.1999 12.984 33.4945 13.4693 33.6955C13.9546 33.8965 14.4747 34 15 34C15.5523 34 16 33.5523 16 33C16 32.4477 15.5523 32 15 32C14.7374 32 14.4773 31.9483 14.2346 31.8478C13.992 31.7472 13.7715 31.5999 13.5858 31.4142C13.4001 31.2285 13.2528 31.008 13.1522 30.7654C13.0517 30.5227 13 30.2626 13 30C13 29.8838 12.9802 29.7722 12.9437 29.6685C12.9811 29.4482 13 29.2245 13 29C13 28.4477 12.5523 28 12 28C11.4477 28 11 28.4477 11 29C11 29.2626 10.9483 29.5227 10.8478 29.7654C10.7472 30.008 10.5999 30.2285 10.4142 30.4142C10.2285 30.5999 10.008 30.7472 9.76537 30.8478C9.52272 30.9483 9.26264 31 9 31ZM8 11C8 11.5523 8.44772 12 9 12C9.26264 12 9.52272 12.0517 9.76537 12.1522C10.008 12.2528 10.2285 12.4001 10.4142 12.5858C10.5999 12.7715 10.7472 12.992 10.8478 13.2346C10.9483 13.4773 11 13.7374 11 14C11 14.5523 11.4477 15 12 15C12.5523 15 13 14.5523 13 14C13 13.7755 12.9811 13.5518 12.9437 13.3315C12.9802 13.2278 13 13.1162 13 13C13 12.7374 13.0517 12.4773 13.1522 12.2346C13.2528 11.992 13.4001 11.7715 13.5858 11.5858C13.7715 11.4001 13.992 11.2528 14.2346 11.1522C14.4773 11.0517 14.7374 11 15 11C15.5523 11 16 10.5523 16 10C16 9.44771 15.5523 9 15 9C14.4747 9 13.9546 9.10346 13.4693 9.30448C12.984 9.5055 12.543 9.80014 12.1716 10.1716C11.9411 10.402 11.7402 10.6593 11.5729 10.9373C11.2604 10.6748 10.909 10.4612 10.5307 10.3045C10.0454 10.1035 9.52529 10 9 10C8.44771 10 8 10.4477 8 11ZM35 12C35.5523 12 36 12.4477 36 13C36 13.5523 35.5523 14 35 14C34.4747 14 33.9546 13.8965 33.4693 13.6955C33.091 13.5388 32.7396 13.3252 32.4271 13.0627C32.2598 13.3407 32.0589 13.598 31.8284 13.8284C31.457 14.1999 31.016 14.4945 30.5307 14.6955C30.0454 14.8965 29.5253 15 29 15C28.4477 15 28 14.5523 28 14C28 13.4477 28.4477 13 29 13C29.2626 13 29.5227 12.9483 29.7654 12.8478C30.008 12.7472 30.2285 12.5999 30.4142 12.4142C30.5999 12.2285 30.7472 12.008 30.8478 11.7654C30.9483 11.5227 31 11.2626 31 11C31 10.8838 31.0198 10.7722 31.0563 10.6685C31.0189 10.4482 31 10.2245 31 10C31 9.44772 31.4477 9 32 9C32.5523 9 33 9.44771 33 10C33 10.2626 33.0517 10.5227 33.1522 10.7654C33.2528 11.008 33.4001 11.2285 33.5858 11.4142C33.7715 11.5999 33.992 11.7472 34.2346 11.8478C34.4773 11.9483 34.7374 12 35 12ZM35 23C35 23.5523 34.5523 24 34 24C33.4477 24 33 23.5523 33 23C33 22.4747 33.1035 21.9546 33.3045 21.4693C33.5055 20.984 33.8001 20.543 34.1716 20.1716C34.543 19.8001 34.984 19.5055 35.4693 19.3045C35.9546 19.1035 36.4747 19 37 19C37.5523 19 38 19.4477 38 20C38 20.5523 37.5523 21 37 21C36.7374 21 36.4773 21.0517 36.2346 21.1522C35.992 21.2528 35.7715 21.4001 35.5858 21.5858C35.4001 21.7715 35.2528 21.992 35.1522 22.2346C35.0517 22.4773 35 22.7374 35 23ZM6 20C6 20.5523 6.44772 21 7 21C7.26264 21 7.52272 21.0517 7.76537 21.1522C8.00802 21.2528 8.2285 21.4001 8.41421 21.5858C8.59993 21.7715 8.74725 21.992 8.84776 22.2346C8.94827 22.4773 9 22.7374 9 23C9 23.5523 9.44772 24 10 24C10.5523 24 11 23.5523 11 23C11 22.4747 10.8965 21.9546 10.6955 21.4693C10.4945 20.984 10.1999 20.543 9.82843 20.1716C9.45699 19.8001 9.01604 19.5055 8.53073 19.3045C8.04543 19.1035 7.52529 19 7 19C6.44771 19 6 19.4477 6 20Z" fill="#6cce4099"/>
</svg>
