<svg width="44" height="44" viewBox="0 0 44 44" fill="none" xmlns="http://www.w3.org/2000/svg">
<path fill-rule="evenodd" clip-rule="evenodd" d="M22 2C19.2386 2 17 4.23858 17 7C17 9.76142 19.2386 12 22 12C24.7614 12 27 9.76142 27 7C27 4.23858 24.7614 2 22 2ZM15 7C15 3.13401 18.134 0 22 0C25.866 0 29 3.13401 29 7C29 10.866 25.866 14 22 14C18.134 14 15 10.866 15 7ZM14.8648 18C10.528 18 7.792 21.0032 8.0138 23.8055L9.3238 40.3572C9.37518 41.0064 10.1656 42 11.7524 42H12.0996L13.0001 33.4238V23C13.0001 22.4477 13.4478 22 14.0001 22C14.5524 22 15.0001 22.4477 15.0001 23V33.5285L14.1106 42H30.8894L29.9999 33.5285V23C29.9999 22.4477 30.4476 22 30.9999 22C31.5522 22 31.9999 22.4477 31.9999 23V33.4238L32.8932 41.9315C34.0186 41.6966 34.5875 40.9072 34.6323 40.3602L35.9853 23.8168C36.2147 21.0116 33.4791 18 29.1352 18H14.8648ZM13.0141 44H31.9859C31.9944 44.0001 32.003 44.0001 32.0115 44H32.2039C34.5335 44 36.4655 42.4809 36.6256 40.5232L37.9786 23.9798C38.3316 19.6643 34.2707 16 29.1352 16H14.8648C9.73706 16 5.67894 19.6537 6.02003 23.9633L7.33004 40.515C7.48525 42.4761 9.41902 44 11.7524 44H12.9885C12.9934 44.0001 12.9983 44.0001 13.0032 44.0001C13.0068 44.0001 13.0105 44 13.0141 44ZM23 22C23 21.4477 22.5523 21 22 21C21.4477 21 21 21.4477 21 22V37C21 37.5523 21.4477 38 22 38C22.5523 38 23 37.5523 23 37V22Z" fill="#6cce4099"/>
</svg>
