<svg width="46" height="44" viewBox="0 0 46 44" fill="none" xmlns="http://www.w3.org/2000/svg">
<path fill-rule="evenodd" clip-rule="evenodd" d="M13.498 0C8.1348 0 4.14443 2.57068 2.08514 6.64992C0.0484761 10.6844 -0.0379472 16.0608 2.04255 21.6533C4.42558 28.0587 9.5811 33.616 14.0527 37.5327C16.3005 39.5015 18.4014 41.0781 19.9413 42.1631C20.7117 42.7059 21.3428 43.1266 21.7831 43.4126C22.0033 43.5556 22.1758 43.665 22.2943 43.7393C22.3535 43.7764 22.3993 43.8048 22.4307 43.8241L22.467 43.8464L22.477 43.8525L22.4798 43.8542L22.4807 43.8548C22.7994 44.048 23.2001 44.048 23.5187 43.8548L23.5225 43.8525L23.5324 43.8464L23.5687 43.8241C23.6002 43.8048 23.6459 43.7764 23.7052 43.7393C23.8236 43.665 23.9962 43.5556 24.2164 43.4126C24.6567 43.1266 25.2878 42.7059 26.0582 42.1631C27.598 41.0781 29.699 39.5015 31.9467 37.5327C36.4183 33.616 41.5739 28.0587 43.9569 21.6533C46.0184 16.112 45.9299 10.7374 43.9006 6.69231C41.8488 2.60254 37.8703 0 32.5014 0C27.9228 0 25.2483 1.6294 23.743 3.6064C23.4487 3.99299 23.2036 4.38685 22.9997 4.77594C22.7958 4.38686 22.5508 3.99302 22.2565 3.60644C20.7513 1.62942 18.0767 0 13.498 0ZM22.9997 43C22.4813 43.8551 22.4811 43.855 22.4807 43.8548L22.9997 43ZM23.5187 43.8548C23.5184 43.855 23.5182 43.8551 22.9997 43L23.5187 43.8548ZM23.1269 41.7354L22.9997 41.8177L22.8726 41.7354C22.4512 41.4617 21.8411 41.0551 21.0933 40.5282C19.5969 39.4738 17.5538 37.9406 15.3705 36.0282C10.98 32.1826 6.12557 26.8923 3.91704 20.9559C1.97805 15.7438 2.14573 10.9679 3.87054 7.55123C5.57275 4.17932 8.85124 2 13.498 2C17.5453 2 19.5912 3.40739 20.6652 4.81799C21.7801 6.2822 21.9747 7.9174 22.0007 8.51993C22.0237 9.05495 22.4642 9.47682 22.9997 9.47683C23.5352 9.47683 23.9757 9.05496 23.9988 8.51995C24.0248 7.91736 24.2194 6.28216 25.3343 4.81796C26.4083 3.40737 28.4543 2 32.5014 2C37.1426 2 40.4131 4.201 42.1129 7.58915C43.8135 10.9789 43.9963 15.6798 42.1538 20.7616C42.1036 20.7539 42.0523 20.7499 42 20.7499H35.507C34.8396 20.7499 34.2161 21.0828 33.8449 21.6375L32.0524 24.3158L30.4568 14.0977C30.1156 11.9124 27.0038 11.8158 26.5277 13.9757L25.0343 20.7499H16C15.4477 20.7499 15 21.1976 15 21.7499C15 22.3022 15.4477 22.7499 16 22.7499H25.0343C25.9729 22.7499 26.7853 22.0971 26.9874 21.1804L28.4808 14.4063L30.0764 24.6244C30.3574 26.4239 32.7016 26.9418 33.7146 25.4282L35.507 22.7499H41.328C38.8892 27.9556 34.572 32.5745 30.629 36.0282C28.4457 37.9406 26.4026 39.4738 24.9061 40.5282C24.1584 41.0551 23.5483 41.4617 23.1269 41.7354Z" fill="#6cce4099"/>
</svg>
