<?xml version="1.0" encoding="UTF-8"?>
<svg xmlns="http://www.w3.org/2000/svg" width="3.28in" height="2.93in" viewBox="0 0 236.5 211.07">
  <defs>
    <style>
      .cls-1 {
        fill: #f27900;
      }

      .cls-1, .cls-2, .cls-3, .cls-4, .cls-5, .cls-6 {
        stroke-width: 0px;
      }

      .cls-3 {
        fill: #ccc;
      }

      .cls-4 {
        fill: #ffc800;
      }

      .cls-5 {
        fill: #fff;
      }

      .cls-6 {
        fill: #b5b5b5;
      }
    </style>
  </defs>
  <g id="Layer_1" data-name="Layer 1">
    <g>
      <g>
        <g>
          <g>
            <path class="cls-2" d="m107.45,96.18s-.06,0-.12-.06l-39.29-39.29c-.06-.06-.08-.12-.05-.19.04-.1.14-.18.23-.18.02,0,.06,0,.12.06l39.29,39.29c.06.06.08.12.05.19-.04.1-.14.18-.23.18h0Z"/>
            <path class="cls-2" d="m61.38,50.12s-.06,0-.12-.06l-12.53-12.53c-.06-.06-.08-.12-.05-.19.04-.1.15-.18.23-.18.02,0,.06,0,.12.06l12.53,12.53c.06.06.08.12.05.19-.04.1-.14.18-.23.18h0Z"/>
          </g>
          <g>
            <path class="cls-2" d="m102.1,105.53s-.04,0-.07-.01l-53.67-14.38c-.05-.01-.16-.04-.14-.21,0-.06.05-.21.18-.21.02,0,.04,0,.07.01l53.67,14.38c.05.01.16.04.14.21,0,.06-.05.21-.18.21h0Z"/>
            <path class="cls-2" d="m39.18,88.67s-.04,0-.07-.01l-17.12-4.59c-.05-.01-.16-.04-.14-.21,0-.06.05-.21.18-.21.02,0,.04,0,.07.01l17.12,4.59c.05.01.16.04.14.21,0,.06-.05.21-.18.21h0Z"/>
          </g>
          <g>
            <path class="cls-2" d="m48.4,130.69c-.12,0-.17-.15-.17-.21-.02-.17.08-.2.14-.21l53.67-14.38s.05-.01.07-.01c.12,0,.17.15.18.21.02.17-.08.2-.14.21l-53.67,14.38s-.05.01-.07.01Z"/>
            <path class="cls-2" d="m22.03,137.76c-.12,0-.17-.15-.18-.21-.02-.17.08-.2.14-.21l17.12-4.59s.05-.01.07-.01c.12,0,.17.15.18.21.02.17-.08.2-.14.21l-17.12,4.59s-.05.01-.07.01Z"/>
          </g>
          <g>
            <path class="cls-2" d="m68.22,164.94c-.08,0-.19-.08-.23-.18-.03-.07-.02-.12.05-.19l39.29-39.29c.06-.06.11-.06.12-.06.08,0,.19.08.23.18.03.07.02.12-.05.19l-39.29,39.29c-.06.06-.11.06-.12.06Z"/>
            <path class="cls-2" d="m48.91,184.25c-.08,0-.19-.08-.23-.18-.03-.07-.02-.12.05-.19l12.53-12.53c.06-.06.11-.06.12-.06.08,0,.19.08.23.18.03.07.02.12-.05.19l-12.53,12.53c-.06.06-.11.06-.12.06h0Z"/>
          </g>
          <g>
            <path class="cls-2" d="m102.47,184.7c-.09,0-.18-.04-.22-.1-.01-.02-.04-.06-.02-.15l14.38-53.67c.02-.08.06-.14.17-.14.09,0,.18.04.22.1.01.02.04.05.02.15l-14.38,53.67c-.02.08-.06.14-.17.14Z"/>
            <path class="cls-2" d="m95.4,211.07c-.09,0-.18-.04-.22-.1-.01-.02-.04-.05-.02-.15l4.59-17.12c.02-.08.06-.14.17-.14.09,0,.18.04.22.1.01.02.04.05.02.15l-4.59,17.12c-.02.08-.06.14-.17.14Z"/>
          </g>
          <g>
            <path class="cls-2" d="m141.95,184.7c-.11,0-.15-.06-.17-.14l-14.38-53.67c-.03-.1,0-.14.02-.15.04-.06.14-.1.22-.1.11,0,.15.06.17.14l14.38,53.67c.03.1,0,.14-.02.15-.04.06-.14.1-.22.1Z"/>
            <path class="cls-2" d="m149.02,211.07c-.11,0-.15-.06-.17-.14l-4.59-17.12c-.03-.1,0-.14.02-.15.04-.06.14-.1.22-.1.11,0,.15.06.17.14l4.59,17.12c.03.1,0,.14-.02.15-.04.06-.14.1-.22.1h0Z"/>
          </g>
          <g>
            <path class="cls-2" d="m176.21,164.94s-.06,0-.12-.06l-39.29-39.29c-.06-.06-.08-.12-.05-.19.04-.1.14-.18.23-.18.02,0,.06,0,.12.06l39.29,39.29c.06.06.08.12.05.19-.04.1-.14.18-.23.18h0Z"/>
            <path class="cls-2" d="m195.51,184.25s-.06,0-.12-.06l-12.53-12.53c-.06-.06-.08-.12-.05-.19.04-.1.15-.18.23-.18.02,0,.06,0,.12.06l12.53,12.53c.06.06.08.12.05.19-.04.1-.14.18-.23.18h0Z"/>
          </g>
          <g>
            <path class="cls-2" d="m196.03,130.69s-.04,0-.07-.01l-53.67-14.38c-.05-.01-.16-.04-.14-.21,0-.06.05-.21.18-.21.02,0,.04,0,.07.01l53.67,14.38c.05.01.16.04.14.21,0,.06-.05.21-.18.21h0Z"/>
            <path class="cls-2" d="m222.4,137.76s-.04,0-.07-.01l-17.12-4.59c-.05-.01-.16-.04-.14-.21,0-.06.05-.21.18-.21.02,0,.04,0,.07.01l17.12,4.59c.05.01.16.04.14.21,0,.06-.05.21-.18.21h0Z"/>
          </g>
          <g>
            <path class="cls-2" d="m142.32,105.53c-.12,0-.17-.15-.18-.21-.02-.17.08-.2.14-.21l53.67-14.38s.05-.01.07-.01c.12,0,.17.15.17.21.02.17-.08.2-.14.21l-53.67,14.38s-.05.01-.07.01Z"/>
            <path class="cls-2" d="m205.25,88.67c-.12,0-.17-.15-.18-.21-.02-.17.08-.2.14-.21l17.12-4.59s.05-.01.07-.01c.12,0,.17.15.18.21.02.17-.08.2-.14.21l-17.12,4.59s-.05.01-.07.01h0Z"/>
          </g>
          <g>
            <path class="cls-2" d="m136.98,96.18c-.08,0-.19-.08-.23-.18-.03-.07-.02-.12.05-.19l39.29-39.29c.06-.06.11-.06.12-.06.08,0,.19.08.23.18.03.07.02.12-.05.19l-39.29,39.29c-.06.06-.1.06-.12.06h0Z"/>
            <path class="cls-2" d="m183.04,50.12c-.08,0-.19-.08-.23-.18-.03-.07-.02-.12.05-.19l12.53-12.53c.06-.06.11-.06.12-.06.08,0,.19.08.23.18.03.07.02.12-.05.19l-12.53,12.53c-.06.06-.11.06-.12.06h0Z"/>
          </g>
          <g>
            <path class="cls-2" d="m127.64,90.77c-.09,0-.18-.04-.22-.1-.01-.02-.04-.05-.02-.15l14.38-53.67c.02-.08.06-.14.17-.14.09,0,.18.04.22.1.01.02.04.05.02.15l-14.38,53.67c-.02.08-.06.14-.17.14h0Z"/>
            <path class="cls-2" d="m144.5,27.85c-.09,0-.18-.04-.22-.1-.01-.02-.04-.05-.02-.15l4.59-17.12c.02-.08.06-.14.17-.14.09,0,.18.04.22.1.01.02.04.05.02.15l-4.59,17.12c-.02.08-.06.14-.17.14Z"/>
          </g>
          <g>
            <path class="cls-2" d="m116.79,90.77c-.11,0-.15-.06-.17-.14l-14.38-53.67c-.03-.1,0-.14.02-.15.04-.06.14-.1.22-.1.11,0,.15.06.17.14l14.38,53.67c.03.1,0,.14-.02.15-.04.06-.14.1-.22.1Z"/>
            <path class="cls-2" d="m99.93,27.85c-.11,0-.15-.06-.17-.14l-4.59-17.12c-.03-.1,0-.14.02-.15.04-.06.14-.1.22-.1.11,0,.15.06.17.14l4.59,17.12c.03.1,0,.14-.02.15-.04.06-.14.1-.22.1h0Z"/>
          </g>
        </g>
        <g>
          <g>
            <path class="cls-2" d="m86.05,110.92c-.13,0-.19-.07-.19-.21s.06-.21.19-.21h20.12c.13,0,.19.07.19.21s-.06.21-.19.21h-20.12Z"/>
            <path class="cls-2" d="m48.21,110.92c-.13,0-.19-.07-.19-.21s.06-.21.19-.21h30.18c.13,0,.19.07.19.21s-.06.21-.19.21h-30.18Z"/>
            <path class="cls-2" d="m34.79,110.92c-.13,0-.19-.07-.19-.21s.06-.21.19-.21h6.71c.13,0,.19.07.19.21s-.06.21-.19.21h-6.71Z"/>
          </g>
          <g>
            <path class="cls-2" d="m90.9,129c-.08,0-.17-.09-.2-.2-.03-.11.01-.16.09-.2l17.42-10.06s.07-.03.1-.03c.08,0,.17.09.2.2.03.11-.01.16-.09.2l-17.42,10.06s-.07.03-.1.03Z"/>
            <path class="cls-2" d="m58.12,147.93c-.08,0-.17-.09-.2-.2-.03-.11.01-.16.09-.2l26.13-15.09s.07-.03.1-.03c.08,0,.17.09.2.2.03.11-.01.16-.09.2l-26.13,15.09s-.07.03-.1.03h0Z"/>
            <path class="cls-2" d="m46.51,154.63c-.08,0-.17-.09-.2-.2-.03-.11.01-.16.09-.2l5.81-3.35s.07-.03.1-.03c.08,0,.17.09.2.2.03.11-.01.16-.09.2l-5.81,3.35s-.07.03-.1.03Z"/>
          </g>
          <g>
            <path class="cls-2" d="m104.17,142.23c-.09,0-.2-.06-.24-.14-.02-.04-.04-.09.01-.17l10.06-17.42c.05-.09.1-.1.14-.1.09,0,.2.06.24.14.02.04.04.09-.01.17l-10.06,17.42c-.05.09-.1.1-.14.1Z"/>
            <path class="cls-2" d="m85.25,175c-.09,0-.2-.06-.24-.14-.02-.04-.04-.09.01-.17l15.09-26.13c.05-.09.1-.1.14-.1.09,0,.2.06.24.14.02.04.04.09-.01.17l-15.09,26.13c-.05.09-.1.1-.14.1h0Z"/>
            <path class="cls-2" d="m78.55,186.61c-.09,0-.2-.06-.24-.14-.02-.04-.04-.09.01-.17l3.35-5.81c.05-.09.1-.1.14-.1.09,0,.2.06.24.14.02.04.04.09-.01.17l-3.35,5.81c-.05.09-.1.1-.14.1h0Z"/>
          </g>
          <g>
            <path class="cls-2" d="m122.21,147.06c-.14,0-.21-.06-.21-.19v-20.12c0-.13.07-.19.21-.19s.21.06.21.19v20.12c0,.1-.03.13-.05.14-.04.03-.1.05-.16.05Z"/>
            <path class="cls-2" d="m122.21,184.9c-.14,0-.21-.06-.21-.19v-30.18c0-.13.07-.19.21-.19s.21.06.21.19v30.18c0,.1-.03.13-.05.14-.04.03-.1.05-.16.05h0Z"/>
            <path class="cls-2" d="m122.21,198.31c-.14,0-.21-.06-.21-.19v-6.71c0-.13.07-.19.21-.19s.21.06.21.19v6.71c0,.1-.03.13-.05.14-.04.03-.1.05-.16.05Z"/>
          </g>
          <g>
            <path class="cls-2" d="m140.25,142.23s-.09-.01-.14-.1l-10.06-17.42c-.05-.09-.04-.13-.01-.17.04-.08.15-.14.24-.14.04,0,.09.01.14.1l10.06,17.42c.05.09.04.13.01.17-.04.08-.15.14-.24.14h0Z"/>
            <path class="cls-2" d="m159.17,175s-.09-.01-.14-.1l-15.09-26.13c-.05-.09-.04-.13-.01-.17.04-.08.15-.14.24-.14.04,0,.09.01.14.1l15.09,26.13c.05.09.04.13.01.17-.04.08-.15.14-.24.14h0Z"/>
            <path class="cls-2" d="m165.88,186.61s-.09-.01-.14-.1l-3.35-5.81c-.05-.09-.04-.13-.01-.17.05-.08.15-.14.24-.14.04,0,.09.01.14.1l3.35,5.81c.05.09.04.13.01.17-.05.08-.15.14-.24.14h0Z"/>
          </g>
          <g>
            <path class="cls-2" d="m153.53,129s-.06-.01-.1-.03l-17.42-10.06c-.07-.04-.12-.09-.09-.2.03-.11.12-.2.2-.2.03,0,.06.01.1.03l17.42,10.06c.07.04.12.09.09.2-.03.11-.12.2-.2.2Z"/>
            <path class="cls-2" d="m186.3,147.93s-.06-.01-.1-.03l-26.13-15.09c-.07-.04-.12-.09-.09-.2.03-.11.12-.2.2-.2.03,0,.06.01.1.03l26.13,15.09c.07.04.12.09.09.2-.03.11-.12.2-.2.2h0Z"/>
            <path class="cls-2" d="m197.91,154.63s-.06-.01-.1-.03l-5.81-3.35c-.07-.04-.12-.09-.09-.2.03-.11.12-.2.2-.2.03,0,.06.01.1.03l5.81,3.35c.07.04.12.09.09.2-.03.11-.12.2-.2.2h0Z"/>
          </g>
          <g>
            <path class="cls-2" d="m138.26,110.92c-.13,0-.19-.07-.19-.21s.06-.21.19-.21h20.12c.13,0,.19.07.19.21s-.06.21-.19.21h-20.12Z"/>
            <path class="cls-2" d="m166.04,110.92c-.13,0-.19-.07-.19-.21s.06-.21.19-.21h30.18c.13,0,.19.07.19.21s-.06.21-.19.21h-30.18Z"/>
            <path class="cls-2" d="m202.92,110.92c-.13,0-.19-.07-.19-.21s.06-.21.19-.21h6.71c.13,0,.19.07.19.21s-.06.21-.19.21h-6.71Z"/>
          </g>
          <g>
            <path class="cls-2" d="m136.11,102.9c-.08,0-.17-.09-.2-.2-.03-.11.01-.16.09-.2l17.42-10.06s.07-.03.1-.03c.08,0,.17.09.2.2.03.11-.01.16-.09.2l-17.42,10.06s-.07.03-.1.03Z"/>
            <path class="cls-2" d="m160.17,89.01c-.08,0-.17-.09-.2-.2-.03-.11.01-.16.09-.2l26.13-15.09s.07-.03.1-.03c.08,0,.17.09.2.2.03.11-.01.16-.09.2l-26.13,15.09s-.07.03-.1.03h0Z"/>
            <path class="cls-2" d="m192.11,70.57c-.08,0-.17-.09-.2-.2-.03-.11.01-.16.09-.2l5.81-3.35s.07-.03.1-.03c.08,0,.17.09.2.2.03.11-.01.16-.09.2l-5.81,3.35s-.07.03-.1.03h0Z"/>
          </g>
          <g>
            <path class="cls-2" d="m130.28,97.01c-.09,0-.2-.06-.24-.14-.02-.04-.04-.09.01-.17l10.06-17.42c.05-.09.1-.1.14-.1.09,0,.2.06.24.14.02.04.04.09-.01.17l-10.06,17.42c-.05.09-.1.1-.14.1h0Z"/>
            <path class="cls-2" d="m144.17,72.95c-.09,0-.2-.06-.24-.14-.02-.04-.04-.09.01-.17l15.09-26.13c.05-.09.1-.1.14-.1.09,0,.2.06.24.14.02.04.04.09-.01.17l-15.09,26.13c-.05.09-.1.1-.14.1h0Z"/>
            <path class="cls-2" d="m162.61,41.01c-.09,0-.2-.06-.24-.14-.02-.04-.04-.09.01-.17l3.35-5.81c.05-.09.1-.1.14-.1.09,0,.2.06.24.14.02.04.04.09-.01.17l-3.35,5.81c-.05.09-.1.1-.14.1Z"/>
          </g>
          <g>
            <path class="cls-2" d="m122.21,94.85c-.14,0-.21-.06-.21-.19v-20.12c0-.13.07-.19.21-.19s.21.06.21.19v20.12c0,.1-.03.13-.05.14-.04.03-.1.05-.16.05Z"/>
            <path class="cls-2" d="m122.21,67.06c-.14,0-.21-.06-.21-.19v-30.18c0-.13.07-.19.21-.19s.21.06.21.19v30.18c0,.1-.03.13-.05.14-.04.03-.1.05-.16.05Z"/>
            <path class="cls-2" d="m122.21,30.18c-.14,0-.21-.06-.21-.19v-6.71c0-.13.07-.19.21-.19s.21.06.21.19v6.71c0,.1-.03.13-.05.14-.04.03-.1.05-.16.05h0Z"/>
          </g>
          <g>
            <path class="cls-2" d="m114.15,97.01s-.09-.01-.14-.1l-10.06-17.42c-.05-.09-.04-.13-.01-.17.04-.08.15-.14.24-.14.04,0,.09.01.14.1l10.06,17.42c.05.09.04.13.01.17-.04.08-.15.14-.24.14h0Z"/>
            <path class="cls-2" d="m100.25,72.95s-.09-.01-.14-.1l-15.09-26.13c-.05-.09-.04-.13-.01-.17.04-.08.15-.14.24-.14.04,0,.09.01.14.1l15.09,26.13c.05.09.04.13.01.17-.04.08-.15.14-.24.14h0Z"/>
            <path class="cls-2" d="m81.81,41.01s-.09-.01-.14-.1l-3.35-5.81c-.05-.09-.04-.13-.01-.17.05-.08.15-.14.24-.14.04,0,.09.01.14.1l3.35,5.81c.05.09.04.13.01.17-.05.08-.15.14-.24.14h0Z"/>
          </g>
          <g>
            <path class="cls-2" d="m108.31,102.9s-.06-.01-.1-.03l-17.42-10.06c-.07-.04-.12-.09-.09-.2.03-.11.12-.2.2-.2.03,0,.06.01.1.03l17.42,10.06c.07.04.12.09.09.2-.03.11-.12.2-.2.2h0Z"/>
            <path class="cls-2" d="m84.25,89.01s-.06-.01-.1-.03l-26.13-15.09c-.07-.04-.12-.09-.09-.2.03-.11.12-.2.2-.2.03,0,.06.01.1.03l26.13,15.09c.07.04.12.09.09.2-.03.11-.12.2-.2.2Z"/>
            <path class="cls-2" d="m52.31,70.57s-.06-.01-.1-.03l-5.81-3.35c-.07-.04-.12-.09-.09-.2.03-.11.12-.2.2-.2.03,0,.06.01.1.03l5.81,3.35c.07.04.12.09.09.2-.03.11-.12.2-.2.2h0Z"/>
          </g>
        </g>
      </g>
      <polygon class="cls-3" points="62.18 157.87 31.3 166.39 62.18 177.17 62.18 157.87"/>
      <g>
        <polygon class="cls-1" points="53.5 130.28 188.25 103.24 188.25 62.28 181.11 51.54 46.36 78.57 46.36 119.54 53.5 130.28"/>
        <polygon class="cls-4" points="181.11 92.5 46.36 119.54 46.36 78.57 181.11 51.54 181.11 92.5"/>
      </g>
      <g>
        <polygon class="cls-6" points="31.3 166.39 201.44 139.76 201.44 98.8 196.17 92.35 31.3 125.42 31.3 166.39 31.3 166.39"/>
        <polygon class="cls-5" points="196.17 133.31 31.3 166.39 31.3 125.42 196.17 92.35 196.17 133.31"/>
      </g>
    </g>
  </g>
  <g id="Layer_2" data-name="Layer 2">
    <g>
      <path class="cls-2" d="m61.84,85.99c.06-.46-.11-.65-.52-.57-.4.08-.63.25-.69.52-.02.16.18.28.35.32.08.02.18.04.3.05.63.07,1.13.14,1.49.22.36.08.7.2,1.01.35.62.32.79.83.67,1.65-.15.94-.57,1.7-1.29,2.31s-1.64,1.03-2.77,1.24-1.99.14-2.55-.24c-.57-.37-.77-1.04-.63-2l2.85-.72c-.08.53.17.74.68.64s.81-.31.86-.61c.03-.19-.11-.32-.39-.41-.28-.09-.52-.13-.88-.18-.24-.03-.44-.06-.59-.08s-.32-.05-.5-.09c-.19-.03-.33-.07-.45-.11-.22-.08-.5-.2-.64-.35s-.28-.36-.32-.61-.05-.57.02-.96c.09-.56.31-1.06.68-1.51.37-.44.81-.79,1.35-1.06.53-.26,1.13-.46,1.79-.59,1.36-.26,2.34-.08,2.81.65.24.36.31.84.22,1.44l-2.85.72Z"/>
      <path class="cls-2" d="m66.07,82.48l2.82-.53-1.33,8.65-2.82.53,1.33-8.65Z"/>
      <path class="cls-2" d="m73.22,84.85l4.8-.91-.07.49c-.13.88-.45,1.7-.95,2.45s-1.12,1.38-1.85,1.87c-.74.49-1.54.82-2.38.98-1.27.24-2.34,0-3.02-.6-.69-.61-1-1.67-.79-3,.13-.88.45-1.7.95-2.45.49-.76,1.11-1.38,1.85-1.87s1.54-.82,2.38-.98c.94-.18,1.73-.12,2.4.19s1.1.82,1.32,1.54l-2.69,1.67c-.17-.6-.71-.87-1.44-.74-.5.09-.94.34-1.32.72-.39.4-.62.86-.7,1.4-.09.54.01.94.3,1.2.28.27.67.35,1.16.26.56-.11,1.13-.57,1.55-1.13l-1.72.32.22-1.42Z"/>
      <path class="cls-2" d="m84.06,79.08l2.82-.53-1.35,8.77-4.23-2.33-.48,3.11-2.82.53,1.35-8.77,4.23,2.33.48-3.11Z"/>
      <path class="cls-2" d="m95.59,76.9l2.82-.53-.72,4.7c-.21,1.33-.69,2.4-1.46,3.22-.78.82-1.76,1.35-2.95,1.57s-2.06.05-2.63-.52-.74-1.52-.54-2.84l.73-4.7,2.82-.53-.75,4.88c-.13.83.13,1.18.78,1.05s1.02-.59,1.15-1.42l.76-4.88Z"/>
      <path class="cls-2" d="m103.1,75.48c1.2-.23,2.07-.11,2.6.36.52.47.71,1.2.55,2.21s-.59,1.86-1.29,2.56-1.66,1.16-2.86,1.39l-.91.17-.33,2.14-2.82.53,1.33-8.65,3.73-.71Zm-.96,4.29c.7-.13,1.19-.61,1.28-1.19.09-.57-.28-.89-.98-.76l-.62.12-.3,1.94.62-.12Z"/>
      <path class="cls-2" d="m110.46,74.08l2.82-.53-1.33,8.65-2.82.53,1.33-8.65Z"/>
      <path class="cls-2" d="m118.97,72.47l2.82-.53-1.35,8.77-4.23-2.33-.48,3.11-2.82.53,1.35-8.77,4.23,2.33.48-3.11Z"/>
      <path class="cls-2" d="m132.23,69.96l-.35,2.29-1.95.37-.98,6.37-2.82.53.98-6.37-1.95.37.35-2.29,6.72-1.27Z"/>
      <path class="cls-2" d="m132.95,69.83l2.82-.53-1.33,8.65-2.82.53,1.33-8.65Z"/>
      <path class="cls-2" d="m146.42,67.16l-1.35,8.77-2.82.53.53-3.44-2.25,1.93-1.78-1.16-.53,3.44-2.82.53,1.35-8.77,4.29,2.62,5.38-4.45Z"/>
      <path class="cls-2" d="m147.35,67.1l6.21-1.17-.35,2.29-3.39.64-.14.9,3.03-.57-.36,2.29-3.02.57-.13.89,3.57-.68-.35,2.29-6.39,1.21,1.33-8.65Z"/>
      <path class="cls-2" d="m64.82,97.12l-.35,2.29-1.95.37-.98,6.37-2.82.53.98-6.37-1.95.37.35-2.29,6.72-1.27Z"/>
      <path class="cls-2" d="m65.19,104.39c-.69-.61-1-1.67-.79-3,.13-.88.45-1.7.95-2.45.49-.76,1.11-1.38,1.85-1.87s1.54-.82,2.38-.98c1.27-.24,2.34-.02,3.03.6.68.62.98,1.67.79,3-.13.88-.45,1.7-.95,2.45s-1.12,1.38-1.85,1.87c-.74.49-1.54.82-2.38.98-1.27.24-2.34,0-3.02-.6Zm3.43-2.05c.49-.09.93-.33,1.32-.73s.62-.86.7-1.39-.02-.94-.3-1.21c-.28-.26-.67-.35-1.16-.26s-.94.34-1.32.72c-.39.4-.62.86-.7,1.4-.09.54.01.94.3,1.2.28.27.67.35,1.16.26Z"/>
      <path class="cls-2" d="m84.25,93.44l-.35,2.29-1.95.37-.98,6.37-2.82.53.98-6.37-1.95.37.35-2.29,6.72-1.27Z"/>
      <path class="cls-2" d="m90.07,92.34l2.81-.53-1.34,8.66-2.82.53.45-2.93-2.27.43-.45,2.93-2.82.53,1.33-8.65,2.81-.53-.53,3.43,2.28-.43.53-3.43Z"/>
      <path class="cls-2" d="m93.83,91.63l6.21-1.17-.35,2.29-3.39.64-.14.9,3.03-.57-.36,2.29-3.02.57-.13.89,3.57-.68-.35,2.29-6.39,1.21,1.33-8.65Z"/>
      <path class="cls-2" d="m107.55,92.75l4.8-.91-.07.49c-.13.88-.45,1.7-.95,2.45s-1.12,1.38-1.85,1.87c-.74.49-1.54.82-2.38.98-1.27.24-2.34,0-3.02-.6-.69-.61-1-1.67-.79-3,.13-.88.45-1.7.95-2.45.49-.76,1.11-1.38,1.85-1.87s1.54-.82,2.38-.98c.94-.18,1.73-.12,2.4.19s1.1.82,1.32,1.54l-2.69,1.67c-.17-.6-.71-.87-1.44-.74-.5.09-.94.34-1.32.72-.39.4-.62.86-.7,1.4-.09.54.01.94.3,1.2.28.27.67.35,1.16.26.56-.11,1.13-.57,1.55-1.13l-1.72.32.22-1.42Z"/>
      <path class="cls-2" d="m118.64,92.8l1.13,2.33-2.82.53-.88-1.91-.59.11-.33,2.14-2.82.53,1.33-8.65,3.73-.71c1.2-.23,2.07-.11,2.6.36.52.47.71,1.2.55,2.21-.19,1.26-.84,2.33-1.9,3.05Zm-2.52-3.16l-.3,1.94.62-.12c.7-.13,1.19-.61,1.28-1.19.09-.57-.28-.89-.98-.76l-.62.12Z"/>
      <path class="cls-2" d="m121.64,93.71c-.69-.61-1-1.67-.79-3,.13-.88.45-1.7.95-2.45.49-.76,1.11-1.38,1.85-1.87s1.54-.82,2.38-.98c1.27-.24,2.34-.02,3.03.6.68.62.98,1.67.79,3-.13.88-.45,1.7-.95,2.45s-1.12,1.38-1.85,1.87c-.74.49-1.54.82-2.38.98-1.27.24-2.34,0-3.02-.6Zm3.43-2.05c.49-.09.93-.33,1.32-.73s.62-.86.7-1.39-.02-.94-.3-1.21c-.28-.26-.67-.35-1.16-.26s-.94.34-1.32.72c-.39.4-.62.86-.7,1.4-.09.54.01.94.3,1.2.28.27.67.35,1.16.26Z"/>
      <path class="cls-2" d="m135.98,83.65l2.82-.53-.72,4.7c-.21,1.33-.69,2.4-1.46,3.22-.78.82-1.76,1.35-2.95,1.57s-2.06.05-2.63-.52-.74-1.52-.54-2.84l.73-4.7,2.82-.53-.75,4.88c-.13.83.13,1.18.78,1.05s1.02-.59,1.15-1.42l.76-4.88Z"/>
      <path class="cls-2" d="m143.49,82.23c1.2-.23,2.07-.11,2.6.36.52.47.71,1.2.55,2.21s-.59,1.86-1.29,2.56-1.66,1.16-2.86,1.39l-.91.17-.33,2.14-2.82.53,1.33-8.65,3.73-.71Zm-.96,4.29c.7-.13,1.19-.61,1.28-1.19.09-.57-.28-.89-.98-.76l-.62.12-.3,1.94.62-.12Z"/>
      <path class="cls-2" d="m155.11,88.44l-.11-1.03-2.58.49-.43,1.13-2.94.56,3.59-9.08,4.49-.85.93,8.23-2.94.56Zm-1.75-2.94l1.42-.27-.28-2.69-1.15,2.96Z"/>
      <path class="cls-2" d="m164.59,78.24l2.82-.53-1.35,8.77-4.23-2.33-.48,3.11-2.82.53,1.35-8.77,4.23,2.33.48-3.11Z"/>
      <path class="cls-2" d="m172.38,76.77c2.53-.51,4.01.97,3.6,3.52-.2,1.29-.75,2.41-1.65,3.35s-1.99,1.54-3.28,1.78l-4.01.76,1.33-8.65,4.01-.76Zm-1.34,6.44c.51-.1.97-.36,1.37-.8.4-.43.65-.96.74-1.58.1-.64,0-1.11-.28-1.41-.29-.29-.69-.39-1.21-.29l-.83.16-.63,4.08.83-.16Z"/>
      <path class="cls-2" d="m40.97,135.19l4.8-.91-.07.49c-.13.88-.45,1.7-.95,2.45s-1.12,1.38-1.85,1.87c-.74.49-1.54.82-2.38.98-1.27.24-2.34,0-3.02-.6-.69-.61-1-1.67-.79-3,.13-.88.45-1.7.95-2.45.49-.76,1.11-1.38,1.85-1.87s1.54-.82,2.38-.98c.94-.18,1.73-.12,2.4.19s1.1.82,1.32,1.54l-2.69,1.67c-.17-.6-.71-.87-1.44-.74-.5.09-.94.34-1.32.72-.39.4-.62.86-.7,1.4-.09.54.01.94.3,1.2.28.27.67.35,1.16.26.56-.11,1.13-.57,1.55-1.13l-1.72.32.22-1.42Z"/>
      <path class="cls-2" d="m47.08,130.32l6.21-1.17-.35,2.29-3.39.64-.14.9,3.03-.57-.36,2.29-3.02.57-.13.89,3.57-.68-.35,2.29-6.39,1.21,1.33-8.65Z"/>
      <path class="cls-2" d="m60.91,127.7l-.35,2.29-1.95.37-.98,6.37-2.82.53.98-6.37-1.95.37.35-2.29,6.72-1.27Z"/>
      <path class="cls-2" d="m71.1,125.77l-.35,2.29-1.95.37-.98,6.37-2.82.53.98-6.37-1.95.37.35-2.29,6.72-1.27Z"/>
      <path class="cls-2" d="m76.92,124.67l2.81-.53-1.34,8.66-2.82.53.45-2.93-2.27.43-.45,2.93-2.82.53,1.33-8.65,2.81-.53-.53,3.43,2.28-.43.53-3.44Z"/>
      <path class="cls-2" d="m80.68,123.96l6.21-1.17-.35,2.29-3.39.64-.14.9,3.03-.57-.36,2.29-3.02.57-.13.89,3.57-.68-.35,2.29-6.39,1.21,1.33-8.65Z"/>
      <path class="cls-2" d="m90.92,129.37c-.69-.61-1-1.67-.79-3,.13-.88.45-1.7.95-2.45.49-.76,1.11-1.38,1.85-1.87s1.54-.82,2.38-.98c1.27-.24,2.34-.02,3.03.6.68.62.98,1.67.79,3-.13.88-.45,1.7-.95,2.45-.5.76-1.12,1.38-1.85,1.87-.74.49-1.54.82-2.38.98-1.27.24-2.34,0-3.02-.6Zm3.43-2.05c.49-.09.93-.33,1.32-.73s.62-.86.7-1.39-.02-.94-.3-1.21c-.28-.26-.67-.35-1.16-.26s-.94.34-1.32.72c-.39.4-.62.86-.7,1.4-.09.54.01.94.3,1.2.28.27.67.35,1.16.26Z"/>
      <path class="cls-2" d="m104.24,119.51c1.2-.23,2.07-.11,2.6.36.52.47.71,1.2.55,2.21s-.59,1.86-1.29,2.56-1.66,1.16-2.86,1.39l-.91.17-.33,2.14-2.82.53,1.33-8.65,3.73-.71Zm-.96,4.29c.7-.13,1.19-.61,1.28-1.19.09-.57-.28-.89-.98-.76l-.62.12-.3,1.94.62-.12Z"/>
      <path class="cls-2" d="m112.34,117.97c1.2-.23,2.07-.11,2.6.36.52.47.71,1.2.55,2.21s-.59,1.86-1.29,2.56-1.66,1.16-2.86,1.39l-.91.17-.33,2.14-2.82.53,1.33-8.65,3.73-.71Zm-.96,4.29c.7-.13,1.19-.61,1.28-1.19.09-.57-.28-.89-.98-.76l-.62.12-.3,1.94.62-.12Z"/>
      <path class="cls-2" d="m116.59,124.52c-.69-.61-1-1.67-.79-3,.13-.88.45-1.7.95-2.45.49-.76,1.11-1.38,1.85-1.87s1.54-.82,2.38-.98c1.27-.24,2.34-.02,3.03.6.68.62.98,1.67.79,3-.13.88-.45,1.7-.95,2.45s-1.12,1.38-1.85,1.87c-.74.49-1.54.82-2.38.98-1.27.24-2.34,0-3.02-.6Zm3.43-2.05c.49-.09.93-.33,1.32-.73s.62-.86.7-1.39-.02-.94-.3-1.21c-.28-.26-.67-.35-1.16-.26s-.94.34-1.32.72c-.39.4-.62.86-.7,1.4-.09.54.01.94.3,1.2.28.27.67.35,1.16.26Z"/>
      <path class="cls-2" d="m131.16,120.27l1.13,2.33-2.82.53-.88-1.91-.59.11-.33,2.14-2.82.53,1.33-8.65,3.73-.71c1.2-.23,2.07-.11,2.6.36.52.47.71,1.2.55,2.21-.19,1.26-.84,2.33-1.9,3.05Zm-2.52-3.16l-.3,1.94.62-.12c.7-.13,1.19-.61,1.28-1.19.09-.57-.28-.89-.98-.76l-.62.12Z"/>
      <path class="cls-2" d="m140.57,112.63l-.35,2.29-1.95.37-.98,6.37-2.82.53.98-6.37-1.95.37.35-2.29,6.72-1.27Z"/>
      <path class="cls-2" d="m146.04,111.6l2.82-.53-.72,4.7c-.21,1.33-.69,2.4-1.46,3.22-.78.82-1.76,1.35-2.95,1.57s-2.06.05-2.63-.52-.74-1.52-.54-2.84l.73-4.7,2.82-.53-.75,4.88c-.13.83.13,1.18.78,1.05s1.02-.59,1.15-1.42l.76-4.88Z"/>
      <path class="cls-2" d="m154.55,109.99l2.82-.53-1.35,8.77-4.23-2.33-.48,3.11-2.82.53,1.35-8.77,4.23,2.33.48-3.11Z"/>
      <path class="cls-2" d="m158.33,109.27l2.82-.53-1.33,8.65-2.82.53,1.33-8.65Z"/>
      <path class="cls-2" d="m168.59,107.33l-.35,2.29-1.95.37-.98,6.37-2.82.53.98-6.37-1.95.37.35-2.29,6.72-1.27Z"/>
      <path class="cls-2" d="m174.46,106.22l3.12-.59-3.9,6.62-.4,2.59-2.82.53.39-2.59-2.03-5.5,3.12-.59.78,2.89,1.74-3.37Z"/>
      <path class="cls-2" d="m44.09,145.29l-.35,2.29-1.95.37-.98,6.37-2.82.53.98-6.37-1.95.37.35-2.29,6.72-1.27Z"/>
      <path class="cls-2" d="m44.45,152.57c-.69-.61-1-1.67-.79-3,.13-.88.45-1.7.95-2.45.49-.76,1.11-1.38,1.85-1.87s1.54-.82,2.38-.98c1.27-.24,2.34-.02,3.03.6.68.62.98,1.67.79,3-.13.88-.45,1.7-.95,2.45s-1.12,1.38-1.85,1.87c-.74.49-1.54.82-2.38.98-1.27.24-2.34,0-3.02-.6Zm3.43-2.05c.49-.09.93-.33,1.32-.73s.62-.86.7-1.39-.02-.94-.3-1.21c-.28-.26-.67-.35-1.16-.26s-.94.34-1.32.72c-.39.4-.62.86-.7,1.4-.09.54.01.94.3,1.2.28.27.67.35,1.16.26Z"/>
      <path class="cls-2" d="m60.53,144.89c.06-.46-.11-.65-.52-.57-.4.08-.63.25-.69.52-.02.16.18.28.35.32.08.02.18.04.3.05.63.07,1.13.14,1.49.22.36.08.7.2,1.01.35.62.32.79.83.67,1.65-.15.94-.57,1.7-1.29,2.31s-1.64,1.03-2.77,1.24-1.99.14-2.55-.24c-.57-.37-.77-1.04-.63-2l2.85-.72c-.08.53.17.74.68.64s.81-.31.86-.61c.03-.19-.11-.32-.39-.41-.28-.09-.52-.13-.88-.18-.24-.03-.44-.06-.59-.08s-.32-.05-.5-.09c-.19-.03-.33-.07-.45-.11-.22-.08-.5-.2-.64-.35s-.28-.36-.32-.61-.05-.57.02-.96c.09-.56.31-1.06.68-1.51.37-.44.81-.79,1.35-1.06.53-.26,1.13-.46,1.79-.59,1.36-.26,2.34-.08,2.81.65.24.36.31.84.22,1.44l-2.85.72Z"/>
      <path class="cls-2" d="m71,140.19l-.35,2.29-1.95.37-.98,6.37-2.82.53.98-6.37-1.95.37.35-2.29,6.72-1.27Z"/>
      <path class="cls-2" d="m76.47,139.16l2.82-.53-.72,4.7c-.21,1.33-.69,2.4-1.46,3.22-.78.82-1.76,1.35-2.95,1.57s-2.06.05-2.63-.52-.74-1.52-.54-2.84l.73-4.7,2.82-.53-.75,4.88c-.13.83.13,1.18.78,1.05s1.02-.59,1.15-1.42l.76-4.88Z"/>
      <path class="cls-2" d="m84.26,137.69c2.53-.51,4.01.97,3.6,3.52-.2,1.29-.75,2.41-1.65,3.35s-1.99,1.54-3.28,1.78l-4.01.76,1.33-8.65,4.01-.76Zm-1.34,6.44c.51-.1.97-.36,1.37-.8.4-.43.65-.96.74-1.58.1-.64,0-1.11-.28-1.41-.29-.29-.69-.39-1.21-.29l-.83.16-.63,4.08.83-.16Z"/>
      <path class="cls-2" d="m93.68,135.9l3.12-.59-3.9,6.62-.4,2.59-2.82.53.39-2.59-2.03-5.5,3.12-.59.78,2.89,1.74-3.37Z"/>
      <path class="cls-2" d="m104.53,142.25l-.11-1.03-2.58.49-.43,1.13-2.94.56,3.59-9.08,4.49-.85.93,8.23-2.94.56Zm-1.75-2.94l1.42-.27-.28-2.69-1.15,2.96Z"/>
      <path class="cls-2" d="m115.51,136.46c.21.33.28.77.19,1.32-.21,1.48-1.58,2.68-3.02,2.93l-4.73.89,1.33-8.65,4.43-.84c.77-.15,1.37-.06,1.8.24s.6.83.49,1.55c-.16,1.04-.69,1.72-1.3,2,.32.04.59.22.8.55Zm-3.09,2.14c.25-.05.46-.29.51-.59s-.11-.47-.36-.42l-1.31.25-.16,1.02,1.31-.25Zm-.66-3.95l-.16,1.02,1.01-.19c.25-.05.47-.29.52-.6.05-.31-.11-.47-.36-.42l-1.01.19Z"/>
      <path class="cls-2" d="m122.36,136.34l1.13,2.33-2.82.53-.88-1.91-.59.11-.33,2.14-2.82.53,1.33-8.65,3.73-.71c1.2-.23,2.07-.11,2.6.36.52.47.71,1.2.55,2.21-.19,1.26-.84,2.33-1.9,3.05Zm-2.52-3.16l-.3,1.94.62-.12c.7-.13,1.19-.61,1.28-1.19.09-.57-.28-.89-.98-.76l-.62.12Z"/>
      <path class="cls-2" d="m125.36,137.26c-.69-.61-1-1.67-.79-3,.13-.88.45-1.7.95-2.45.49-.76,1.11-1.38,1.85-1.87s1.54-.82,2.38-.98c1.27-.24,2.34-.02,3.03.6.68.62.98,1.67.79,3-.13.88-.45,1.7-.95,2.45s-1.12,1.38-1.85,1.87c-.74.49-1.54.82-2.38.98-1.27.24-2.34,0-3.02-.6Zm3.43-2.05c.49-.09.93-.33,1.32-.73s.62-.86.7-1.39-.02-.94-.3-1.21c-.28-.26-.67-.35-1.16-.26s-.94.34-1.32.72c-.39.4-.62.86-.7,1.4-.09.54.01.94.3,1.2.28.27.67.35,1.16.26Z"/>
      <path class="cls-2" d="m138.66,135.8l-.11-1.03-2.58.49-.43,1.13-2.94.56,3.59-9.08,4.49-.85.93,8.23-2.94.56Zm-1.75-2.94l1.42-.27-.28-2.69-1.15,2.96Z"/>
      <path class="cls-2" d="m147.42,125.74c2.53-.51,4.01.97,3.6,3.52-.2,1.29-.75,2.41-1.65,3.35s-1.99,1.54-3.28,1.78l-4.01.76,1.33-8.65,4.01-.76Zm-1.34,6.44c.51-.1.97-.36,1.37-.8.4-.43.65-.96.74-1.58.1-.64,0-1.11-.28-1.41-.29-.29-.69-.39-1.21-.29l-.83.16-.63,4.08.83-.16Z"/>
    </g>
  </g>
</svg>