<?xml version="1.0" encoding="UTF-8"?>
<svg xmlns="http://www.w3.org/2000/svg" width="3.28in" height="2.93in" viewBox="0 0 236.5 211.07">
  <defs>
    <style>
      .cls-1 {
        fill: #f27900;
      }

      .cls-1, .cls-2, .cls-3, .cls-4, .cls-5, .cls-6 {
        stroke-width: 0px;
      }

      .cls-3 {
        fill: #ccc;
      }

      .cls-4 {
        fill: #ffc800;
      }

      .cls-5 {
        fill: #fff;
      }

      .cls-6 {
        fill: #b5b5b5;
      }
    </style>
  </defs>
  <g id="Layer_1" data-name="Layer 1">
    <g>
      <g>
        <g>
          <g>
            <path class="cls-2" d="m107.45,96.18s-.06,0-.12-.06l-39.29-39.29c-.06-.06-.08-.12-.05-.19.04-.1.14-.18.23-.18.02,0,.06,0,.12.06l39.29,39.29c.06.06.08.12.05.19-.04.1-.14.18-.23.18h0Z"/>
            <path class="cls-2" d="m61.38,50.12s-.06,0-.12-.06l-12.53-12.53c-.06-.06-.08-.12-.05-.19.04-.1.15-.18.23-.18.02,0,.06,0,.12.06l12.53,12.53c.06.06.08.12.05.19-.04.1-.14.18-.23.18h0Z"/>
          </g>
          <g>
            <path class="cls-2" d="m102.1,105.53s-.04,0-.07-.01l-53.67-14.38c-.05-.01-.16-.04-.14-.21,0-.06.05-.21.18-.21.02,0,.04,0,.07.01l53.67,14.38c.05.01.16.04.14.21,0,.06-.05.21-.18.21h0Z"/>
            <path class="cls-2" d="m39.18,88.67s-.04,0-.07-.01l-17.12-4.59c-.05-.01-.16-.04-.14-.21,0-.06.05-.21.18-.21.02,0,.04,0,.07.01l17.12,4.59c.05.01.16.04.14.21,0,.06-.05.21-.18.21h0Z"/>
          </g>
          <g>
            <path class="cls-2" d="m48.4,130.69c-.12,0-.17-.15-.17-.21-.02-.17.08-.2.14-.21l53.67-14.38s.05-.01.07-.01c.12,0,.17.15.18.21.02.17-.08.2-.14.21l-53.67,14.38s-.05.01-.07.01Z"/>
            <path class="cls-2" d="m22.03,137.76c-.12,0-.17-.15-.18-.21-.02-.17.08-.2.14-.21l17.12-4.59s.05-.01.07-.01c.12,0,.17.15.18.21.02.17-.08.2-.14.21l-17.12,4.59s-.05.01-.07.01Z"/>
          </g>
          <g>
            <path class="cls-2" d="m68.22,164.94c-.08,0-.19-.08-.23-.18-.03-.07-.02-.12.05-.19l39.29-39.29c.06-.06.11-.06.12-.06.08,0,.19.08.23.18.03.07.02.12-.05.19l-39.29,39.29c-.06.06-.11.06-.12.06Z"/>
            <path class="cls-2" d="m48.91,184.25c-.08,0-.19-.08-.23-.18-.03-.07-.02-.12.05-.19l12.53-12.53c.06-.06.11-.06.12-.06.08,0,.19.08.23.18.03.07.02.12-.05.19l-12.53,12.53c-.06.06-.11.06-.12.06h0Z"/>
          </g>
          <g>
            <path class="cls-2" d="m102.47,184.7c-.09,0-.18-.04-.22-.1-.01-.02-.04-.06-.02-.15l14.38-53.67c.02-.08.06-.14.17-.14.09,0,.18.04.22.1.01.02.04.05.02.15l-14.38,53.67c-.02.08-.06.14-.17.14Z"/>
            <path class="cls-2" d="m95.4,211.07c-.09,0-.18-.04-.22-.1-.01-.02-.04-.05-.02-.15l4.59-17.12c.02-.08.06-.14.17-.14.09,0,.18.04.22.1.01.02.04.05.02.15l-4.59,17.12c-.02.08-.06.14-.17.14Z"/>
          </g>
          <g>
            <path class="cls-2" d="m141.95,184.7c-.11,0-.15-.06-.17-.14l-14.38-53.67c-.03-.1,0-.14.02-.15.04-.06.14-.1.22-.1.11,0,.15.06.17.14l14.38,53.67c.03.1,0,.14-.02.15-.04.06-.14.1-.22.1Z"/>
            <path class="cls-2" d="m149.02,211.07c-.11,0-.15-.06-.17-.14l-4.59-17.12c-.03-.1,0-.14.02-.15.04-.06.14-.1.22-.1.11,0,.15.06.17.14l4.59,17.12c.03.1,0,.14-.02.15-.04.06-.14.1-.22.1h0Z"/>
          </g>
          <g>
            <path class="cls-2" d="m176.21,164.94s-.06,0-.12-.06l-39.29-39.29c-.06-.06-.08-.12-.05-.19.04-.1.14-.18.23-.18.02,0,.06,0,.12.06l39.29,39.29c.06.06.08.12.05.19-.04.1-.14.18-.23.18h0Z"/>
            <path class="cls-2" d="m195.51,184.25s-.06,0-.12-.06l-12.53-12.53c-.06-.06-.08-.12-.05-.19.04-.1.15-.18.23-.18.02,0,.06,0,.12.06l12.53,12.53c.06.06.08.12.05.19-.04.1-.14.18-.23.18h0Z"/>
          </g>
          <g>
            <path class="cls-2" d="m196.03,130.69s-.04,0-.07-.01l-53.67-14.38c-.05-.01-.16-.04-.14-.21,0-.06.05-.21.18-.21.02,0,.04,0,.07.01l53.67,14.38c.05.01.16.04.14.21,0,.06-.05.21-.18.21h0Z"/>
            <path class="cls-2" d="m222.4,137.76s-.04,0-.07-.01l-17.12-4.59c-.05-.01-.16-.04-.14-.21,0-.06.05-.21.18-.21.02,0,.04,0,.07.01l17.12,4.59c.05.01.16.04.14.21,0,.06-.05.21-.18.21h0Z"/>
          </g>
          <g>
            <path class="cls-2" d="m142.32,105.53c-.12,0-.17-.15-.18-.21-.02-.17.08-.2.14-.21l53.67-14.38s.05-.01.07-.01c.12,0,.17.15.17.21.02.17-.08.2-.14.21l-53.67,14.38s-.05.01-.07.01Z"/>
            <path class="cls-2" d="m205.25,88.67c-.12,0-.17-.15-.18-.21-.02-.17.08-.2.14-.21l17.12-4.59s.05-.01.07-.01c.12,0,.17.15.18.21.02.17-.08.2-.14.21l-17.12,4.59s-.05.01-.07.01h0Z"/>
          </g>
          <g>
            <path class="cls-2" d="m136.98,96.18c-.08,0-.19-.08-.23-.18-.03-.07-.02-.12.05-.19l39.29-39.29c.06-.06.11-.06.12-.06.08,0,.19.08.23.18.03.07.02.12-.05.19l-39.29,39.29c-.06.06-.1.06-.12.06h0Z"/>
            <path class="cls-2" d="m183.04,50.12c-.08,0-.19-.08-.23-.18-.03-.07-.02-.12.05-.19l12.53-12.53c.06-.06.11-.06.12-.06.08,0,.19.08.23.18.03.07.02.12-.05.19l-12.53,12.53c-.06.06-.11.06-.12.06h0Z"/>
          </g>
          <g>
            <path class="cls-2" d="m127.64,90.77c-.09,0-.18-.04-.22-.1-.01-.02-.04-.05-.02-.15l14.38-53.67c.02-.08.06-.14.17-.14.09,0,.18.04.22.1.01.02.04.05.02.15l-14.38,53.67c-.02.08-.06.14-.17.14h0Z"/>
            <path class="cls-2" d="m144.5,27.85c-.09,0-.18-.04-.22-.1-.01-.02-.04-.05-.02-.15l4.59-17.12c.02-.08.06-.14.17-.14.09,0,.18.04.22.1.01.02.04.05.02.15l-4.59,17.12c-.02.08-.06.14-.17.14Z"/>
          </g>
          <g>
            <path class="cls-2" d="m116.79,90.77c-.11,0-.15-.06-.17-.14l-14.38-53.67c-.03-.1,0-.14.02-.15.04-.06.14-.1.22-.1.11,0,.15.06.17.14l14.38,53.67c.03.1,0,.14-.02.15-.04.06-.14.1-.22.1Z"/>
            <path class="cls-2" d="m99.93,27.85c-.11,0-.15-.06-.17-.14l-4.59-17.12c-.03-.1,0-.14.02-.15.04-.06.14-.1.22-.1.11,0,.15.06.17.14l4.59,17.12c.03.1,0,.14-.02.15-.04.06-.14.1-.22.1h0Z"/>
          </g>
        </g>
        <g>
          <g>
            <path class="cls-2" d="m86.05,110.92c-.13,0-.19-.07-.19-.21s.06-.21.19-.21h20.12c.13,0,.19.07.19.21s-.06.21-.19.21h-20.12Z"/>
            <path class="cls-2" d="m48.21,110.92c-.13,0-.19-.07-.19-.21s.06-.21.19-.21h30.18c.13,0,.19.07.19.21s-.06.21-.19.21h-30.18Z"/>
            <path class="cls-2" d="m34.79,110.92c-.13,0-.19-.07-.19-.21s.06-.21.19-.21h6.71c.13,0,.19.07.19.21s-.06.21-.19.21h-6.71Z"/>
          </g>
          <g>
            <path class="cls-2" d="m90.9,129c-.08,0-.17-.09-.2-.2-.03-.11.01-.16.09-.2l17.42-10.06s.07-.03.1-.03c.08,0,.17.09.2.2.03.11-.01.16-.09.2l-17.42,10.06s-.07.03-.1.03Z"/>
            <path class="cls-2" d="m58.12,147.93c-.08,0-.17-.09-.2-.2-.03-.11.01-.16.09-.2l26.13-15.09s.07-.03.1-.03c.08,0,.17.09.2.2.03.11-.01.16-.09.2l-26.13,15.09s-.07.03-.1.03h0Z"/>
            <path class="cls-2" d="m46.51,154.63c-.08,0-.17-.09-.2-.2-.03-.11.01-.16.09-.2l5.81-3.35s.07-.03.1-.03c.08,0,.17.09.2.2.03.11-.01.16-.09.2l-5.81,3.35s-.07.03-.1.03Z"/>
          </g>
          <g>
            <path class="cls-2" d="m104.17,142.23c-.09,0-.2-.06-.24-.14-.02-.04-.04-.09.01-.17l10.06-17.42c.05-.09.1-.1.14-.1.09,0,.2.06.24.14.02.04.04.09-.01.17l-10.06,17.42c-.05.09-.1.1-.14.1Z"/>
            <path class="cls-2" d="m85.25,175c-.09,0-.2-.06-.24-.14-.02-.04-.04-.09.01-.17l15.09-26.13c.05-.09.1-.1.14-.1.09,0,.2.06.24.14.02.04.04.09-.01.17l-15.09,26.13c-.05.09-.1.1-.14.1h0Z"/>
            <path class="cls-2" d="m78.55,186.61c-.09,0-.2-.06-.24-.14-.02-.04-.04-.09.01-.17l3.35-5.81c.05-.09.1-.1.14-.1.09,0,.2.06.24.14.02.04.04.09-.01.17l-3.35,5.81c-.05.09-.1.1-.14.1h0Z"/>
          </g>
          <g>
            <path class="cls-2" d="m122.21,147.06c-.14,0-.21-.06-.21-.19v-20.12c0-.13.07-.19.21-.19s.21.06.21.19v20.12c0,.1-.03.13-.05.14-.04.03-.1.05-.16.05Z"/>
            <path class="cls-2" d="m122.21,184.9c-.14,0-.21-.06-.21-.19v-30.18c0-.13.07-.19.21-.19s.21.06.21.19v30.18c0,.1-.03.13-.05.14-.04.03-.1.05-.16.05h0Z"/>
            <path class="cls-2" d="m122.21,198.31c-.14,0-.21-.06-.21-.19v-6.71c0-.13.07-.19.21-.19s.21.06.21.19v6.71c0,.1-.03.13-.05.14-.04.03-.1.05-.16.05Z"/>
          </g>
          <g>
            <path class="cls-2" d="m140.25,142.23s-.09-.01-.14-.1l-10.06-17.42c-.05-.09-.04-.13-.01-.17.04-.08.15-.14.24-.14.04,0,.09.01.14.1l10.06,17.42c.05.09.04.13.01.17-.04.08-.15.14-.24.14h0Z"/>
            <path class="cls-2" d="m159.17,175s-.09-.01-.14-.1l-15.09-26.13c-.05-.09-.04-.13-.01-.17.04-.08.15-.14.24-.14.04,0,.09.01.14.1l15.09,26.13c.05.09.04.13.01.17-.04.08-.15.14-.24.14h0Z"/>
            <path class="cls-2" d="m165.88,186.61s-.09-.01-.14-.1l-3.35-5.81c-.05-.09-.04-.13-.01-.17.05-.08.15-.14.24-.14.04,0,.09.01.14.1l3.35,5.81c.05.09.04.13.01.17-.05.08-.15.14-.24.14h0Z"/>
          </g>
          <g>
            <path class="cls-2" d="m153.53,129s-.06-.01-.1-.03l-17.42-10.06c-.07-.04-.12-.09-.09-.2.03-.11.12-.2.2-.2.03,0,.06.01.1.03l17.42,10.06c.07.04.12.09.09.2-.03.11-.12.2-.2.2Z"/>
            <path class="cls-2" d="m186.3,147.93s-.06-.01-.1-.03l-26.13-15.09c-.07-.04-.12-.09-.09-.2.03-.11.12-.2.2-.2.03,0,.06.01.1.03l26.13,15.09c.07.04.12.09.09.2-.03.11-.12.2-.2.2h0Z"/>
            <path class="cls-2" d="m197.91,154.63s-.06-.01-.1-.03l-5.81-3.35c-.07-.04-.12-.09-.09-.2.03-.11.12-.2.2-.2.03,0,.06.01.1.03l5.81,3.35c.07.04.12.09.09.2-.03.11-.12.2-.2.2h0Z"/>
          </g>
          <g>
            <path class="cls-2" d="m138.26,110.92c-.13,0-.19-.07-.19-.21s.06-.21.19-.21h20.12c.13,0,.19.07.19.21s-.06.21-.19.21h-20.12Z"/>
            <path class="cls-2" d="m166.04,110.92c-.13,0-.19-.07-.19-.21s.06-.21.19-.21h30.18c.13,0,.19.07.19.21s-.06.21-.19.21h-30.18Z"/>
            <path class="cls-2" d="m202.92,110.92c-.13,0-.19-.07-.19-.21s.06-.21.19-.21h6.71c.13,0,.19.07.19.21s-.06.21-.19.21h-6.71Z"/>
          </g>
          <g>
            <path class="cls-2" d="m136.11,102.9c-.08,0-.17-.09-.2-.2-.03-.11.01-.16.09-.2l17.42-10.06s.07-.03.1-.03c.08,0,.17.09.2.2.03.11-.01.16-.09.2l-17.42,10.06s-.07.03-.1.03Z"/>
            <path class="cls-2" d="m160.17,89.01c-.08,0-.17-.09-.2-.2-.03-.11.01-.16.09-.2l26.13-15.09s.07-.03.1-.03c.08,0,.17.09.2.2.03.11-.01.16-.09.2l-26.13,15.09s-.07.03-.1.03h0Z"/>
            <path class="cls-2" d="m192.11,70.57c-.08,0-.17-.09-.2-.2-.03-.11.01-.16.09-.2l5.81-3.35s.07-.03.1-.03c.08,0,.17.09.2.2.03.11-.01.16-.09.2l-5.81,3.35s-.07.03-.1.03h0Z"/>
          </g>
          <g>
            <path class="cls-2" d="m130.28,97.01c-.09,0-.2-.06-.24-.14-.02-.04-.04-.09.01-.17l10.06-17.42c.05-.09.1-.1.14-.1.09,0,.2.06.24.14.02.04.04.09-.01.17l-10.06,17.42c-.05.09-.1.1-.14.1h0Z"/>
            <path class="cls-2" d="m144.17,72.95c-.09,0-.2-.06-.24-.14-.02-.04-.04-.09.01-.17l15.09-26.13c.05-.09.1-.1.14-.1.09,0,.2.06.24.14.02.04.04.09-.01.17l-15.09,26.13c-.05.09-.1.1-.14.1h0Z"/>
            <path class="cls-2" d="m162.61,41.01c-.09,0-.2-.06-.24-.14-.02-.04-.04-.09.01-.17l3.35-5.81c.05-.09.1-.1.14-.1.09,0,.2.06.24.14.02.04.04.09-.01.17l-3.35,5.81c-.05.09-.1.1-.14.1Z"/>
          </g>
          <g>
            <path class="cls-2" d="m122.21,94.85c-.14,0-.21-.06-.21-.19v-20.12c0-.13.07-.19.21-.19s.21.06.21.19v20.12c0,.1-.03.13-.05.14-.04.03-.1.05-.16.05Z"/>
            <path class="cls-2" d="m122.21,67.06c-.14,0-.21-.06-.21-.19v-30.18c0-.13.07-.19.21-.19s.21.06.21.19v30.18c0,.1-.03.13-.05.14-.04.03-.1.05-.16.05Z"/>
            <path class="cls-2" d="m122.21,30.18c-.14,0-.21-.06-.21-.19v-6.71c0-.13.07-.19.21-.19s.21.06.21.19v6.71c0,.1-.03.13-.05.14-.04.03-.1.05-.16.05h0Z"/>
          </g>
          <g>
            <path class="cls-2" d="m114.15,97.01s-.09-.01-.14-.1l-10.06-17.42c-.05-.09-.04-.13-.01-.17.04-.08.15-.14.24-.14.04,0,.09.01.14.1l10.06,17.42c.05.09.04.13.01.17-.04.08-.15.14-.24.14h0Z"/>
            <path class="cls-2" d="m100.25,72.95s-.09-.01-.14-.1l-15.09-26.13c-.05-.09-.04-.13-.01-.17.04-.08.15-.14.24-.14.04,0,.09.01.14.1l15.09,26.13c.05.09.04.13.01.17-.04.08-.15.14-.24.14h0Z"/>
            <path class="cls-2" d="m81.81,41.01s-.09-.01-.14-.1l-3.35-5.81c-.05-.09-.04-.13-.01-.17.05-.08.15-.14.24-.14.04,0,.09.01.14.1l3.35,5.81c.05.09.04.13.01.17-.05.08-.15.14-.24.14h0Z"/>
          </g>
          <g>
            <path class="cls-2" d="m108.31,102.9s-.06-.01-.1-.03l-17.42-10.06c-.07-.04-.12-.09-.09-.2.03-.11.12-.2.2-.2.03,0,.06.01.1.03l17.42,10.06c.07.04.12.09.09.2-.03.11-.12.2-.2.2h0Z"/>
            <path class="cls-2" d="m84.25,89.01s-.06-.01-.1-.03l-26.13-15.09c-.07-.04-.12-.09-.09-.2.03-.11.12-.2.2-.2.03,0,.06.01.1.03l26.13,15.09c.07.04.12.09.09.2-.03.11-.12.2-.2.2Z"/>
            <path class="cls-2" d="m52.31,70.57s-.06-.01-.1-.03l-5.81-3.35c-.07-.04-.12-.09-.09-.2.03-.11.12-.2.2-.2.03,0,.06.01.1.03l5.81,3.35c.07.04.12.09.09.2-.03.11-.12.2-.2.2h0Z"/>
          </g>
        </g>
      </g>
      <polygon class="cls-3" points="62.18 157.87 31.3 166.39 62.18 177.17 62.18 157.87"/>
      <g>
        <polygon class="cls-1" points="53.5 130.28 188.25 103.24 188.25 62.28 181.11 51.54 46.36 78.57 46.36 119.54 53.5 130.28"/>
        <polygon class="cls-4" points="181.11 92.5 46.36 119.54 46.36 78.57 181.11 51.54 181.11 92.5"/>
      </g>
      <g>
        <polygon class="cls-6" points="31.3 166.39 201.44 139.76 201.44 98.8 196.17 92.35 31.3 125.42 31.3 166.39 31.3 166.39"/>
        <polygon class="cls-5" points="196.17 133.31 31.3 166.39 31.3 125.42 196.17 92.35 196.17 133.31"/>
      </g>
    </g>
  </g>
  <g id="Layer_3" data-name="Layer 3">
    <g>
      <path class="cls-2" d="m59.21,89.14l3.98-.78-.06.41c-.11.74-.37,1.42-.79,2.05s-.93,1.15-1.54,1.57c-.61.41-1.27.69-1.98.83-1.05.21-1.94.02-2.51-.48-.57-.5-.83-1.39-.66-2.49.11-.74.37-1.42.79-2.05.41-.63.92-1.15,1.53-1.57s1.27-.69,1.98-.83c.78-.15,1.44-.11,1.99.14s.91.68,1.1,1.27l-2.23,1.41c-.14-.5-.59-.72-1.19-.61-.41.08-.78.28-1.09.61-.32.33-.51.72-.58,1.17-.07.45,0,.78.25,1,.23.22.55.29.96.21.46-.09.94-.48,1.29-.95l-1.42.28.18-1.19Z"/>
      <path class="cls-2" d="m68.22,84.27l2.34-.46-.6,3.92c-.17,1.11-.57,2-1.21,2.69-.65.69-1.46,1.13-2.44,1.33s-1.71.05-2.18-.42-.62-1.26-.45-2.36l.6-3.92,2.34-.46-.62,4.07c-.11.69.11.98.65.87s.85-.5.95-1.19l.63-4.08Z"/>
      <path class="cls-2" d="m75.48,87.72l.94,1.94-2.34.46-.73-1.59-.49.1-.27,1.78-2.34.46,1.1-7.22,3.09-.61c1-.2,1.71-.1,2.15.28.43.39.59,1,.46,1.84-.16,1.05-.7,1.95-1.57,2.56Zm-2.09-2.62l-.25,1.62.51-.1c.58-.11.99-.52,1.06-1,.07-.48-.23-.74-.82-.63l-.51.1Z"/>
      <path class="cls-2" d="m81.8,81.59l2.34-.46-.6,3.92c-.17,1.11-.57,2-1.21,2.69-.65.69-1.46,1.13-2.44,1.33s-1.71.05-2.18-.42-.62-1.26-.45-2.36l.6-3.92,2.34-.46-.62,4.07c-.11.69.11.98.65.87s.85-.5.95-1.19l.63-4.08Z"/>
      <path class="cls-2" d="m89.16,80.15l2.33-.46-1.11,7.22-2.34.46.37-2.45-1.88.37-.37,2.45-2.34.46,1.1-7.22,2.33-.46-.44,2.87,1.89-.37.44-2.87Z"/>
      <path class="cls-2" d="m95.08,82.08l3.98-.78-.06.41c-.11.74-.37,1.42-.79,2.05s-.93,1.15-1.54,1.57c-.61.41-1.27.69-1.98.83-1.05.21-1.94.02-2.51-.48-.57-.5-.83-1.39-.66-2.49.11-.74.37-1.42.79-2.05.41-.63.92-1.15,1.53-1.57s1.27-.69,1.98-.83c.78-.15,1.44-.11,1.99.14s.91.68,1.1,1.27l-2.23,1.41c-.14-.5-.59-.72-1.19-.61-.41.08-.78.28-1.09.61-.32.33-.51.72-.58,1.17-.07.45,0,.78.25,1,.23.22.55.29.96.21.46-.09.94-.48,1.29-.95l-1.42.28.18-1.19Z"/>
      <path class="cls-2" d="m103.22,84.38l-.09-.86-2.14.42-.36.95-2.44.48,2.97-7.59,3.72-.73.77,6.85-2.44.48Zm-1.45-2.44l1.18-.23-.23-2.24-.95,2.47Z"/>
      <path class="cls-2" d="m109.55,82.26c-.57-.5-.83-1.39-.66-2.49.11-.74.37-1.42.79-2.05.41-.63.92-1.15,1.53-1.57s1.27-.69,1.98-.83c1.05-.21,1.94-.03,2.51.48.56.51.82,1.39.66,2.49-.11.74-.37,1.42-.79,2.05s-.93,1.15-1.54,1.57c-.61.41-1.27.69-1.98.83-1.05.21-1.94.02-2.51-.48Zm2.84-1.73c.41-.08.77-.28,1.09-.62s.51-.72.58-1.16-.02-.78-.25-1.01c-.23-.22-.55-.29-.96-.21s-.78.28-1.09.61c-.32.33-.51.72-.58,1.17-.07.45,0,.78.25,1,.23.22.55.29.96.21Z"/>
      <path class="cls-2" d="m119.3,76.64l-2.29.45,1.13-2.95,1.99-.39-.83,2.89Z"/>
      <path class="cls-2" d="m126.1,72.87l-.3,1.91-3.16,3.92,2.64-.52-.29,1.91-5.32,1.05.29-1.91,3.16-3.92-2.63.52.29-1.91,5.32-1.05Z"/>
      <path class="cls-2" d="m133.56,71.41l2.49-.49-2.82,7.56-3.62.71-.62-6.88,2.49-.49.29,4.73,1.8-5.14Z"/>
      <path class="cls-2" d="m139.27,77.29l-.09-.86-2.14.42-.36.95-2.44.48,2.97-7.59,3.72-.73.77,6.85-2.44.48Zm-1.45-2.44l1.18-.23-.23-2.24-.95,2.47Z"/>
      <path class="cls-2" d="m148.82,69.28c.56.51.82,1.39.66,2.49-.1.67-.33,1.3-.68,1.88l.48.48-1.79,1.91-.52-.53c-.56.35-1.16.59-1.78.71-1.05.21-1.94.02-2.51-.48-.57-.5-.83-1.39-.66-2.49.11-.74.37-1.42.79-2.05.41-.63.92-1.15,1.53-1.57s1.27-.69,1.98-.83c1.05-.21,1.94-.03,2.51.48Zm-4.27,4.51c.23.22.55.29.96.21s.77-.28,1.09-.62.51-.72.58-1.16-.02-.78-.25-1.01c-.23-.22-.55-.29-.96-.21s-.78.28-1.09.61c-.32.33-.51.72-.58,1.17-.07.45,0,.78.25,1Z"/>
      <path class="cls-2" d="m155.79,67.03l-.29,1.91-1.62.32-.81,5.31-2.34.46.81-5.31-1.62.32.29-1.91,5.57-1.1Z"/>
      <path class="cls-2" d="m156.39,66.91l2.34-.46-1.1,7.22-2.34.46,1.1-7.22Z"/>
      <path class="cls-2" d="m162.85,65.64c2.1-.44,3.33.79,2.98,2.92-.17,1.08-.62,2.01-1.37,2.8s-1.65,1.29-2.72,1.5l-3.33.66,1.1-7.22,3.33-.66Zm-1.11,5.37c.42-.08.8-.31,1.14-.68.34-.36.54-.8.62-1.32.08-.53,0-.92-.23-1.17-.24-.24-.57-.32-1-.24l-.69.14-.52,3.4.69-.14Z"/>
      <path class="cls-2" d="m170.05,71.23l-.09-.86-2.14.42-.36.95-2.44.48,2.97-7.59,3.72-.73.77,6.85-2.44.48Zm-1.45-2.44l1.18-.23-.23-2.24-.95,2.47Z"/>
      <path class="cls-2" d="m60.55,102.67l.94,1.94-2.34.46-.73-1.59-.49.1-.27,1.78-2.34.46,1.1-7.22,3.09-.61c1-.2,1.71-.1,2.15.28.43.39.59,1,.46,1.84-.16,1.05-.7,1.95-1.57,2.56Zm-2.09-2.62l-.25,1.62.51-.1c.58-.11.99-.52,1.06-1,.07-.48-.23-.74-.82-.63l-.51.1Z"/>
      <path class="cls-2" d="m63.04,103.42c-.57-.5-.83-1.39-.66-2.49.11-.74.37-1.42.79-2.05.41-.63.92-1.15,1.53-1.57s1.27-.69,1.98-.83c1.05-.21,1.94-.03,2.51.48.56.51.82,1.39.66,2.49-.11.74-.37,1.42-.79,2.05s-.93,1.15-1.54,1.57c-.61.41-1.27.69-1.98.83-1.05.21-1.94.02-2.51-.48Zm2.84-1.73c.41-.08.77-.28,1.09-.62s.51-.72.58-1.16-.02-.78-.25-1.01c-.23-.22-.55-.29-.96-.21s-.78.28-1.09.61c-.32.33-.51.72-.58,1.17-.07.45,0,.78.25,1,.23.22.55.29.96.21Z"/>
      <path class="cls-2" d="m72.8,97.8l-2.29.45,1.13-2.95,1.99-.39-.83,2.89Z"/>
      <path class="cls-2" d="m78.55,94.24l2.58-.51-3.24,5.54-.33,2.17-2.34.46.33-2.16-1.69-4.57,2.59-.51.65,2.41,1.44-2.82Z"/>
      <path class="cls-2" d="m88.4,92.3l-2.5,3.99,1.39,3.23-2.54.5-.78-1.86-1.41,2.29-2.54.5,2.5-3.99-1.39-3.23,2.54-.5.78,1.86,1.41-2.29,2.54-.5Z"/>
      <path class="cls-2" d="m92.57,98.48l-.09-.86-2.14.42-.36.95-2.44.48,2.97-7.59,3.72-.73.77,6.85-2.44.48Zm-1.45-2.44l1.18-.23-.23-2.24-.95,2.47Z"/>
      <path class="cls-2" d="m101.13,89.79l-.29,1.91-1.62.32-.81,5.31-2.34.46.81-5.31-1.62.32.29-1.91,5.57-1.1Z"/>
      <path class="cls-2" d="m105.05,89.02c2.1-.44,3.33.79,2.98,2.92-.17,1.08-.62,2.01-1.37,2.8s-1.65,1.29-2.72,1.5l-3.33.66,1.1-7.22,3.33-.66Zm-1.11,5.37c.42-.08.8-.31,1.14-.68.34-.36.54-.8.62-1.32.08-.53,0-.92-.23-1.17-.24-.24-.57-.32-1-.24l-.69.14-.52,3.4.69-.14Z"/>
      <path class="cls-2" d="m112.25,94.61l-.09-.86-2.14.42-.36.95-2.44.48,2.97-7.59,3.72-.73.77,6.85-2.44.48Zm-1.45-2.44l1.18-.23-.23-2.24-.95,2.47Z"/>
      <path class="cls-2" d="m120.11,86.06l2.34-.46-1.12,7.32-3.51-1.92-.4,2.59-2.34.46,1.12-7.32,3.51,1.92.4-2.59Z"/>
      <path class="cls-2" d="m125.64,91.09c-.57-.5-.83-1.39-.66-2.49.11-.74.37-1.42.79-2.05.41-.63.92-1.15,1.53-1.57s1.27-.69,1.98-.83c1.05-.21,1.94-.03,2.51.48.56.51.82,1.39.66,2.49-.11.74-.37,1.42-.79,2.05s-.93,1.15-1.54,1.57c-.61.41-1.27.69-1.98.83-1.05.21-1.94.02-2.51-.48Zm2.84-1.73c.41-.08.77-.28,1.09-.62s.51-.72.58-1.16-.02-.78-.25-1.01c-.23-.22-.55-.29-.96-.21s-.78.28-1.09.61c-.32.33-.51.72-.58,1.17-.07.45,0,.78.25,1,.23.22.55.29.96.21Z"/>
      <path class="cls-2" d="m135.39,85.48l-2.29.45,1.13-2.95,1.99-.39-.83,2.89Z"/>
      <path class="cls-2" d="m142.24,81.7l-.29,1.91-1.62.32-.81,5.31-2.34.46.81-5.31-1.62.32.29-1.91,5.57-1.1Z"/>
      <path class="cls-2" d="m142.83,81.58l2.34-.46-1.1,7.22-2.34.46,1.1-7.22Z"/>
      <path class="cls-2" d="m149.89,80.2l2.34-.46-1.12,7.32-3.51-1.92-.4,2.59-2.34.46,1.12-7.32,3.51,1.92.4-2.59Z"/>
      <path class="cls-2" d="m155.81,82.13l3.98-.78-.06.41c-.11.74-.37,1.42-.79,2.05s-.93,1.15-1.54,1.57c-.61.41-1.27.69-1.98.83-1.05.21-1.94.02-2.51-.48-.57-.5-.83-1.39-.66-2.49.11-.74.37-1.42.79-2.05.41-.63.92-1.15,1.53-1.57s1.27-.69,1.98-.83c.78-.15,1.44-.11,1.99.14s.91.68,1.1,1.27l-2.23,1.41c-.14-.5-.59-.72-1.19-.61-.41.08-.78.28-1.09.61-.32.33-.51.72-.58,1.17-.07.45,0,.78.25,1,.23.22.55.29.96.21.46-.09.94-.48,1.29-.95l-1.42.28.18-1.19Z"/>
      <path class="cls-2" d="m167.54,76.72l2.49-.49-2.82,7.56-3.62.71-.62-6.88,2.49-.49.29,4.73,1.8-5.14Z"/>
      <path class="cls-2" d="m173.25,82.6l-.09-.86-2.14.42-.36.95-2.44.48,2.97-7.59,3.72-.73.77,6.85-2.44.48Zm-1.45-2.44l1.18-.23-.23-2.24-.95,2.47Z"/>
      <path class="cls-2" d="m43,136.51l1.93.59c-.38.71-.91,1.31-1.57,1.79s-1.38.8-2.15.96c-1.05.21-1.94.02-2.51-.48-.57-.5-.83-1.39-.66-2.49.11-.74.37-1.42.79-2.05.41-.63.92-1.15,1.53-1.57s1.27-.69,1.98-.83c.78-.15,1.44-.11,1.99.14s.91.68,1.1,1.27l-2.23,1.41c-.14-.5-.59-.72-1.19-.61-.41.08-.78.28-1.09.61-.32.33-.51.72-.58,1.17-.07.45,0,.78.24,1,.23.22.55.29.97.21.6-.12,1.16-.54,1.46-1.13Z"/>
      <path class="cls-2" d="m50.45,130.93l2.33-.46-1.11,7.22-2.34.46.37-2.45-1.88.37-.37,2.45-2.34.46,1.1-7.22,2.33-.46-.44,2.87,1.89-.37.44-2.87Z"/>
      <path class="cls-2" d="m53.57,130.32l5.15-1.01-.29,1.91-2.81.55-.12.75,2.51-.49-.3,1.91-2.51.49-.11.74,2.96-.58-.29,1.91-5.29,1.04,1.1-7.22Z"/>
      <path class="cls-2" d="m65.04,128.06l-.29,1.91-1.62.32-.81,5.31-2.34.46.81-5.31-1.62.32.29-1.91,5.57-1.1Z"/>
      <path class="cls-2" d="m68.12,127.46l5.15-1.01-.29,1.91-2.81.55-.12.75,2.51-.49-.3,1.91-2.51.49-.11.74,2.96-.58-.29,1.91-5.29,1.04,1.1-7.22Z"/>
      <path class="cls-2" d="m73.11,133.48l1.1-7.22,2.34-.46-.82,5.31,2.37-.47-.29,1.91-4.7.93Z"/>
      <path class="cls-2" d="m83.03,124.52c2.1-.44,3.33.79,2.98,2.92-.17,1.08-.62,2.01-1.37,2.8s-1.65,1.29-2.72,1.5l-3.33.66,1.1-7.22,3.33-.66Zm-1.11,5.37c.42-.08.8-.31,1.14-.68.34-.36.54-.8.62-1.32.08-.53,0-.92-.23-1.17-.24-.24-.57-.32-1-.24l-.69.14-.52,3.4.69-.14Z"/>
      <path class="cls-2" d="m90.23,130.11l-.09-.86-2.14.42-.36.95-2.44.48,2.97-7.59,3.72-.73.77,6.85-2.44.48Zm-1.45-2.44l1.18-.23-.23-2.24-.95,2.47Z"/>
      <path class="cls-2" d="m102.03,120.78l-.29,1.91-1.62.32-.81,5.31-2.34.46.81-5.31-1.62.32.29-1.91,5.57-1.1Z"/>
      <path class="cls-2" d="m105.39,127.12l-.09-.86-2.14.42-.36.95-2.44.48,2.97-7.59,3.72-.73.77,6.85-2.44.48Zm-1.45-2.44l1.18-.23-.23-2.24-.95,2.47Z"/>
      <path class="cls-2" d="m109.04,119.4l2.29-.45-1.13,2.96-1.99.39.83-2.9Z"/>
      <path class="cls-2" d="m110.91,126.04l1.1-7.22,2.34-.46-.82,5.31,2.37-.47-.29,1.91-4.7.93Z"/>
      <path class="cls-2" d="m117.51,117.73l2.34-.46-1.1,7.22-2.34.46,1.1-7.22Z"/>
      <path class="cls-2" d="m128.68,115.44l-1.12,7.32-2.34.46.44-2.87-1.87,1.62-1.48-.96-.44,2.87-2.34.46,1.12-7.32,3.56,2.16,4.46-3.74Z"/>
      <path class="cls-2" d="m131.85,121.04c-.57-.5-.83-1.39-.66-2.49.11-.74.37-1.42.79-2.05.41-.63.92-1.15,1.53-1.57s1.27-.69,1.98-.83c1.05-.21,1.94-.03,2.51.48.56.51.82,1.39.66,2.49-.11.74-.37,1.42-.79,2.05s-.93,1.15-1.54,1.57c-.61.41-1.27.69-1.98.83-1.05.21-1.94.02-2.51-.48Zm2.84-1.73c.41-.08.77-.28,1.09-.62s.51-.72.58-1.16-.02-.78-.25-1.01c-.23-.22-.55-.29-.96-.21s-.78.28-1.09.61c-.32.33-.51.72-.58,1.17-.07.45,0,.78.25,1,.23.22.55.29.96.21Z"/>
      <path class="cls-2" d="m138.69,120.57l1.1-7.22,2.34-.46-.82,5.31,2.37-.47-.29,1.91-4.7.93Z"/>
      <path class="cls-2" d="m145.29,112.26l2.34-.46-1.1,7.22-2.34.46,1.1-7.22Z"/>
      <path class="cls-2" d="m151.32,113.34c.05-.39-.09-.54-.43-.47-.34.07-.52.21-.57.43-.02.14.15.23.29.26.07.02.15.03.25.04.52.05.93.11,1.24.17.3.06.58.16.84.29.51.26.66.69.55,1.37-.12.78-.48,1.42-1.07,1.93s-1.36.86-2.3,1.05-1.65.12-2.12-.19c-.47-.31-.64-.87-.52-1.67l2.36-.62c-.06.44.14.62.56.53s.67-.26.71-.52c.02-.16-.09-.27-.32-.34-.23-.07-.43-.1-.73-.14-.2-.02-.36-.05-.49-.06s-.27-.04-.42-.07c-.16-.03-.28-.06-.37-.09-.18-.06-.42-.17-.53-.29s-.23-.3-.26-.51-.04-.47.01-.8c.07-.47.26-.89.56-1.26.31-.37.68-.67,1.12-.89.44-.22.93-.39,1.49-.5,1.13-.22,1.94-.08,2.33.52.2.3.26.7.18,1.2l-2.37.61Z"/>
      <path class="cls-2" d="m159.06,109.55l2.33-.46-1.11,7.22-2.34.46.37-2.45-1.88.37-.37,2.45-2.34.46,1.1-7.22,2.33-.46-.44,2.87,1.89-.37.44-2.87Z"/>
      <path class="cls-2" d="m38.79,145.23l2.34-.46-1.1,7.22-2.34.46,1.1-7.22Z"/>
      <path class="cls-2" d="m49.96,142.94l-1.12,7.32-2.34.46.44-2.87-1.87,1.62-1.48-.96-.44,2.87-2.34.46,1.12-7.32,3.56,2.16,4.46-3.74Z"/>
      <path class="cls-2" d="m57.06,141.64l-2.51,3.38,1.4,3.85-2.43.48-.7-2-.62.84-.22,1.47-2.34.46,1.1-7.22,2.34-.46-.37,2.45,1.91-2.76,2.44-.48Z"/>
      <path class="cls-2" d="m56.86,147.8c-.57-.5-.83-1.39-.66-2.49.11-.74.37-1.42.79-2.05.41-.63.92-1.15,1.53-1.57s1.27-.69,1.98-.83c1.05-.21,1.94-.03,2.51.48.56.51.82,1.39.66,2.49-.11.74-.37,1.42-.79,2.05s-.93,1.15-1.54,1.57c-.61.41-1.27.69-1.98.83-1.05.21-1.94.02-2.51-.48Zm2.84-1.73c.41-.08.77-.28,1.09-.62s.51-.72.58-1.16-.02-.78-.25-1.01c-.23-.22-.55-.29-.96-.21s-.78.28-1.09.61c-.32.33-.51.72-.58,1.17-.07.45,0,.78.25,1,.23.22.55.29.96.21Z"/>
      <path class="cls-2" d="m68.73,139.34l2.34-.46-1.12,7.32-3.51-1.92-.4,2.59-2.34.46,1.12-7.32,3.51,1.92.4-2.59Z"/>
      <path class="cls-2" d="m71.86,138.72l2.34-.46-1.1,7.22-2.34.46,1.1-7.22Z"/>
      <path class="cls-2" d="m79.27,137.26l2.58-.51-3.24,5.54-.33,2.17-2.34.46.33-2.16-1.69-4.57,2.59-.51.65,2.41,1.44-2.82Z"/>
      <path class="cls-2" d="m84.83,143.18l-.09-.86-2.14.42-.36.95-2.44.48,2.97-7.59,3.72-.73.77,6.85-2.44.48Zm-1.45-2.44l1.18-.23-.23-2.24-.95,2.47Z"/>
      <path class="cls-2" d="m93.4,134.48l-.29,1.91-1.62.32-.81,5.31-2.34.46.81-5.31-1.62.32.29-1.91,5.57-1.1Z"/>
      <path class="cls-2" d="m93.99,134.37l2.34-.46-1.1,7.22-2.34.46,1.1-7.22Z"/>
      <path class="cls-2" d="m101.04,132.98l2.34-.46-1.12,7.32-3.51-1.92-.4,2.59-2.34.46,1.12-7.32,3.51,1.92.4-2.59Z"/>
      <path class="cls-2" d="m104.17,132.36l2.34-.46-1.1,7.22-2.34.46,1.1-7.22Z"/>
      <path class="cls-2" d="m115.85,130.94c.56.51.82,1.39.66,2.49-.1.67-.33,1.3-.68,1.88l.48.48-1.79,1.91-.52-.53c-.56.35-1.16.59-1.78.71-1.05.21-1.94.02-2.51-.48-.57-.5-.83-1.39-.66-2.49.11-.74.37-1.42.79-2.05.41-.63.92-1.15,1.53-1.57s1.27-.69,1.98-.83c1.05-.21,1.94-.03,2.51.48Zm-4.27,4.51c.23.22.55.29.96.21s.77-.28,1.09-.62.51-.72.58-1.16-.02-.78-.25-1.01c-.23-.22-.55-.29-.96-.21s-.78.28-1.09.61c-.32.33-.51.72-.58,1.17-.07.45,0,.78.25,1Z"/>
      <path class="cls-2" d="m117.51,135.86c-.57-.5-.83-1.39-.66-2.49.11-.74.37-1.42.79-2.05.41-.63.92-1.15,1.53-1.57s1.27-.69,1.98-.83c1.05-.21,1.94-.03,2.51.48.56.51.82,1.39.66,2.49-.11.74-.37,1.42-.79,2.05s-.93,1.15-1.54,1.57c-.61.41-1.27.69-1.98.83-1.05.21-1.94.02-2.51-.48Zm2.84-1.73c.41-.08.77-.28,1.09-.62s.51-.72.58-1.16-.02-.78-.25-1.01c-.23-.22-.55-.29-.96-.21s-.78.28-1.09.61c-.32.33-.51.72-.58,1.17-.07.45,0,.78.25,1,.23.22.55.29.96.21Z"/>
      <path class="cls-2" d="m127.26,130.25l-2.29.45,1.13-2.95,1.99-.39-.83,2.89Z"/>
      <path class="cls-2" d="m127.64,134.75l1.1-7.22,2.34-.46-.82,5.31,2.37-.47-.29,1.91-4.7.93Z"/>
      <path class="cls-2" d="m136.63,129.08l3.98-.78-.06.41c-.11.74-.37,1.42-.79,2.05s-.93,1.15-1.54,1.57c-.61.41-1.27.69-1.98.83-1.05.21-1.94.02-2.51-.48-.57-.5-.83-1.39-.66-2.49.11-.74.37-1.42.79-2.05.41-.63.92-1.15,1.53-1.57s1.27-.69,1.98-.83c.78-.15,1.44-.11,1.99.14s.91.68,1.1,1.27l-2.23,1.41c-.14-.5-.59-.72-1.19-.61-.41.08-.78.28-1.09.61-.32.33-.51.72-.58,1.17-.07.45,0,.78.25,1,.23.22.55.29.96.21.46-.09.94-.48,1.29-.95l-1.42.28.18-1.19Z"/>
      <path class="cls-2" d="m144.77,131.38l-.09-.86-2.14.42-.36.95-2.44.48,2.97-7.59,3.72-.73.77,6.85-2.44.48Zm-1.45-2.44l1.18-.23-.23-2.24-.95,2.47Z"/>
      <path class="cls-2" d="m157.51,121.86l-2.51,3.38,1.4,3.85-2.43.48-.7-2-.62.84-.22,1.47-2.34.46,1.1-7.22,2.34-.46-.37,2.45,1.91-2.76,2.44-.48Z"/>
      <path class="cls-2" d="m157.91,121.79l2.34-.46-1.1,7.22-2.34.46,1.1-7.22Z"/>
      <path class="cls-2" d="m165.17,125.24l.94,1.94-2.34.46-.73-1.59-.49.1-.27,1.78-2.34.46,1.1-7.22,3.09-.61c1-.2,1.71-.1,2.15.28.43.39.59,1,.46,1.84-.16,1.05-.7,1.95-1.57,2.56Zm-2.09-2.62l-.25,1.62.51-.1c.58-.11.99-.52,1.06-1,.07-.48-.23-.74-.82-.63l-.51.1Z"/>
      <path class="cls-2" d="m167.8,119.84l2.34-.46-1.1,7.22-2.34.46,1.1-7.22Z"/>
      <path class="cls-2" d="m176.31,118.16l-.29,1.91-1.62.32-.81,5.31-2.34.46.81-5.31-1.62.32.29-1.91,5.57-1.1Z"/>
      <path class="cls-2" d="m176.9,118.05l2.34-.46-1.1,7.22-2.34.46,1.1-7.22Z"/>
      <path class="cls-2" d="m183.95,116.66l2.34-.46-1.12,7.32-3.51-1.92-.4,2.59-2.34.46,1.12-7.32,3.51,1.92.4-2.59Z"/>
      <path class="cls-2" d="m189.88,118.59l3.98-.78-.06.41c-.11.74-.37,1.42-.79,2.05s-.93,1.15-1.54,1.57c-.61.41-1.27.69-1.98.83-1.05.21-1.94.02-2.51-.48-.57-.5-.83-1.39-.66-2.49.11-.74.37-1.42.79-2.05.41-.63.92-1.15,1.53-1.57s1.27-.69,1.98-.83c.78-.15,1.44-.11,1.99.14s.91.68,1.1,1.27l-2.23,1.41c-.14-.5-.59-.72-1.19-.61-.41.08-.78.28-1.09.61-.32.33-.51.72-.58,1.17-.07.45,0,.78.25,1,.23.22.55.29.96.21.46-.09.94-.48,1.29-.95l-1.42.28.18-1.19Z"/>
    </g>
  </g>
</svg>