<?xml version="1.0" encoding="utf-8"?>
<svg viewBox="0 0 500 500" xmlns="http://www.w3.org/2000/svg">
  <defs/>
  <g transform="matrix(0.101413, 0.004939, 0.004485, -0.092102, -175.310866, -370.381254)" fill="#000000" stroke="none" style="transform-origin: 411.958px 575.388px;">
    <path d="M650 1111 c-165 -53 -360 -198 -436 -323 -81 -133 -124 -317 -104&#10;-444 26 -163 110 -264 250 -300 75 -19 124 -13 207 27 109 52 160 152 150 290&#10;-10 131 -52 186 -195 258 -85 43 -132 83 -132 113 0 62 97 175 219 257 97 66&#10;114 82 109 108 -4 20 -31 26 -68 14z" style="stroke-linecap: round; stroke: rgb(108, 206, 64); paint-order: fill markers; stroke-width: 68.75px; stroke-linejoin: round;"/>
  </g>
</svg>