<?xml version="1.0" encoding="UTF-8"?>
<svg xmlns="http://www.w3.org/2000/svg" width="3.28in" height="2.93in" viewBox="0 0 236.5 211.07">
  <defs>
    <style>
      .cls-1 {
        fill: #f27900;
      }

      .cls-1, .cls-2, .cls-3, .cls-4, .cls-5, .cls-6 {
        stroke-width: 0px;
      }

      .cls-3 {
        fill: #ccc;
      }

      .cls-4 {
        fill: #ffc800;
      }

      .cls-5 {
        fill: #fff;
      }

      .cls-6 {
        fill: #b5b5b5;
      }
    </style>
  </defs>
  <g id="Layer_1" data-name="Layer 1">
    <g>
      <g>
        <g>
          <g>
            <path class="cls-2" d="m107.45,96.18s-.06,0-.12-.06l-39.29-39.29c-.06-.06-.08-.12-.05-.19.04-.1.14-.18.23-.18.02,0,.06,0,.12.06l39.29,39.29c.06.06.08.12.05.19-.04.1-.14.18-.23.18h0Z"/>
            <path class="cls-2" d="m61.38,50.12s-.06,0-.12-.06l-12.53-12.53c-.06-.06-.08-.12-.05-.19.04-.1.15-.18.23-.18.02,0,.06,0,.12.06l12.53,12.53c.06.06.08.12.05.19-.04.1-.14.18-.23.18h0Z"/>
          </g>
          <g>
            <path class="cls-2" d="m102.1,105.53s-.04,0-.07-.01l-53.67-14.38c-.05-.01-.16-.04-.14-.21,0-.06.05-.21.18-.21.02,0,.04,0,.07.01l53.67,14.38c.05.01.16.04.14.21,0,.06-.05.21-.18.21h0Z"/>
            <path class="cls-2" d="m39.18,88.67s-.04,0-.07-.01l-17.12-4.59c-.05-.01-.16-.04-.14-.21,0-.06.05-.21.18-.21.02,0,.04,0,.07.01l17.12,4.59c.05.01.16.04.14.21,0,.06-.05.21-.18.21h0Z"/>
          </g>
          <g>
            <path class="cls-2" d="m48.4,130.69c-.12,0-.17-.15-.17-.21-.02-.17.08-.2.14-.21l53.67-14.38s.05-.01.07-.01c.12,0,.17.15.18.21.02.17-.08.2-.14.21l-53.67,14.38s-.05.01-.07.01Z"/>
            <path class="cls-2" d="m22.03,137.76c-.12,0-.17-.15-.18-.21-.02-.17.08-.2.14-.21l17.12-4.59s.05-.01.07-.01c.12,0,.17.15.18.21.02.17-.08.2-.14.21l-17.12,4.59s-.05.01-.07.01Z"/>
          </g>
          <g>
            <path class="cls-2" d="m68.22,164.94c-.08,0-.19-.08-.23-.18-.03-.07-.02-.12.05-.19l39.29-39.29c.06-.06.11-.06.12-.06.08,0,.19.08.23.18.03.07.02.12-.05.19l-39.29,39.29c-.06.06-.11.06-.12.06Z"/>
            <path class="cls-2" d="m48.91,184.25c-.08,0-.19-.08-.23-.18-.03-.07-.02-.12.05-.19l12.53-12.53c.06-.06.11-.06.12-.06.08,0,.19.08.23.18.03.07.02.12-.05.19l-12.53,12.53c-.06.06-.11.06-.12.06h0Z"/>
          </g>
          <g>
            <path class="cls-2" d="m102.47,184.7c-.09,0-.18-.04-.22-.1-.01-.02-.04-.06-.02-.15l14.38-53.67c.02-.08.06-.14.17-.14.09,0,.18.04.22.1.01.02.04.05.02.15l-14.38,53.67c-.02.08-.06.14-.17.14Z"/>
            <path class="cls-2" d="m95.4,211.07c-.09,0-.18-.04-.22-.1-.01-.02-.04-.05-.02-.15l4.59-17.12c.02-.08.06-.14.17-.14.09,0,.18.04.22.1.01.02.04.05.02.15l-4.59,17.12c-.02.08-.06.14-.17.14Z"/>
          </g>
          <g>
            <path class="cls-2" d="m141.95,184.7c-.11,0-.15-.06-.17-.14l-14.38-53.67c-.03-.1,0-.14.02-.15.04-.06.14-.1.22-.1.11,0,.15.06.17.14l14.38,53.67c.03.1,0,.14-.02.15-.04.06-.14.1-.22.1Z"/>
            <path class="cls-2" d="m149.02,211.07c-.11,0-.15-.06-.17-.14l-4.59-17.12c-.03-.1,0-.14.02-.15.04-.06.14-.1.22-.1.11,0,.15.06.17.14l4.59,17.12c.03.1,0,.14-.02.15-.04.06-.14.1-.22.1h0Z"/>
          </g>
          <g>
            <path class="cls-2" d="m176.21,164.94s-.06,0-.12-.06l-39.29-39.29c-.06-.06-.08-.12-.05-.19.04-.1.14-.18.23-.18.02,0,.06,0,.12.06l39.29,39.29c.06.06.08.12.05.19-.04.1-.14.18-.23.18h0Z"/>
            <path class="cls-2" d="m195.51,184.25s-.06,0-.12-.06l-12.53-12.53c-.06-.06-.08-.12-.05-.19.04-.1.15-.18.23-.18.02,0,.06,0,.12.06l12.53,12.53c.06.06.08.12.05.19-.04.1-.14.18-.23.18h0Z"/>
          </g>
          <g>
            <path class="cls-2" d="m196.03,130.69s-.04,0-.07-.01l-53.67-14.38c-.05-.01-.16-.04-.14-.21,0-.06.05-.21.18-.21.02,0,.04,0,.07.01l53.67,14.38c.05.01.16.04.14.21,0,.06-.05.21-.18.21h0Z"/>
            <path class="cls-2" d="m222.4,137.76s-.04,0-.07-.01l-17.12-4.59c-.05-.01-.16-.04-.14-.21,0-.06.05-.21.18-.21.02,0,.04,0,.07.01l17.12,4.59c.05.01.16.04.14.21,0,.06-.05.21-.18.21h0Z"/>
          </g>
          <g>
            <path class="cls-2" d="m142.32,105.53c-.12,0-.17-.15-.18-.21-.02-.17.08-.2.14-.21l53.67-14.38s.05-.01.07-.01c.12,0,.17.15.17.21.02.17-.08.2-.14.21l-53.67,14.38s-.05.01-.07.01Z"/>
            <path class="cls-2" d="m205.25,88.67c-.12,0-.17-.15-.18-.21-.02-.17.08-.2.14-.21l17.12-4.59s.05-.01.07-.01c.12,0,.17.15.18.21.02.17-.08.2-.14.21l-17.12,4.59s-.05.01-.07.01h0Z"/>
          </g>
          <g>
            <path class="cls-2" d="m136.98,96.18c-.08,0-.19-.08-.23-.18-.03-.07-.02-.12.05-.19l39.29-39.29c.06-.06.11-.06.12-.06.08,0,.19.08.23.18.03.07.02.12-.05.19l-39.29,39.29c-.06.06-.1.06-.12.06h0Z"/>
            <path class="cls-2" d="m183.04,50.12c-.08,0-.19-.08-.23-.18-.03-.07-.02-.12.05-.19l12.53-12.53c.06-.06.11-.06.12-.06.08,0,.19.08.23.18.03.07.02.12-.05.19l-12.53,12.53c-.06.06-.11.06-.12.06h0Z"/>
          </g>
          <g>
            <path class="cls-2" d="m127.64,90.77c-.09,0-.18-.04-.22-.1-.01-.02-.04-.05-.02-.15l14.38-53.67c.02-.08.06-.14.17-.14.09,0,.18.04.22.1.01.02.04.05.02.15l-14.38,53.67c-.02.08-.06.14-.17.14h0Z"/>
            <path class="cls-2" d="m144.5,27.85c-.09,0-.18-.04-.22-.1-.01-.02-.04-.05-.02-.15l4.59-17.12c.02-.08.06-.14.17-.14.09,0,.18.04.22.1.01.02.04.05.02.15l-4.59,17.12c-.02.08-.06.14-.17.14Z"/>
          </g>
          <g>
            <path class="cls-2" d="m116.79,90.77c-.11,0-.15-.06-.17-.14l-14.38-53.67c-.03-.1,0-.14.02-.15.04-.06.14-.1.22-.1.11,0,.15.06.17.14l14.38,53.67c.03.1,0,.14-.02.15-.04.06-.14.1-.22.1Z"/>
            <path class="cls-2" d="m99.93,27.85c-.11,0-.15-.06-.17-.14l-4.59-17.12c-.03-.1,0-.14.02-.15.04-.06.14-.1.22-.1.11,0,.15.06.17.14l4.59,17.12c.03.1,0,.14-.02.15-.04.06-.14.1-.22.1h0Z"/>
          </g>
        </g>
        <g>
          <g>
            <path class="cls-2" d="m86.05,110.92c-.13,0-.19-.07-.19-.21s.06-.21.19-.21h20.12c.13,0,.19.07.19.21s-.06.21-.19.21h-20.12Z"/>
            <path class="cls-2" d="m48.21,110.92c-.13,0-.19-.07-.19-.21s.06-.21.19-.21h30.18c.13,0,.19.07.19.21s-.06.21-.19.21h-30.18Z"/>
            <path class="cls-2" d="m34.79,110.92c-.13,0-.19-.07-.19-.21s.06-.21.19-.21h6.71c.13,0,.19.07.19.21s-.06.21-.19.21h-6.71Z"/>
          </g>
          <g>
            <path class="cls-2" d="m90.9,129c-.08,0-.17-.09-.2-.2-.03-.11.01-.16.09-.2l17.42-10.06s.07-.03.1-.03c.08,0,.17.09.2.2.03.11-.01.16-.09.2l-17.42,10.06s-.07.03-.1.03Z"/>
            <path class="cls-2" d="m58.12,147.93c-.08,0-.17-.09-.2-.2-.03-.11.01-.16.09-.2l26.13-15.09s.07-.03.1-.03c.08,0,.17.09.2.2.03.11-.01.16-.09.2l-26.13,15.09s-.07.03-.1.03h0Z"/>
            <path class="cls-2" d="m46.51,154.63c-.08,0-.17-.09-.2-.2-.03-.11.01-.16.09-.2l5.81-3.35s.07-.03.1-.03c.08,0,.17.09.2.2.03.11-.01.16-.09.2l-5.81,3.35s-.07.03-.1.03Z"/>
          </g>
          <g>
            <path class="cls-2" d="m104.17,142.23c-.09,0-.2-.06-.24-.14-.02-.04-.04-.09.01-.17l10.06-17.42c.05-.09.1-.1.14-.1.09,0,.2.06.24.14.02.04.04.09-.01.17l-10.06,17.42c-.05.09-.1.1-.14.1Z"/>
            <path class="cls-2" d="m85.25,175c-.09,0-.2-.06-.24-.14-.02-.04-.04-.09.01-.17l15.09-26.13c.05-.09.1-.1.14-.1.09,0,.2.06.24.14.02.04.04.09-.01.17l-15.09,26.13c-.05.09-.1.1-.14.1h0Z"/>
            <path class="cls-2" d="m78.55,186.61c-.09,0-.2-.06-.24-.14-.02-.04-.04-.09.01-.17l3.35-5.81c.05-.09.1-.1.14-.1.09,0,.2.06.24.14.02.04.04.09-.01.17l-3.35,5.81c-.05.09-.1.1-.14.1h0Z"/>
          </g>
          <g>
            <path class="cls-2" d="m122.21,147.06c-.14,0-.21-.06-.21-.19v-20.12c0-.13.07-.19.21-.19s.21.06.21.19v20.12c0,.1-.03.13-.05.14-.04.03-.1.05-.16.05Z"/>
            <path class="cls-2" d="m122.21,184.9c-.14,0-.21-.06-.21-.19v-30.18c0-.13.07-.19.21-.19s.21.06.21.19v30.18c0,.1-.03.13-.05.14-.04.03-.1.05-.16.05h0Z"/>
            <path class="cls-2" d="m122.21,198.31c-.14,0-.21-.06-.21-.19v-6.71c0-.13.07-.19.21-.19s.21.06.21.19v6.71c0,.1-.03.13-.05.14-.04.03-.1.05-.16.05Z"/>
          </g>
          <g>
            <path class="cls-2" d="m140.25,142.23s-.09-.01-.14-.1l-10.06-17.42c-.05-.09-.04-.13-.01-.17.04-.08.15-.14.24-.14.04,0,.09.01.14.1l10.06,17.42c.05.09.04.13.01.17-.04.08-.15.14-.24.14h0Z"/>
            <path class="cls-2" d="m159.17,175s-.09-.01-.14-.1l-15.09-26.13c-.05-.09-.04-.13-.01-.17.04-.08.15-.14.24-.14.04,0,.09.01.14.1l15.09,26.13c.05.09.04.13.01.17-.04.08-.15.14-.24.14h0Z"/>
            <path class="cls-2" d="m165.88,186.61s-.09-.01-.14-.1l-3.35-5.81c-.05-.09-.04-.13-.01-.17.05-.08.15-.14.24-.14.04,0,.09.01.14.1l3.35,5.81c.05.09.04.13.01.17-.05.08-.15.14-.24.14h0Z"/>
          </g>
          <g>
            <path class="cls-2" d="m153.53,129s-.06-.01-.1-.03l-17.42-10.06c-.07-.04-.12-.09-.09-.2.03-.11.12-.2.2-.2.03,0,.06.01.1.03l17.42,10.06c.07.04.12.09.09.2-.03.11-.12.2-.2.2Z"/>
            <path class="cls-2" d="m186.3,147.93s-.06-.01-.1-.03l-26.13-15.09c-.07-.04-.12-.09-.09-.2.03-.11.12-.2.2-.2.03,0,.06.01.1.03l26.13,15.09c.07.04.12.09.09.2-.03.11-.12.2-.2.2h0Z"/>
            <path class="cls-2" d="m197.91,154.63s-.06-.01-.1-.03l-5.81-3.35c-.07-.04-.12-.09-.09-.2.03-.11.12-.2.2-.2.03,0,.06.01.1.03l5.81,3.35c.07.04.12.09.09.2-.03.11-.12.2-.2.2h0Z"/>
          </g>
          <g>
            <path class="cls-2" d="m138.26,110.92c-.13,0-.19-.07-.19-.21s.06-.21.19-.21h20.12c.13,0,.19.07.19.21s-.06.21-.19.21h-20.12Z"/>
            <path class="cls-2" d="m166.04,110.92c-.13,0-.19-.07-.19-.21s.06-.21.19-.21h30.18c.13,0,.19.07.19.21s-.06.21-.19.21h-30.18Z"/>
            <path class="cls-2" d="m202.92,110.92c-.13,0-.19-.07-.19-.21s.06-.21.19-.21h6.71c.13,0,.19.07.19.21s-.06.21-.19.21h-6.71Z"/>
          </g>
          <g>
            <path class="cls-2" d="m136.11,102.9c-.08,0-.17-.09-.2-.2-.03-.11.01-.16.09-.2l17.42-10.06s.07-.03.1-.03c.08,0,.17.09.2.2.03.11-.01.16-.09.2l-17.42,10.06s-.07.03-.1.03Z"/>
            <path class="cls-2" d="m160.17,89.01c-.08,0-.17-.09-.2-.2-.03-.11.01-.16.09-.2l26.13-15.09s.07-.03.1-.03c.08,0,.17.09.2.2.03.11-.01.16-.09.2l-26.13,15.09s-.07.03-.1.03h0Z"/>
            <path class="cls-2" d="m192.11,70.57c-.08,0-.17-.09-.2-.2-.03-.11.01-.16.09-.2l5.81-3.35s.07-.03.1-.03c.08,0,.17.09.2.2.03.11-.01.16-.09.2l-5.81,3.35s-.07.03-.1.03h0Z"/>
          </g>
          <g>
            <path class="cls-2" d="m130.28,97.01c-.09,0-.2-.06-.24-.14-.02-.04-.04-.09.01-.17l10.06-17.42c.05-.09.1-.1.14-.1.09,0,.2.06.24.14.02.04.04.09-.01.17l-10.06,17.42c-.05.09-.1.1-.14.1h0Z"/>
            <path class="cls-2" d="m144.17,72.95c-.09,0-.2-.06-.24-.14-.02-.04-.04-.09.01-.17l15.09-26.13c.05-.09.1-.1.14-.1.09,0,.2.06.24.14.02.04.04.09-.01.17l-15.09,26.13c-.05.09-.1.1-.14.1h0Z"/>
            <path class="cls-2" d="m162.61,41.01c-.09,0-.2-.06-.24-.14-.02-.04-.04-.09.01-.17l3.35-5.81c.05-.09.1-.1.14-.1.09,0,.2.06.24.14.02.04.04.09-.01.17l-3.35,5.81c-.05.09-.1.1-.14.1Z"/>
          </g>
          <g>
            <path class="cls-2" d="m122.21,94.85c-.14,0-.21-.06-.21-.19v-20.12c0-.13.07-.19.21-.19s.21.06.21.19v20.12c0,.1-.03.13-.05.14-.04.03-.1.05-.16.05Z"/>
            <path class="cls-2" d="m122.21,67.06c-.14,0-.21-.06-.21-.19v-30.18c0-.13.07-.19.21-.19s.21.06.21.19v30.18c0,.1-.03.13-.05.14-.04.03-.1.05-.16.05Z"/>
            <path class="cls-2" d="m122.21,30.18c-.14,0-.21-.06-.21-.19v-6.71c0-.13.07-.19.21-.19s.21.06.21.19v6.71c0,.1-.03.13-.05.14-.04.03-.1.05-.16.05h0Z"/>
          </g>
          <g>
            <path class="cls-2" d="m114.15,97.01s-.09-.01-.14-.1l-10.06-17.42c-.05-.09-.04-.13-.01-.17.04-.08.15-.14.24-.14.04,0,.09.01.14.1l10.06,17.42c.05.09.04.13.01.17-.04.08-.15.14-.24.14h0Z"/>
            <path class="cls-2" d="m100.25,72.95s-.09-.01-.14-.1l-15.09-26.13c-.05-.09-.04-.13-.01-.17.04-.08.15-.14.24-.14.04,0,.09.01.14.1l15.09,26.13c.05.09.04.13.01.17-.04.08-.15.14-.24.14h0Z"/>
            <path class="cls-2" d="m81.81,41.01s-.09-.01-.14-.1l-3.35-5.81c-.05-.09-.04-.13-.01-.17.05-.08.15-.14.24-.14.04,0,.09.01.14.1l3.35,5.81c.05.09.04.13.01.17-.05.08-.15.14-.24.14h0Z"/>
          </g>
          <g>
            <path class="cls-2" d="m108.31,102.9s-.06-.01-.1-.03l-17.42-10.06c-.07-.04-.12-.09-.09-.2.03-.11.12-.2.2-.2.03,0,.06.01.1.03l17.42,10.06c.07.04.12.09.09.2-.03.11-.12.2-.2.2h0Z"/>
            <path class="cls-2" d="m84.25,89.01s-.06-.01-.1-.03l-26.13-15.09c-.07-.04-.12-.09-.09-.2.03-.11.12-.2.2-.2.03,0,.06.01.1.03l26.13,15.09c.07.04.12.09.09.2-.03.11-.12.2-.2.2Z"/>
            <path class="cls-2" d="m52.31,70.57s-.06-.01-.1-.03l-5.81-3.35c-.07-.04-.12-.09-.09-.2.03-.11.12-.2.2-.2.03,0,.06.01.1.03l5.81,3.35c.07.04.12.09.09.2-.03.11-.12.2-.2.2h0Z"/>
          </g>
        </g>
      </g>
      <polygon class="cls-3" points="62.18 157.87 31.3 166.39 62.18 177.17 62.18 157.87"/>
      <g>
        <polygon class="cls-1" points="53.5 130.28 188.25 103.24 188.25 62.28 181.11 51.54 46.36 78.57 46.36 119.54 53.5 130.28"/>
        <polygon class="cls-4" points="181.11 92.5 46.36 119.54 46.36 78.57 181.11 51.54 181.11 92.5"/>
      </g>
      <g>
        <polygon class="cls-6" points="31.3 166.39 201.44 139.76 201.44 98.8 196.17 92.35 31.3 125.42 31.3 166.39 31.3 166.39"/>
        <polygon class="cls-5" points="196.17 133.31 31.3 166.39 31.3 125.42 196.17 92.35 196.17 133.31"/>
      </g>
    </g>
  </g>
  <g id="Layer_4" data-name="Layer 4">
    <g>
      <path class="cls-2" d="m60.12,90.02c-.08.5.26.71.8.61.27-.05.5-.16.7-.34.2-.17.31-.38.35-.63.04-.25-.02-.42-.17-.53-.16-.1-.37-.13-.63-.07l-1.05.2.24-1.58,1.05-.2c.46-.09.84-.4.91-.83.06-.43-.24-.61-.69-.52s-.84.4-.91.83l-.06.34-2.26.44.06-.39c.11-.69.46-1.27,1.06-1.74.59-.47,1.37-.8,2.34-.99s1.69-.15,2.17.11.67.74.56,1.43c-.05.34-.18.66-.4.96s-.46.52-.73.64c.32.03.56.19.72.47.17.28.22.62.15,1.03-.12.76-.5,1.4-1.14,1.92-.65.52-1.48.88-2.51,1.08s-1.81.15-2.32-.14c-.52-.29-.72-.82-.61-1.58l.08-.51,2.35-.46-.05.46Z"/>
      <path class="cls-2" d="m69.08,90.53l-.09-.88-2.21.43-.37.97-2.53.49,3.08-7.81,3.85-.75.8,7.06-2.53.49Zm-1.5-2.52l1.22-.24-.24-2.31-.99,2.55Z"/>
      <path class="cls-2" d="m76.36,81.9c1.03-.2,1.78-.1,2.23.3.45.4.61,1.03.47,1.9s-.5,1.6-1.11,2.2-1.42,1.01-2.46,1.2l-.78.15-.28,1.84-2.42.47,1.14-7.44,3.21-.62Zm-.82,3.69c.6-.12,1.02-.53,1.1-1.02.08-.49-.24-.76-.85-.65l-.53.1-.26,1.67.53-.1Z"/>
      <path class="cls-2" d="m80.11,81.18l5.33-1.03-.3,1.97-2.91.56-.12.77,2.6-.5-.31,1.97-2.6.5-.12.77,3.06-.59-.3,1.97-5.48,1.06,1.14-7.44Z"/>
      <path class="cls-2" d="m90.9,79.09l-.3,1.97-2.05.4-.84,5.47-2.42.47,1.14-7.44,4.47-.87Z"/>
      <path class="cls-2" d="m93.93,78.5l-.41,2.67,4.48-3.56-1.16,7.54-2.42.47.41-2.67-4.49,3.56,1.16-7.54,2.42-.47Z"/>
      <path class="cls-2" d="m103.17,80.95l2,.61c-.4.73-.94,1.34-1.63,1.84s-1.43.82-2.23.98c-1.09.21-2.01.02-2.6-.5-.59-.52-.86-1.43-.68-2.57.12-.76.39-1.46.82-2.11.42-.65.95-1.19,1.58-1.61s1.32-.71,2.05-.85c.81-.16,1.49-.11,2.06.15s.95.7,1.14,1.31l-2.31,1.44c-.15-.52-.61-.75-1.23-.63-.43.08-.81.29-1.13.63-.33.34-.53.74-.6,1.2-.08.46.01.81.25,1.03.24.23.57.3,1,.22.62-.12,1.2-.55,1.51-1.16Z"/>
      <path class="cls-2" d="m112.13,74.98l-.3,1.97-1.68.32-.84,5.47-2.42.47.84-5.47-1.68.32.3-1.97,5.77-1.12Z"/>
      <path class="cls-2" d="m115.95,74.24c1.03-.2,1.78-.1,2.23.3.45.4.61,1.03.47,1.9s-.5,1.6-1.11,2.2-1.42,1.01-2.46,1.2l-.78.15-.28,1.84-2.42.47,1.14-7.44,3.21-.62Zm-.82,3.69c.6-.12,1.02-.53,1.1-1.02.08-.49-.24-.76-.85-.65l-.53.1-.26,1.67.53-.1Z"/>
      <path class="cls-2" d="m122.12,73.05l-.41,2.67,4.48-3.56-1.16,7.54-2.42.47.41-2.67-4.49,3.56,1.16-7.54,2.42-.47Z"/>
      <path class="cls-2" d="m130.21,71.48c1.03-.2,1.78-.1,2.23.3.45.4.61,1.03.47,1.9s-.5,1.6-1.11,2.2-1.42,1.01-2.46,1.2l-.78.15-.28,1.84-2.42.47,1.14-7.44,3.21-.62Zm-.82,3.69c.6-.12,1.02-.53,1.1-1.02.08-.49-.24-.76-.85-.65l-.53.1-.26,1.67.53-.1Z"/>
      <path class="cls-2" d="m137.67,70.04l2.48-.48-2.94,6.08c-.5,1.03-1.07,1.77-1.71,2.23-.65.46-1.46.7-2.44.74l.16-1.68c.45-.05.76-.13.94-.24.17-.11.26-.32.28-.62l-1.09-5.19,2.48-.48.36,3.53,1.49-3.89Z"/>
      <path class="cls-2" d="m142.97,69.01l-.41,2.67,4.48-3.56-1.16,7.54-2.42.47.41-2.67-4.49,3.56,1.16-7.54,2.42-.47Zm.81-2.56c-.05.31.07.44.32.39s.41-.23.46-.54l1.67-.32c-.2,1.3-.98,2.08-2.35,2.35s-1.96-.21-1.76-1.55l1.66-.32Z"/>
      <path class="cls-2" d="m153.42,66.99l-.3,1.97-1.68.32-.84,5.47-2.42.47.84-5.47-1.68.32.3-1.97,5.77-1.12Z"/>
      <path class="cls-2" d="m154.03,66.87l5.33-1.03-.3,1.97-2.91.56-.12.77,2.6-.5-.31,1.97-2.6.5-.12.77,3.06-.59-.3,1.97-5.48,1.06,1.14-7.44Z"/>
      <path class="cls-2" d="m164.44,69.09l2,.61c-.4.73-.94,1.34-1.63,1.84s-1.43.82-2.23.98c-1.09.21-2.01.02-2.6-.5-.59-.52-.86-1.43-.68-2.57.12-.76.39-1.46.82-2.11.42-.65.95-1.19,1.58-1.61s1.32-.71,2.05-.85c.81-.16,1.49-.11,2.06.15s.95.7,1.14,1.31l-2.31,1.44c-.15-.52-.61-.75-1.23-.63-.43.08-.81.29-1.13.63-.33.34-.53.74-.6,1.2-.08.46.01.81.25,1.03.24.23.57.3,1,.22.62-.12,1.2-.55,1.51-1.16Z"/>
      <path class="cls-2" d="m166.64,71.65l1.14-7.44,2.42-.47-.36,2.37.78-.15c1.04-.2,1.83-.08,2.25.28s.6.92.49,1.65c-.12.74-.47,1.4-1.08,1.97-.61.58-1.42.96-2.44,1.16l-3.21.62Zm2.89-3.57l-.18,1.14.53-.1c.64-.12,1-.34,1.06-.76.06-.41-.24-.5-.88-.38l-.53.1Z"/>
      <path class="cls-2" d="m64.09,100.67c.18.28.24.66.17,1.14-.18,1.27-1.35,2.31-2.6,2.53l-4.06.79,1.14-7.44,3.8-.74c.66-.13,1.17-.06,1.55.2s.52.71.42,1.33c-.14.9-.59,1.48-1.12,1.73.28.03.5.18.69.47Zm-2.65,1.85c.22-.04.4-.25.44-.51s-.09-.41-.31-.36l-1.12.22-.14.88,1.13-.22Zm-.57-3.39l-.14.88.87-.17c.22-.04.4-.25.45-.51.04-.26-.09-.41-.31-.36l-.87.17Z"/>
      <path class="cls-2" d="m72.75,94.97l-.3,1.97-2.05.4-.84,5.47-2.42.47,1.14-7.44,4.47-.87Z"/>
      <path class="cls-2" d="m76.57,94.23c1.03-.2,1.78-.1,2.23.3.45.4.61,1.03.47,1.9s-.5,1.6-1.11,2.2-1.42,1.01-2.46,1.2l-.78.15-.28,1.84-2.42.47,1.14-7.44,3.21-.62Zm-.82,3.69c.6-.12,1.02-.53,1.1-1.02.08-.49-.24-.76-.85-.65l-.53.1-.26,1.67.53-.1Z"/>
      <path class="cls-2" d="m84.02,92.79l2.48-.48-2.94,6.08c-.5,1.03-1.07,1.77-1.71,2.23-.65.46-1.46.7-2.44.74l.16-1.68c.45-.05.76-.13.94-.24.17-.11.26-.32.28-.62l-1.09-5.19,2.48-.48.36,3.53,1.49-3.89Z"/>
      <path class="cls-2" d="m93.39,90.97l-1.14,7.44-2.42.47.84-5.47-1.64.32-.84,5.47-2.42.47,1.14-7.44,6.48-1.25Z"/>
      <path class="cls-2" d="m100.69,89.56l-1.14,7.44-2.42.47.84-5.47-1.64.32-.84,5.47-2.42.47,1.14-7.44,6.48-1.25Z"/>
      <path class="cls-2" d="m105.43,88.64l2.48-.48-2.94,6.08c-.5,1.03-1.07,1.77-1.71,2.23-.65.46-1.46.7-2.44.74l.16-1.68c.45-.05.76-.13.94-.24.17-.11.26-.32.28-.62l-1.09-5.19,2.48-.48.36,3.53,1.49-3.89Z"/>
      <path class="cls-2" d="m116.24,90.58c.18.28.24.66.17,1.14-.18,1.27-1.35,2.31-2.6,2.53l-4.06.79,1.14-7.44,3.8-.74c.66-.13,1.17-.06,1.55.2s.52.71.42,1.33c-.14.9-.59,1.48-1.12,1.73.28.03.5.18.69.47Zm-2.65,1.85c.22-.04.4-.25.44-.51s-.09-.41-.31-.36l-1.12.22-.14.88,1.13-.22Zm-.57-3.39l-.14.88.87-.17c.22-.04.4-.25.45-.51.04-.26-.09-.41-.31-.36l-.87.17Z"/>
      <path class="cls-2" d="m117.54,92.61c-.59-.52-.86-1.43-.68-2.57.12-.76.39-1.46.82-2.11.42-.65.95-1.19,1.58-1.61s1.32-.71,2.05-.85c1.09-.21,2.01-.02,2.6.5.58.53.85,1.43.68,2.57-.12.76-.39,1.46-.82,2.11s-.96,1.19-1.59,1.61c-.63.42-1.32.71-2.05.85-1.09.21-2.01.02-2.6-.5Zm2.94-1.78c.42-.08.8-.29,1.13-.63s.53-.74.6-1.2-.02-.81-.26-1.04c-.24-.22-.57-.3-1-.21s-.81.29-1.13.63c-.33.34-.53.74-.6,1.2-.08.46.01.8.26,1.03.24.23.57.3,1,.22Z"/>
      <path class="cls-2" d="m131.12,87.7c.18.28.24.66.17,1.14-.18,1.27-1.35,2.31-2.6,2.53l-4.06.79,1.14-7.44,3.8-.74c.66-.13,1.17-.06,1.55.2s.52.71.42,1.33c-.14.9-.59,1.48-1.12,1.73.28.03.5.18.69.47Zm-2.65,1.85c.22-.04.4-.25.44-.51s-.09-.41-.31-.36l-1.12.22-.14.88,1.13-.22Zm-.57-3.39l-.14.88.87-.17c.22-.04.4-.25.45-.51.04-.26-.09-.41-.31-.36l-.87.17Z"/>
      <path class="cls-2" d="m135.94,82.74c1.03-.2,1.78-.1,2.23.3.45.4.61,1.03.47,1.9s-.5,1.6-1.11,2.2-1.42,1.01-2.46,1.2l-.78.15-.28,1.84-2.42.47,1.14-7.44,3.21-.62Zm-.82,3.69c.6-.12,1.02-.53,1.1-1.02.08-.49-.24-.76-.85-.65l-.53.1-.26,1.67.53-.1Z"/>
      <path class="cls-2" d="m139.68,82.02l5.33-1.03-.3,1.97-2.91.56-.12.77,2.6-.5-.31,1.97-2.6.5-.12.77,3.06-.59-.3,1.97-5.48,1.06,1.14-7.44Z"/>
      <path class="cls-2" d="m154.32,79.08l-1.16,7.54-2.43.47.45-2.96-1.93,1.66-1.53-.99-.45,2.96-2.42.47,1.16-7.54,3.68,2.24,4.62-3.84Z"/>
      <path class="cls-2" d="m161.3,77.83l-1.14,7.44-2.43.47.29-1.84-.51.1-1.32,2.04-2.42.47,1.66-2.51c-.77-.31-1.06-1.06-.9-2.14.14-.87.5-1.6,1.11-2.2.6-.6,1.42-1.01,2.46-1.2l3.21-.62Zm-2.98,4.1l.26-1.67-.53.1c-.6.12-1.02.53-1.1,1.02-.08.49.24.76.84.65l.53-.1Z"/>
      <path class="cls-2" d="m167.12,76.71l-.41,2.67,4.48-3.56-1.16,7.54-2.42.47.41-2.67-4.49,3.56,1.16-7.54,2.42-.47Z"/>
      <path class="cls-2" d="m44.29,132.85l-1.14,7.44-2.42.47.84-5.47-1.64.32-.84,5.47-2.42.47,1.14-7.44,6.48-1.25Z"/>
      <path class="cls-2" d="m45.02,139.02c-.59-.52-.86-1.43-.68-2.57.12-.76.39-1.46.82-2.11.42-.65.95-1.19,1.58-1.61s1.32-.71,2.05-.85c1.09-.21,2.01-.02,2.6.5.58.53.85,1.43.68,2.57-.12.76-.39,1.46-.82,2.11s-.96,1.19-1.59,1.61c-.63.42-1.32.71-2.05.85-1.09.21-2.01.02-2.6-.5Zm2.94-1.78c.42-.08.8-.29,1.13-.63s.53-.74.6-1.2-.02-.81-.26-1.04c-.24-.22-.57-.3-1-.21s-.81.29-1.13.63c-.33.34-.53.74-.6,1.2-.08.46.01.8.26,1.03.24.23.57.3,1,.22Z"/>
      <path class="cls-2" d="m53.37,133.16c.22-1.39,1.05-2.27,2.39-2.53l4.27-.83-1.15,7.44-2.42.47.84-5.47-1.02.2c-.4.08-.65.35-.71.76l-.37,2.42c-.13.85-.4,1.49-.81,1.94-.41.45-1.02.76-1.83.91l-1.17.23.3-1.97.71-.14c.31-.06.49-.27.54-.61l.43-2.82Z"/>
      <path class="cls-2" d="m64.76,128.89l2.48-.48-2.94,6.08c-.5,1.03-1.07,1.77-1.71,2.23-.65.46-1.46.7-2.44.74l.16-1.68c.45-.05.76-.13.94-.24.17-.11.26-.32.28-.62l-1.09-5.19,2.48-.48.36,3.53,1.49-3.89Z"/>
      <path class="cls-2" d="m73.88,127.13l-1.14,7.44-2.42.47.36-2.37-.78.15c-1.04.2-1.82.09-2.25-.28s-.61-.93-.49-1.64l.39-2.54,2.42-.47-.39,2.54c-.06.41.24.5.88.38l.53-.1.48-3.1,2.42-.47Z"/>
      <path class="cls-2" d="m77.02,126.52l-.41,2.67,4.48-3.56-1.16,7.54-2.42.47.41-2.67-4.49,3.56,1.16-7.54,2.42-.47Z"/>
      <path class="cls-2" d="m87.47,124.5l-.3,1.97-1.68.32-.84,5.47-2.42.47.84-5.47-1.68.32.3-1.97,5.77-1.12Z"/>
      <path class="cls-2" d="m88.09,124.38l5.33-1.03-.3,1.97-2.91.56-.12.77,2.6-.5-.31,1.97-2.6.5-.12.77,3.06-.59-.3,1.97-5.48,1.06,1.14-7.44Z"/>
      <path class="cls-2" d="m102.32,125.65c.18.28.24.66.17,1.14-.18,1.27-1.35,2.31-2.6,2.53l-4.06.79,1.14-7.44,3.8-.74c.66-.13,1.17-.06,1.55.2s.52.71.42,1.33c-.14.9-.59,1.48-1.12,1.73.28.03.5.18.69.47Zm-2.65,1.85c.22-.04.4-.25.44-.51s-.09-.41-.31-.36l-1.12.22-.14.88,1.13-.22Zm-.57-3.39l-.14.88.87-.17c.22-.04.4-.25.45-.51.04-.26-.09-.41-.31-.36l-.87.17Z"/>
      <path class="cls-2" d="m103.62,127.68c-.59-.52-.86-1.43-.68-2.57.12-.76.39-1.46.82-2.11.42-.65.95-1.19,1.58-1.61s1.32-.71,2.05-.85c1.09-.21,2.01-.02,2.6.5.58.53.85,1.43.68,2.57-.12.76-.39,1.46-.82,2.11s-.96,1.19-1.59,1.61c-.63.42-1.32.71-2.05.85-1.09.21-2.01.02-2.6-.5Zm2.94-1.78c.42-.08.8-.29,1.13-.63s.53-.74.6-1.2-.02-.81-.26-1.04c-.24-.22-.57-.3-1-.21s-.81.29-1.13.63c-.33.34-.53.74-.6,1.2-.08.46.01.8.26,1.03.24.23.57.3,1,.22Z"/>
      <path class="cls-2" d="m113.23,124.49c-.08.5.26.71.8.61.27-.05.5-.16.7-.34.2-.17.31-.38.35-.63.04-.25-.02-.42-.17-.53-.16-.1-.37-.13-.63-.07l-1.05.2.24-1.58,1.05-.2c.46-.09.84-.4.91-.83.06-.43-.24-.61-.69-.52s-.84.4-.91.83l-.06.34-2.26.44.06-.39c.11-.69.46-1.27,1.06-1.74.59-.47,1.37-.8,2.34-.99s1.69-.15,2.17.11.67.74.56,1.43c-.05.34-.18.66-.4.96s-.46.52-.73.64c.32.03.56.19.72.47.17.28.22.62.15,1.03-.12.76-.5,1.4-1.14,1.92-.65.52-1.48.88-2.51,1.08s-1.81.15-2.32-.14c-.52-.29-.72-.82-.61-1.58l.08-.51,2.35-.46-.05.46Z"/>
      <path class="cls-2" d="m127.17,116.72l-1.16,7.54-2.43.47.45-2.96-1.93,1.66-1.53-.99-.45,2.96-2.42.47,1.16-7.54,3.68,2.24,4.62-3.84Z"/>
      <path class="cls-2" d="m127.88,122.99c-.59-.52-.86-1.43-.68-2.57.12-.76.39-1.46.82-2.11.42-.65.95-1.19,1.58-1.61s1.32-.71,2.05-.85c1.09-.21,2.01-.02,2.6.5.58.53.85,1.43.68,2.57-.12.76-.39,1.46-.82,2.11s-.96,1.19-1.59,1.61c-.63.42-1.32.71-2.05.85-1.09.21-2.01.02-2.6-.5Zm2.94-1.78c.42-.08.8-.29,1.13-.63s.53-.74.6-1.2-.02-.81-.26-1.04c-.24-.22-.57-.3-1-.21s-.81.29-1.13.63c-.33.34-.53.74-.6,1.2-.08.46.01.8.26,1.03.24.23.57.3,1,.22Z"/>
      <path class="cls-2" d="m145.17,113.33l-2.24,4.04,1.09,3.4-2.42.47-.89-2.77-.46,3.03-2.42.47.46-3.03-1.82,3.29-2.42.47,2.23-4.04-1.09-3.4,2.43-.47.89,2.77.46-3.03,2.42-.47-.46,3.03,1.82-3.29,2.43-.47Z"/>
      <path class="cls-2" d="m149.95,112.41l2.42-.47-1.15,7.44-2.42.47.39-2.52-1.95.38-.39,2.52-2.42.47,1.14-7.44,2.42-.47-.45,2.95,1.96-.38.46-2.95Z"/>
      <path class="cls-2" d="m153.09,118.11c-.59-.52-.86-1.43-.68-2.57.12-.76.39-1.46.82-2.11.42-.65.95-1.19,1.58-1.61s1.32-.71,2.05-.85c1.09-.21,2.01-.02,2.6.5.58.53.85,1.43.68,2.57-.12.76-.39,1.46-.82,2.11s-.96,1.19-1.59,1.61c-.63.42-1.32.71-2.05.85-1.09.21-2.01.02-2.6-.5Zm2.94-1.78c.42-.08.8-.29,1.13-.63s.53-.74.6-1.2-.02-.81-.26-1.04c-.24-.22-.57-.3-1-.21s-.81.29-1.13.63c-.33.34-.53.74-.6,1.2-.08.46.01.8.26,1.03.24.23.57.3,1,.22Z"/>
      <path class="cls-2" d="m165.63,113.61l2,.61c-.4.73-.94,1.34-1.63,1.84s-1.43.82-2.23.98c-1.09.21-2.01.02-2.6-.5-.59-.52-.86-1.43-.68-2.57.12-.76.39-1.46.82-2.11.42-.65.95-1.19,1.58-1.61s1.32-.71,2.05-.85c.81-.16,1.49-.11,2.06.15s.95.7,1.14,1.31l-2.31,1.44c-.15-.52-.61-.75-1.23-.63-.43.08-.81.29-1.13.63-.33.34-.53.74-.6,1.2-.08.46.01.81.25,1.03.24.23.57.3,1,.22.62-.12,1.2-.55,1.51-1.16Z"/>
      <path class="cls-2" d="m174.59,107.64l-.3,1.97-1.68.32-.84,5.47-2.42.47.84-5.47-1.68.32.3-1.97,5.77-1.12Z"/>
      <path class="cls-2" d="m174.06,114.96l1.14-7.44,2.42-.47-.36,2.37.78-.15c1.04-.2,1.83-.08,2.25.28s.6.92.49,1.65c-.12.74-.47,1.4-1.08,1.97-.61.58-1.42.96-2.44,1.16l-3.21.62Zm2.89-3.57l-.18,1.14.53-.1c.64-.12,1-.34,1.06-.76.06-.41-.24-.5-.88-.38l-.53.1Z"/>
      <path class="cls-2" d="m41.72,145.72l2.48-.48-2.94,6.08c-.5,1.03-1.07,1.77-1.71,2.23-.65.46-1.46.7-2.44.74l.16-1.68c.45-.05.76-.13.94-.24.17-.11.26-.32.28-.62l-1.09-5.19,2.48-.48.36,3.53,1.49-3.89Z"/>
      <path class="cls-2" d="m50.84,143.95l-1.14,7.44-2.42.47.36-2.37-.78.15c-1.04.2-1.82.09-2.25-.28s-.61-.93-.49-1.64l.39-2.54,2.42-.47-.39,2.54c-.06.41.24.5.88.38l.53-.1.48-3.1,2.42-.47Z"/>
      <path class="cls-2" d="m53.98,143.34l-.41,2.67,4.48-3.56-1.16,7.54-2.42.47.41-2.67-4.49,3.56,1.16-7.54,2.42-.47Z"/>
      <path class="cls-2" d="m64.43,141.32l-.3,1.97-1.68.32-.84,5.47-2.42.47.84-5.47-1.68.32.3-1.97,5.77-1.12Z"/>
      <path class="cls-2" d="m63.9,148.64l1.14-7.44,2.42-.47-.36,2.37.78-.15c1.04-.2,1.83-.08,2.25.28s.6.92.49,1.65c-.12.74-.47,1.4-1.08,1.97-.61.58-1.42.96-2.44,1.16l-3.21.62Zm2.89-3.57l-.18,1.14.53-.1c.64-.12,1-.34,1.06-.76.06-.41-.24-.5-.88-.38l-.53.1Z"/>
      <path class="cls-2" d="m76.31,143.26l2,.61c-.4.73-.94,1.34-1.63,1.84s-1.43.82-2.23.98c-1.09.21-2.01.02-2.6-.5-.59-.52-.86-1.43-.68-2.57.12-.76.39-1.46.82-2.11.42-.65.95-1.19,1.58-1.61s1.32-.71,2.05-.85c.81-.16,1.49-.11,2.06.15s.95.7,1.14,1.31l-2.31,1.44c-.15-.52-.61-.75-1.23-.63-.43.08-.81.29-1.13.63-.33.34-.53.74-.6,1.2-.08.46.01.81.25,1.03.24.23.57.3,1,.22.62-.12,1.2-.55,1.51-1.16Z"/>
      <path class="cls-2" d="m85.93,137.16l-1.14,7.44-2.43.47.29-1.84-.51.1-1.32,2.04-2.42.47,1.66-2.51c-.77-.31-1.06-1.06-.9-2.14.14-.87.5-1.6,1.11-2.2.6-.6,1.42-1.01,2.46-1.2l3.21-.62Zm-2.98,4.1l.26-1.67-.53.1c-.6.12-1.02.53-1.1,1.02-.08.49.24.76.84.65l.53-.1Z"/>
      <path class="cls-2" d="m90.71,141.21c-.08.5.26.71.8.61.27-.05.5-.16.7-.34.2-.17.31-.38.35-.63.04-.25-.02-.42-.17-.53-.16-.1-.37-.13-.63-.07l-1.05.2.24-1.58,1.05-.2c.46-.09.84-.4.91-.83.06-.43-.24-.61-.69-.52s-.84.4-.91.83l-.06.34-2.26.44.06-.39c.11-.69.46-1.27,1.06-1.74.59-.47,1.37-.8,2.34-.99s1.69-.15,2.17.11.67.74.56,1.43c-.05.34-.18.66-.4.96s-.46.52-.73.64c.32.03.56.19.72.47.17.28.22.62.15,1.03-.12.76-.5,1.4-1.14,1.92-.65.52-1.48.88-2.51,1.08s-1.81.15-2.32-.14c-.52-.29-.72-.82-.61-1.58l.08-.51,2.35-.46-.05.46Z"/>
      <path class="cls-2" d="m99.66,141.72l-.09-.88-2.21.43-.37.97-2.53.49,3.08-7.81,3.85-.75.8,7.06-2.53.49Zm-1.5-2.52l1.22-.24-.24-2.31-.99,2.55Z"/>
      <path class="cls-2" d="m110.79,132.35l-.3,1.97-2.05.4-.84,5.47-2.42.47,1.14-7.44,4.47-.87Z"/>
      <path class="cls-2" d="m114.61,131.61c1.03-.2,1.78-.1,2.23.3.45.4.61,1.03.47,1.9s-.5,1.6-1.11,2.2-1.42,1.01-2.46,1.2l-.78.15-.28,1.84-2.42.47,1.14-7.44,3.21-.62Zm-.82,3.69c.6-.12,1.02-.53,1.1-1.02.08-.49-.24-.76-.85-.65l-.53.1-.26,1.67.53-.1Z"/>
      <path class="cls-2" d="m121.5,137.5l-.09-.88-2.21.43-.37.97-2.53.49,3.08-7.81,3.85-.75.8,7.06-2.53.49Zm-1.5-2.52l1.22-.24-.24-2.31-.99,2.55Z"/>
      <path class="cls-2" d="m129.95,128.64l2.42-.47-1.15,7.44-2.42.47.39-2.52-1.95.38-.39,2.52-2.42.47,1.14-7.44,2.42-.47-.45,2.95,1.96-.38.46-2.95Z"/>
      <path class="cls-2" d="m135.61,127.55l-.41,2.67,4.48-3.56-1.16,7.54-2.42.47.41-2.67-4.49,3.56,1.16-7.54,2.42-.47Z"/>
      <path class="cls-2" d="m146.14,130.82l.98-.19-.51,3.34-1.76.34.21-1.38-5.71,1.1,1.14-7.44,2.42-.47-.84,5.47,1.64-.32.84-5.47,2.42-.47-.84,5.47Z"/>
      <path class="cls-2" d="m148.78,125l5.33-1.03-.3,1.97-2.91.56-.12.77,2.6-.5-.31,1.97-2.6.5-.12.77,3.06-.59-.3,1.97-5.48,1.06,1.14-7.44Z"/>
      <path class="cls-2" d="m157.51,123.31l-.41,2.67,4.48-3.56-1.16,7.54-2.42.47.41-2.67-4.49,3.56,1.16-7.54,2.42-.47Zm.81-2.56c-.05.31.07.44.32.39s.41-.23.46-.54l1.67-.32c-.2,1.3-.98,2.08-2.35,2.35s-1.96-.21-1.76-1.55l1.66-.32Z"/>
    </g>
  </g>
</svg>