<svg width="24" height="24" viewBox="0 0 24 24" fill="none" xmlns="http://www.w3.org/2000/svg">
<path d="M18 3H6C3.79086 3 2 4.79086 2 7V18C2 20.2091 3.79086 22 6 22H9C9.55229 22 10 22.4477 10 23C10 23.5523 9.55229 24 9 24H6C2.68629 24 0 21.3137 0 18V7C0 3.68629 2.68629 1 6 1H18C21.3137 1 24 3.68629 24 7V9C24 9.55229 23.5523 10 23 10C22.4477 10 22 9.55229 22 9V7C22 4.79086 20.2091 3 18 3Z" fill="#055CCF"/>
<path fill-rule="evenodd" clip-rule="evenodd" d="M24 9H0V7H24V9Z" fill="#055CCF"/>
<path fill-rule="evenodd" clip-rule="evenodd" d="M8 0C6.89543 0 6 0.895431 6 2C6 3.10457 6.89543 4 8 4C9.10457 4 10 3.10457 10 2C10 0.895431 9.10457 0 8 0Z" fill="#055CCF"/>
<path fill-rule="evenodd" clip-rule="evenodd" d="M16 0C14.8954 0 14 0.895431 14 2C14 3.10457 14.8954 4 16 4C17.1046 4 18 3.10457 18 2C18 0.895431 17.1046 0 16 0Z" fill="#055CCF"/>
<path fill-rule="evenodd" clip-rule="evenodd" d="M17 22C19.7614 22 22 19.7614 22 17C22 14.2386 19.7614 12 17 12C14.2386 12 12 14.2386 12 17C12 19.7614 14.2386 22 17 22ZM17 24C20.866 24 24 20.866 24 17C24 13.134 20.866 10 17 10C13.134 10 10 13.134 10 17C10 20.866 13.134 24 17 24Z" fill="#055CCF"/>
<path fill-rule="evenodd" clip-rule="evenodd" d="M19.7071 15.2929C20.0976 15.6834 20.0976 16.3166 19.7071 16.7071L17.4142 19H15C14.4477 19 14 18.5523 14 18C14 17.4477 14.4477 17 15 17H16.5858L18.2929 15.2929C18.6834 14.9024 19.3166 14.9024 19.7071 15.2929Z" fill="#055CCF"/>
</svg>
