<svg width="24" height="24" viewBox="0 0 24 24" fill="none" xmlns="http://www.w3.org/2000/svg">
<path fill-rule="evenodd" clip-rule="evenodd" d="M6.76972 16L7.01529 17.7168C7.119 18.4419 7.74605 19 8.5 19C9.32843 19 10 18.3284 10 17.5L10 8.5C10 7.67157 9.32843 7 8.5 7C7.74605 7 7.119 7.55815 7.01529 8.2832L6.76972 10H4C2.89543 10 2 10.8954 2 12L2 14C2 15.1046 2.89543 16 4 16H6.76972ZM5.03544 18H4C1.79086 18 0 16.2091 0 14L0 12C0 9.79086 1.79086 8 4 8H5.03544C5.27806 6.30385 6.73676 5 8.5 5C10.433 5 12 6.567 12 8.5L12 17.5C12 19.433 10.433 21 8.5 21C6.73676 21 5.27806 19.6961 5.03544 18Z" fill="#6cce40"/>
<path fill-rule="evenodd" clip-rule="evenodd" d="M15.6363 9.29289C16.0268 8.90237 16.66 8.90237 17.0505 9.29289L19.1717 11.4142L21.293 9.29289C21.6835 8.90237 22.3167 8.90237 22.7072 9.29289C23.0977 9.68342 23.0977 10.3166 22.7072 10.7071L20.586 12.8284L22.7073 14.9497C23.0979 15.3403 23.0979 15.9734 22.7073 16.364C22.3168 16.7545 21.6836 16.7545 21.2931 16.364L19.1717 14.2426L17.0504 16.364C16.6598 16.7545 16.0267 16.7545 15.6362 16.364C15.2456 15.9734 15.2456 15.3403 15.6362 14.9497L17.7575 12.8284L15.6363 10.7071C15.2457 10.3166 15.2457 9.68342 15.6363 9.29289Z" fill="#6cce40"/>
</svg>
