<svg width="24" height="24" viewBox="0 0 24 24" fill="none" xmlns="http://www.w3.org/2000/svg">
<path fill-rule="evenodd" clip-rule="evenodd" d="M6.76972 16L7.01529 17.7168C7.119 18.4419 7.74605 19 8.5 19C9.32843 19 10 18.3284 10 17.5L10 8.5C10 7.67157 9.32843 7 8.5 7C7.74605 7 7.119 7.55815 7.01529 8.2832L6.76972 10H4C2.89543 10 2 10.8954 2 12L2 14C2 15.1046 2.89543 16 4 16H6.76972ZM22.353 9.24719C22.4064 9.3761 22.4565 9.50616 22.5034 9.63726C22.8317 10.555 23 11.5233 23 12.5C23 13.6162 22.7801 14.7215 22.353 15.7528C21.9258 16.7841 21.2997 17.7211 20.5104 18.5104C19.7211 19.2997 18.7841 19.9258 17.7528 20.353C17.6239 20.4064 17.4938 20.4565 17.3627 20.5034C16.445 20.8317 15.4767 21 14.5 21C13.9477 21 13.5 20.5523 13.5 20C13.5 19.8825 13.5203 19.7698 13.5575 19.6651C13.5694 19.6314 13.5832 19.5985 13.5986 19.5665C13.76 19.2313 14.103 19 14.5 19C14.5533 19 14.6067 18.9993 14.6599 18.998C15.459 18.9784 16.2481 18.8115 16.9874 18.5052C17.7761 18.1786 18.4926 17.6998 19.0962 17.0962C19.6998 16.4926 20.1786 15.7761 20.5052 14.9874C20.546 14.8889 20.5844 14.7894 20.6203 14.6892C20.8713 13.9874 21 13.2469 21 12.5C21 11.7531 20.8713 11.0126 20.6203 10.3108C20.5844 10.2106 20.546 10.1111 20.5052 10.0126C20.4848 9.96327 20.4638 9.91426 20.4422 9.86555C20.1236 9.14699 19.6772 8.49185 19.1244 7.93218C19.115 7.92269 19.1056 7.91324 19.0962 7.90381C18.4926 7.30022 17.7761 6.82144 16.9874 6.49478C16.1988 6.16813 15.3536 6 14.5 6C13.9477 6 13.5 5.55228 13.5 5C13.5 4.44772 13.9477 4 14.5 4C15.6162 4 16.7215 4.21986 17.7528 4.64702C18.7841 5.07419 19.7211 5.70029 20.5104 6.48959C20.6091 6.58825 20.7052 6.68922 20.7987 6.7924C21.4531 7.51462 21.9792 8.34483 22.353 9.24719ZM11.7025 18.9143C11.7223 18.8694 11.7413 18.824 11.7593 18.7781C11.8969 18.4274 11.9796 18.0492 11.9967 17.6539C11.9989 17.6029 12 17.5516 12 17.5L12 8.5C12 8.17227 11.955 7.85507 11.8707 7.55424C11.4581 6.0807 10.1053 5 8.5 5C6.73676 5 5.27806 6.30385 5.03544 8H4C1.79086 8 0 9.79086 0 12L0 14C0 16.2091 1.79086 18 4 18H5.03544C5.27806 19.6961 6.73676 21 8.5 21C9.92968 21 11.1592 20.1428 11.7025 18.9143ZM13.9884 8.14058C13.8418 8.22807 13.7194 8.35206 13.6338 8.5C13.5487 8.64709 13.5 8.81786 13.5 9C13.5 9.37014 13.7011 9.69331 14 9.86622C14.1471 9.9513 14.3179 10 14.5 10C14.8283 10 15.1534 10.0647 15.4567 10.1903C15.76 10.3159 16.0356 10.5001 16.2678 10.7322C16.4854 10.9499 16.6609 11.2057 16.7855 11.4867C16.7938 11.5055 16.8018 11.5243 16.8097 11.5433C16.9353 11.8466 17 12.1717 17 12.5C17 12.8283 16.9353 13.1534 16.8097 13.4567C16.6998 13.7221 16.545 13.9663 16.3526 14.1787C16.3251 14.2091 16.2968 14.2387 16.2678 14.2678C16.0501 14.4854 15.7943 14.6609 15.5132 14.7855C15.4945 14.7938 15.4757 14.8018 15.4567 14.8097C15.1534 14.9353 14.8283 15 14.5 15C14.3179 15 14.1471 15.0487 14 15.1338C13.7011 15.3067 13.5 15.6299 13.5 16C13.5 16.3701 13.7011 16.6933 14 16.8662C14.1471 16.9513 14.3179 17 14.5 17C14.5369 17 14.5738 16.9995 14.6107 16.9986C15.0902 16.9868 15.5644 16.8985 16.0156 16.7371C16.085 16.7123 16.1538 16.6857 16.2221 16.6575C16.768 16.4313 17.2641 16.0998 17.682 15.682C17.7342 15.6297 17.7851 15.5763 17.8346 15.5217C18.1811 15.1393 18.4596 14.6998 18.6575 14.2221C18.6857 14.1538 18.7123 14.085 18.7371 14.0156C18.9109 13.5297 19 13.0171 19 12.5C19 11.9829 18.9109 11.4703 18.7371 10.9844C18.7123 10.915 18.6857 10.8462 18.6575 10.7779C18.6433 10.7438 18.6288 10.7099 18.6138 10.6761C18.3895 10.1703 18.0737 9.70977 17.682 9.31802C17.6297 9.26579 17.5763 9.2149 17.5217 9.16541C17.1666 8.84368 16.7623 8.58055 16.3239 8.38617C16.2901 8.37122 16.2562 8.35668 16.2221 8.34254C16.1538 8.31427 16.085 8.28772 16.0156 8.2629C15.5297 8.08912 15.0171 8 14.5 8C14.3131 8 14.1381 8.0513 13.9884 8.14058Z" fill="#6cce40"/>
</svg>
