<svg width="32" height="32" viewBox="0 0 32 32" fill="none" xmlns="http://www.w3.org/2000/svg">
<path d="M30.6686 7.91377C22.5034 7.13842 22.6563 0 22.6563 0H17.3935V22.541C17.3413 23.4964 16.9876 24.4111 16.3826 25.155C15.7776 25.8989 14.9521 26.4341 14.0237 26.6845C13.0952 26.9349 12.111 26.8877 11.2111 26.5497C10.3112 26.2116 9.54131 25.5999 9.01105 24.8016C8.48078 24.0033 8.21711 23.0589 8.25753 22.103C8.29796 21.147 8.64042 20.228 9.23621 19.4768C9.832 18.7256 10.6508 18.1803 11.5761 17.9186C12.5014 17.6569 13.4861 17.6921 14.3901 18.0192L14.442 12.0662C12.4238 11.7256 10.3492 12.0037 8.49356 12.8634C6.63796 13.7232 5.08916 15.124 4.05278 16.8798C3.0164 18.6357 2.54147 20.6636 2.69104 22.6943C2.84061 24.7249 3.60761 26.6623 4.8902 28.2492C6.17279 29.8361 7.91031 30.9974 9.87208 31.579C11.8338 32.1606 13.927 32.1349 15.8738 31.5054C17.8205 30.8759 19.5287 29.6723 20.7716 28.0544C22.0145 26.4366 22.7332 24.481 22.8324 22.4473V10.707C22.8324 10.707 25.7253 13.1905 30.6672 13.2869L30.6686 7.91377Z" fill="white"/>
</svg>