<?xml version="1.0"?>
<svg xmlns="http://www.w3.org/2000/svg" width="200" height="26" viewBox="0 0 200 26" fill="none">
<path d="M25.3443 13.7638H39.3941V12.4427H25.3443V2.50275H40.3013V1.18164H23.8086V25.9998H40.4753V24.6787H25.3443V13.7638Z" fill="#110E00"/>
<path d="M59.2273 14.0589C58.4223 13.5612 57.5122 13.1678 56.499 12.877C55.4838 12.588 54.4405 12.3382 53.3672 12.1294C52.3182 11.9206 51.3462 11.7006 50.3198 11.4694C49.2934 11.2382 48.6535 10.9306 47.8597 10.5484C47.066 10.1662 46.4242 9.66284 45.9345 9.03643C45.4447 8.41001 45.1989 7.59902 45.1989 6.60347C45.1989 5.58368 45.4203 4.73168 45.8632 4.04933C46.306 3.36699 46.8727 2.82074 47.5595 2.41618C48.2482 2.01162 48.995 1.72637 49.7981 1.56418C50.6031 1.40198 51.0178 1.31995 51.7177 1.31995C52.8605 1.31995 53.6467 1.45418 54.615 1.71892C55.5833 1.98552 56.4164 2.38448 57.1163 2.91768C57.8162 3.45088 58.3698 4.11086 58.7789 4.89947C59.1861 5.68808 59.415 6.61466 59.4619 7.68105H61.0006C60.9312 6.3145 60.6384 5.1437 60.1262 4.17051C59.612 3.19733 58.9309 2.40313 58.0789 1.78976C57.227 1.17639 56.2363 0.723361 55.1048 0.43439C53.9732 0.145418 53.0238 0 51.7177 0C50.7382 0 50.0833 0.121182 49.0794 0.365409C48.0755 0.609637 47.173 0.991826 46.368 1.51197C45.563 2.03399 44.9099 2.71633 44.4089 3.56274C43.9079 4.40915 43.6565 5.42148 43.6565 6.60347C43.6565 7.78546 43.9023 8.75305 44.392 9.50624C44.8818 10.2594 45.5236 10.8747 46.3173 11.3482C47.1092 11.8236 48.0192 12.2002 49.0457 12.478C50.0721 12.7558 50.7739 13 51.8228 13.2088C52.8962 13.4176 53.9395 13.6432 54.9546 13.8874C55.9698 14.1317 56.8799 14.456 57.6849 14.8606C58.4899 15.267 59.1373 15.7984 59.627 16.4602C60.1168 17.1202 60.3626 17.9722 60.3626 19.0143C60.3626 20.1031 60.1224 21.0073 59.6458 21.7251C59.1673 22.4429 58.5724 23.0227 57.8613 23.4626C57.1501 23.9026 56.3676 24.2158 55.5176 24.4004C54.6657 24.5868 53.8663 24.6782 53.1213 24.6782C51.8847 24.6782 50.9765 24.5458 49.8563 24.2792C48.736 24.0126 47.7622 23.5782 46.9346 22.976C46.1071 22.3739 45.4597 21.6039 44.9925 20.6643C44.5253 19.7265 44.3282 18.5725 44.3977 17.2059H42.859C42.8346 18.8055 43.0973 20.1609 43.6471 21.272C44.195 22.3851 44.9475 23.2949 45.9045 24.0014C46.8615 24.708 47.9798 25.2188 49.2633 25.5302C50.5468 25.8434 51.6539 26 53.1232 26C54.0802 26 55.0766 25.8788 56.1143 25.6346C57.152 25.3904 58.0958 24.9914 58.9477 24.4358C59.7997 23.8803 60.5052 23.1625 61.0644 22.2807C61.6236 21.4007 61.905 20.3119 61.905 19.0125C61.905 17.8081 61.6592 16.8051 61.1695 16.0053C60.6797 15.2055 60.0323 14.5567 59.2273 14.0589Z" fill="#110E00"/>
<path d="M10.7143 13.7173L1.73907 1.18164H0L9.91379 15.0049V25.9998H11.4457V15.0049L21.4286 1.18164H19.725L10.7143 13.7173Z" fill="#110E00"/>
<path d="M67.0934 21.6873C67.8 20.8107 68.6526 19.9721 69.6512 19.1679C70.6498 18.3656 71.715 17.5576 72.847 16.7419C73.979 15.9263 75.0334 15.0515 76.0086 14.112C76.9837 13.1744 77.7912 12.13 78.4311 10.9828C79.071 9.83362 79.39 8.50722 79.39 7.00169C79.39 5.81632 79.199 4.78531 78.8186 3.90867C78.4365 3.03203 77.921 2.30404 77.2703 1.72279C76.6196 1.14344 75.8572 0.710841 74.9829 0.426886C74.1087 0.14293 73.1769 0 72.1909 0C69.8801 0 68.1137 0.735615 66.8916 2.20303C65.8353 3.47416 65.1846 5.35703 64.9413 7.85355C65.3198 7.85165 65.875 7.85165 66.1904 7.85546C66.2517 7.19988 66.3616 6.5748 66.522 5.98212C66.7798 5.03115 67.1673 4.20406 67.6829 3.50084C68.1984 2.79763 68.8491 2.24115 69.635 1.83332C70.419 1.42549 71.3383 1.22158 72.3946 1.22158C73.157 1.22158 73.8798 1.35689 74.5648 1.62941C75.2479 1.90193 75.8536 2.2907 76.3817 2.79572C76.908 3.30265 77.3298 3.90677 77.6434 4.60998C77.9571 5.3132 78.1139 6.09837 78.1139 6.96167C78.1139 8.04794 77.9228 9.01796 77.5425 9.86982C77.1604 10.7217 76.6502 11.5069 76.0122 12.2215C75.3723 12.9381 74.6495 13.6108 73.842 14.2397C73.0345 14.8686 72.2161 15.4937 71.3852 16.1111C70.5326 16.7286 69.698 17.3708 68.8779 18.0378C68.0596 18.7048 67.3188 19.4271 66.6572 20.2046C65.9957 20.9822 65.4514 21.8474 65.026 22.7965C64.5988 23.7474 64.3537 24.8146 64.2852 26H79.7614V24.5917H65.9002C65.9885 23.5321 66.3869 22.564 67.0934 21.6873Z" fill="#110E00"/>
<path d="M186.579 1.75911C186.579 1.23563 186.998 0.810188 187.512 0.810188H188.298C188.813 0.810188 189.231 1.23563 189.231 1.75911C189.231 2.28258 188.813 2.70802 188.298 2.70802H187.512C186.998 2.70802 186.579 2.28258 186.579 1.75911ZM187.365 5.55478C187.365 6.07826 187.783 6.5037 188.298 6.5037H190.229C190.744 6.5037 191.162 6.07826 191.162 5.55478C191.162 5.0313 190.744 4.60586 190.229 4.60586H188.298C187.783 4.60586 187.365 5.0313 187.365 5.55478ZM189.984 15.044C189.984 15.5674 190.402 15.9929 190.917 15.9929H195.041C195.556 15.9929 195.974 15.5674 195.974 15.044C195.974 14.5205 195.556 14.095 195.041 14.095H190.917C190.402 14.095 189.984 14.5205 189.984 15.044ZM190.606 11.2483C190.606 10.7248 190.188 10.2994 189.673 10.2994H188.396C187.882 10.2994 187.463 10.7248 187.463 11.2483C187.463 11.7718 187.882 12.1972 188.396 12.1972H189.673C190.188 12.1972 190.606 11.7718 190.606 11.2483ZM192.717 12.1972C193.232 12.1972 193.65 11.7718 193.65 11.2483C193.65 10.7248 193.232 10.2994 192.717 10.2994C192.203 10.2994 191.784 10.7248 191.784 11.2483C191.784 11.7718 192.203 12.1972 192.717 12.1972ZM191.784 20.7375C191.784 20.214 191.366 19.7886 190.851 19.7886H189.509C188.995 19.7886 188.576 20.214 188.576 20.7375C188.576 21.261 188.995 21.6864 189.509 21.6864H190.851C191.366 21.6864 191.784 21.261 191.784 20.7375ZM189.656 23.5842H185.859C185.346 23.5842 184.924 23.168 184.924 22.6464C184.924 22.1248 185.346 21.6864 185.859 21.6864H187.005C187.518 21.6864 187.927 21.2776 187.927 20.756C187.927 20.2343 187.52 19.7886 187.005 19.7886H174.566V15.9929H187.005C187.518 15.9929 187.927 15.5415 187.927 15.0199C187.927 14.4983 187.52 14.095 187.005 14.095C187.005 14.095 186.077 14.095 185.728 14.095H184.55C184.037 14.095 183.619 13.6511 183.619 13.1295C183.619 12.6079 184.037 12.1972 184.55 12.1972H185.335C185.848 12.1972 186.263 11.7607 186.263 11.239C186.263 10.7174 185.85 10.2994 185.335 10.2994H174.566V6.5037H185.663C186.176 6.5037 186.589 6.05791 186.589 5.53628C186.589 5.01466 186.176 4.60586 185.663 4.60586H181.473C180.96 4.60586 180.518 4.16747 180.518 3.64584C180.518 3.12422 180.925 2.70802 181.44 2.70802H182.946C183.459 2.70802 183.881 2.27703 183.881 1.75541C183.881 1.23378 183.464 0.810188 182.951 0.810188H168.544V25.4821H189.675C190.188 25.4821 190.604 25.0585 190.604 24.5369C190.602 24.0152 190.171 23.5842 189.656 23.5842ZM196.416 23.5842H192.292C191.777 23.5842 191.359 24.0097 191.359 24.5332C191.359 25.0566 191.777 25.4821 192.292 25.4821H196.416C196.931 25.4821 197.349 25.0566 197.349 24.5332C197.349 24.0097 196.931 23.5842 196.416 23.5842ZM199.068 23.5842C198.553 23.5842 198.135 24.0097 198.135 24.5332C198.135 25.0566 198.553 25.4821 199.068 25.4821C199.582 25.4821 200.001 25.0566 200.001 24.5332C200.001 24.0097 199.582 23.5842 199.068 23.5842ZM105.124 0.832385L105.104 0.812038L97.2299 8.81773L89.3554 0.812038L89.3354 0.832385V0.810188H83.334V25.4821H89.3572V9.4004L97.2463 17.4579L105.135 9.4004V25.4821H111.126V0.810188H105.124V0.832385ZM139.574 13C139.574 20.1789 133.851 26 126.791 26C119.731 26 114.008 20.1807 114.008 13C114.01 5.81929 119.733 0 126.793 0C133.851 0 139.574 5.81929 139.574 13ZM133.593 12.9981C133.593 9.17843 130.548 6.08381 126.793 6.08381C123.038 6.08381 119.993 9.18028 119.993 12.9981C119.993 16.816 123.038 19.9125 126.793 19.9125C130.548 19.9125 133.593 16.8179 133.593 12.9981ZM152.453 13.7658L145.099 0.810188H138.165L148.985 19.8736L152.453 25.9815L155.922 19.8736L166.742 0.810188H159.808L152.453 13.7658Z" fill="black"/>
</svg>
